<svg width="1455" height="575" viewBox="0 0 1455 575" fill="none" xmlns="http://www.w3.org/2000/svg">
<circle cx="347.364" cy="272.364" r="12" transform="rotate(150.367 347.364 272.364)" fill="#F7B3AF"/>
<circle cx="704.364" cy="537.364" r="12" transform="rotate(150.367 704.364 537.364)" fill="#590EA1"/>
<circle cx="1438.42" cy="84.4169" r="12" transform="rotate(-120.326 1438.42 84.4169)" fill="#FE9AFF"/>
<circle cx="399.428" cy="464.699" r="23" transform="rotate(-21.5203 399.428 464.699)" stroke="#5C1EA1" stroke-width="8"/>
<circle cx="958.008" cy="412.942" r="12" transform="rotate(-95.0414 958.008 412.942)" fill="#F7B3AF"/>
<circle cx="1028.12" cy="80.3247" r="23" transform="rotate(-21.5203 1028.12 80.3247)" stroke="#FE9AFF" stroke-width="8"/>
<circle cx="218.844" cy="62.844" r="12" transform="rotate(52.0008 218.844 62.844)" fill="#F8BB09"/>
<path d="M1167.98 60.4155L1189.19 60.661L1189.44 39.4493L1210.65 39.6948L1210.9 18.483L1232.11 18.7285" stroke="#E57281" stroke-width="8" stroke-linecap="round" stroke-linejoin="round"/>
<circle cx="16.4171" cy="558.417" r="12" transform="rotate(-120.326 16.4171 558.417)" fill="#E57281"/>
</svg>
