<svg width="1546" height="771" viewBox="0 0 1546 771" fill="none" xmlns="http://www.w3.org/2000/svg">
<path fill-rule="evenodd" clip-rule="evenodd" d="M1365.81 247.455L1348 255.032L1350.73 234.842L1353.46 214.652L1368.53 227.244L1383.61 239.836L1365.81 247.455Z" fill="#4664FF"/>
<path fill-rule="evenodd" clip-rule="evenodd" d="M234 251.083L310.189 212.527L334 265.662L257.811 304.185L234 251.083Z" fill="#2D2D2D"/>
<path d="M260.348 292.46L267.927 268.891L282.05 271.686L287.594 242.614L301.24 245.026L305.209 224.522" stroke="#F2F2F2" stroke-width="3.11" stroke-linecap="round" stroke-linejoin="round"/>
<path d="M253 668.737C252.998 666.78 253.542 664.866 254.564 663.238C255.586 661.609 257.039 660.34 258.74 659.589C260.441 658.839 262.314 658.641 264.12 659.022C265.927 659.402 267.587 660.344 268.89 661.727C270.193 663.11 271.08 664.873 271.44 666.792C271.8 668.712 271.617 670.701 270.912 672.51C270.208 674.318 269.015 675.864 267.483 676.951C265.952 678.039 264.152 678.619 262.31 678.619C261.088 678.621 259.877 678.366 258.748 677.87C257.618 677.374 256.592 676.646 255.727 675.729C254.863 674.811 254.177 673.721 253.709 672.521C253.241 671.321 253 670.036 253 668.737Z" stroke="#FF8364" stroke-width="3.11" stroke-linecap="round" stroke-linejoin="round"/>
<path fill-rule="evenodd" clip-rule="evenodd" d="M1236 332.764C1236 329.163 1237 325.642 1238.88 322.646C1240.76 319.651 1243.44 317.315 1246.56 315.933C1249.69 314.552 1253.14 314.187 1256.46 314.885C1259.79 315.583 1262.84 317.313 1265.24 319.855C1267.64 322.398 1269.28 325.639 1269.95 329.17C1270.61 332.701 1270.28 336.362 1268.99 339.691C1267.7 343.021 1265.51 345.869 1262.69 347.876C1259.88 349.883 1256.57 350.958 1253.18 350.967C1250.93 350.974 1248.69 350.508 1246.61 349.596C1244.53 348.685 1242.63 347.345 1241.03 345.654C1239.44 343.963 1238.17 341.954 1237.31 339.742C1236.44 337.53 1236 335.159 1236 332.764Z" fill="#FFCF2D"/>
<path d="M316.49 609.952C316.49 606.589 317.429 603.302 319.187 600.506C320.945 597.71 323.444 595.531 326.367 594.244C329.291 592.957 332.508 592.62 335.612 593.276C338.715 593.932 341.566 595.552 343.804 597.93C346.042 600.307 347.565 603.337 348.183 606.635C348.8 609.933 348.483 613.351 347.272 616.458C346.061 619.565 344.011 622.22 341.379 624.089C338.748 625.957 335.655 626.954 332.49 626.954C328.247 626.954 324.177 625.163 321.177 621.974C318.176 618.786 316.49 614.461 316.49 609.952Z" stroke="#6BD5E1" stroke-width="3.11" stroke-linecap="round" stroke-linejoin="round"/>
<g filter="url(#filter0_d)">
<rect x="1029" y="693" width="63" height="59" rx="15" fill="#F1921B"/>
</g>
<path d="M1053.29 731.968L1055.37 729.365L1048.67 724L1055.37 718.635L1053.29 716.032L1044.96 722.698C1044.76 722.854 1044.61 723.053 1044.5 723.278C1044.39 723.503 1044.33 723.75 1044.33 724C1044.33 724.25 1044.39 724.497 1044.5 724.722C1044.61 724.947 1044.76 725.146 1044.96 725.302L1053.29 731.968ZM1068.71 716.032L1066.62 718.635L1073.33 724L1066.62 729.365L1068.71 731.968L1077.04 725.302C1077.24 725.146 1077.39 724.947 1077.5 724.722C1077.61 724.497 1077.67 724.25 1077.67 724C1077.67 723.75 1077.61 723.503 1077.5 723.278C1077.39 723.053 1077.24 722.854 1077.04 722.698L1068.71 716.032Z" fill="white"/>
<path d="M1065.96 709.36L1059.29 739.36L1056.04 738.637L1062.71 708.637L1065.96 709.36Z" fill="white"/>
<g filter="url(#filter1_b)">
<rect x="223" y="548.161" width="200" height="152.05" rx="16" transform="rotate(-9.54392 223 548.161)" fill="url(#paint0_linear)" fill-opacity="0.8"/>
<rect x="223.576" y="548.571" width="199" height="151.05" rx="15.5" transform="rotate(-9.54392 223.576 548.571)" stroke="#393939"/>
</g>
<path d="M254.614 571.721C254.191 571.792 253.776 571.8 253.369 571.746C252.963 571.691 252.578 571.571 252.216 571.386C251.853 571.201 251.524 570.958 251.227 570.658C250.929 570.348 250.672 569.975 250.457 569.538L252.094 568.553C252.307 569.028 252.602 569.405 252.98 569.682C253.356 569.95 253.806 570.04 254.331 569.951C254.524 569.919 254.705 569.865 254.872 569.789C255.046 569.703 255.195 569.603 255.318 569.487C255.448 569.361 255.542 569.218 255.6 569.057C255.658 568.895 255.671 568.718 255.639 568.525C255.608 568.341 255.548 568.18 255.458 568.044C255.369 567.908 255.236 567.788 255.057 567.686C254.889 567.581 254.67 567.49 254.401 567.413C254.142 567.333 253.822 567.259 253.441 567.191L252.796 567.072C252.514 567.025 252.222 566.946 251.919 566.836C251.626 566.725 251.35 566.577 251.092 566.393C250.834 566.209 250.607 565.983 250.41 565.713C250.221 565.432 250.095 565.103 250.031 564.726C249.966 564.339 249.979 563.968 250.071 563.612C250.17 563.245 250.337 562.914 250.571 562.619C250.813 562.314 251.116 562.059 251.479 561.856C251.85 561.642 252.275 561.495 252.754 561.415C253.251 561.331 253.69 561.328 254.073 561.406C254.462 561.473 254.799 561.591 255.084 561.761C255.375 561.92 255.62 562.111 255.819 562.333C256.017 562.555 256.171 562.771 256.282 562.979L254.755 563.946C254.617 563.685 254.405 563.465 254.119 563.286C253.843 563.106 253.493 563.051 253.069 563.122C252.664 563.19 252.345 563.343 252.11 563.581C251.874 563.81 251.782 564.077 251.833 564.38C251.882 564.675 252.054 564.906 252.347 565.075C252.639 565.234 253.082 565.363 253.676 565.462L254.332 565.565C254.751 565.636 255.137 565.737 255.49 565.867C255.851 565.986 256.167 566.15 256.439 566.36C256.72 566.568 256.947 566.824 257.121 567.126C257.303 567.417 257.428 567.77 257.498 568.184C257.584 568.699 257.554 569.163 257.405 569.576C257.265 569.979 257.054 570.326 256.772 570.62C256.49 570.913 256.156 571.154 255.772 571.342C255.387 571.53 255.001 571.656 254.614 571.721ZM257.612 560.825L259.421 560.521L260.326 565.905L260.409 565.891L262.292 563.247L264.529 562.871L264.547 562.981L262.446 565.847L265.855 569.49L265.873 569.601L263.733 569.961L261.384 567.303L260.716 568.225L261.083 570.406L259.274 570.71L257.612 560.825ZM266.301 561.565C266.144 561.591 265.988 561.589 265.831 561.558C265.682 561.517 265.544 561.455 265.417 561.373C265.297 561.279 265.193 561.169 265.105 561.042C265.027 560.913 264.974 560.766 264.946 560.6C264.918 560.434 264.92 560.278 264.952 560.13C264.993 559.981 265.056 559.848 265.14 559.73C265.232 559.601 265.343 559.497 265.471 559.418C265.608 559.329 265.754 559.272 265.911 559.245C266.233 559.191 266.528 559.26 266.797 559.451C267.064 559.633 267.225 559.885 267.279 560.208C267.333 560.53 267.265 560.825 267.073 561.094C266.88 561.354 266.623 561.51 266.301 561.565ZM266.706 569.461L265.568 562.696L267.377 562.392L268.514 569.157L266.706 569.461ZM270.168 568.879L268.506 558.993L270.315 558.689L271.977 568.575L270.168 568.879ZM273.525 568.314L271.863 558.429L273.672 558.125L275.334 568.01L273.525 568.314ZM279.531 567.532C279.089 567.606 278.684 567.617 278.315 567.566C277.956 567.512 277.633 567.42 277.346 567.289C277.066 567.146 276.82 566.975 276.606 566.774C276.391 566.564 276.218 566.347 276.085 566.123L277.585 565.162C277.8 565.485 278.051 565.712 278.338 565.844C278.633 565.965 278.941 565.998 279.264 565.944C279.595 565.888 279.847 565.784 280.02 565.632C280.194 565.48 280.266 565.321 280.238 565.155C280.207 564.971 280.1 564.838 279.916 564.755C279.739 564.662 279.445 564.603 279.034 564.577L278.046 564.53C277.827 564.52 277.594 564.483 277.346 564.421C277.109 564.357 276.884 564.262 276.674 564.136C276.464 564.011 276.28 563.848 276.123 563.647C275.966 563.446 275.863 563.198 275.814 562.904C275.758 562.573 275.778 562.266 275.872 561.985C275.976 561.703 276.138 561.453 276.357 561.237C276.574 561.011 276.841 560.824 277.157 560.676C277.481 560.518 277.836 560.406 278.222 560.341C278.866 560.233 279.463 560.265 280.013 560.438C280.561 560.601 281.001 560.939 281.333 561.451L279.88 562.348C279.706 562.103 279.485 561.941 279.216 561.863C278.948 561.785 278.689 561.767 278.441 561.809C278.183 561.853 277.967 561.946 277.792 562.089C277.616 562.222 277.541 562.372 277.569 562.538C277.596 562.694 277.695 562.805 277.867 562.871C278.048 562.935 278.283 562.981 278.571 563.008L279.648 563.083C280.367 563.132 280.922 563.313 281.316 563.626C281.716 563.927 281.959 564.327 282.042 564.824C282.092 565.118 282.07 565.411 281.977 565.701C281.884 565.991 281.726 566.263 281.504 566.519C281.289 566.763 281.013 566.975 280.674 567.155C280.344 567.333 279.963 567.459 279.531 567.532Z" fill="#EFEFEF"/>
<path d="M281.988 675.69L281.281 671.483L282.656 671.252C283.113 671.175 283.471 671.212 283.732 671.362C283.995 671.512 284.158 671.772 284.22 672.142C284.253 672.338 284.226 672.522 284.14 672.693C284.054 672.862 283.921 673.004 283.743 673.119C283.981 673.144 284.18 673.236 284.341 673.393C284.504 673.548 284.606 673.748 284.647 673.995C284.711 674.372 284.638 674.689 284.43 674.946C284.222 675.203 283.894 675.369 283.447 675.444L281.988 675.69ZM282.212 673.629L282.467 675.143L283.383 674.989C283.641 674.945 283.833 674.845 283.959 674.687C284.086 674.527 284.13 674.329 284.091 674.094C284.006 673.588 283.688 673.381 283.137 673.473L282.212 673.629ZM282.137 673.184L282.975 673.043C283.218 673.002 283.401 672.909 283.525 672.763C283.651 672.617 283.697 672.44 283.662 672.232C283.623 672.001 283.527 671.845 283.375 671.764C283.222 671.68 283.008 671.662 282.733 671.708L281.912 671.846L282.137 673.184ZM286.898 674.924C286.474 674.995 286.106 674.914 285.794 674.681C285.481 674.447 285.285 674.096 285.207 673.63L285.19 673.532C285.138 673.222 285.151 672.936 285.227 672.673C285.306 672.409 285.439 672.19 285.628 672.018C285.819 671.843 286.038 671.735 286.286 671.693C286.693 671.625 287.031 671.705 287.302 671.935C287.572 672.165 287.749 672.53 287.833 673.028L287.87 673.251L285.753 673.607C285.812 673.914 285.944 674.148 286.147 674.31C286.352 674.47 286.588 674.527 286.854 674.482C287.042 674.451 287.196 674.385 287.314 674.286C287.432 674.187 287.529 674.066 287.606 673.922L287.975 674.121C287.781 674.568 287.422 674.835 286.898 674.924ZM286.36 672.132C286.145 672.168 285.977 672.278 285.857 672.46C285.737 672.641 285.683 672.876 285.696 673.165L287.262 672.902L287.255 672.861C287.194 672.592 287.086 672.394 286.93 672.268C286.774 672.14 286.584 672.095 286.36 672.132ZM288.992 674.512L288.535 671.799L288.041 671.882L287.972 671.469L288.466 671.386L288.412 671.065C288.356 670.73 288.402 670.456 288.55 670.243C288.698 670.03 288.936 669.896 289.264 669.841C289.387 669.82 289.512 669.816 289.639 669.828L289.683 670.266C289.589 670.264 289.492 670.272 289.39 670.289C289.216 670.318 289.091 670.392 289.014 670.51C288.936 670.626 288.913 670.778 288.945 670.967L289 671.296L289.668 671.184L289.737 671.597L289.07 671.709L289.526 674.422L288.992 674.512ZM290.376 672.642C290.325 672.336 290.338 672.051 290.417 671.786C290.497 671.521 290.633 671.304 290.824 671.135C291.018 670.966 291.252 670.858 291.527 670.812C291.953 670.74 292.322 670.83 292.633 671.081C292.947 671.331 293.144 671.701 293.227 672.19L293.233 672.227C293.284 672.532 293.271 672.815 293.195 673.078C293.12 673.338 292.985 673.554 292.79 673.725C292.597 673.896 292.359 674.005 292.078 674.053C291.654 674.124 291.286 674.034 290.972 673.784C290.661 673.533 290.464 673.165 290.383 672.68L290.376 672.642ZM290.925 672.616C290.983 672.962 291.11 673.227 291.305 673.41C291.502 673.593 291.735 673.662 292.005 673.616C292.276 673.571 292.474 673.428 292.599 673.19C292.722 672.949 292.752 672.637 292.688 672.254C292.63 671.911 292.502 671.647 292.302 671.463C292.105 671.276 291.871 671.206 291.601 671.251C291.337 671.295 291.142 671.436 291.016 671.673C290.889 671.91 290.859 672.225 290.925 672.616ZM295.226 670.743C295.143 670.743 295.054 670.751 294.96 670.767C294.609 670.826 294.397 671.015 294.322 671.334L294.695 673.553L294.16 673.643L293.635 670.517L294.155 670.43L294.224 670.789C294.352 670.481 294.577 670.299 294.899 670.245C295.003 670.228 295.084 670.228 295.143 670.246L295.226 670.743ZM297.414 673.155C296.991 673.227 296.623 673.146 296.31 672.913C295.997 672.679 295.802 672.328 295.723 671.862L295.707 671.764C295.655 671.454 295.667 671.168 295.744 670.905C295.822 670.64 295.956 670.422 296.145 670.25C296.335 670.075 296.554 669.967 296.803 669.925C297.209 669.857 297.548 669.937 297.818 670.167C298.088 670.397 298.266 670.761 298.349 671.26L298.387 671.483L296.269 671.839C296.329 672.146 296.46 672.38 296.664 672.542C296.869 672.701 297.104 672.759 297.37 672.714C297.559 672.683 297.712 672.617 297.83 672.518C297.948 672.419 298.046 672.298 298.122 672.154L298.492 672.353C298.297 672.8 297.938 673.067 297.414 673.155ZM296.877 670.364C296.661 670.4 296.493 670.51 296.373 670.692C296.253 670.873 296.2 671.108 296.213 671.397L297.779 671.133L297.772 671.093C297.711 670.824 297.602 670.626 297.446 670.5C297.29 670.372 297.1 670.327 296.877 670.364Z" fill="#656565"/>
<path d="M345.646 660.661L347.598 663.862L348.396 660.199L349.115 660.078L349.823 664.284L349.268 664.378L348.993 662.739L348.747 660.963L347.939 664.601L347.514 664.672L345.565 661.506L345.916 663.257L346.191 664.895L345.636 664.988L344.929 660.782L345.646 660.661ZM351.299 664.036L350.765 664.126L350.239 661L350.773 660.91L351.299 664.036ZM350.056 660.178C350.042 660.091 350.055 660.014 350.097 659.945C350.141 659.877 350.215 659.833 350.319 659.816C350.423 659.798 350.507 659.815 350.571 659.866C350.635 659.916 350.674 659.985 350.689 660.072C350.704 660.158 350.689 660.235 350.644 660.302C350.6 660.369 350.526 660.411 350.422 660.428C350.318 660.446 350.234 660.43 350.171 660.382C350.109 660.333 350.071 660.265 350.056 660.178ZM351.76 662.325C351.679 661.845 351.728 661.441 351.907 661.112C352.085 660.781 352.358 660.584 352.725 660.522C353.091 660.461 353.402 660.537 353.658 660.752L353.384 659.122L353.919 659.032L354.665 663.47L354.174 663.553L354.091 663.222C353.922 663.52 353.646 663.701 353.265 663.765C352.903 663.826 352.582 663.727 352.303 663.469C352.026 663.211 351.847 662.843 351.767 662.365L351.76 662.325ZM352.305 662.295C352.364 662.65 352.484 662.915 352.664 663.091C352.844 663.266 353.063 663.332 353.321 663.289C353.66 663.232 353.882 663.038 353.987 662.708L353.746 661.272C353.536 661.004 353.266 660.898 352.935 660.954C352.673 660.998 352.486 661.133 352.373 661.36C352.261 661.587 352.238 661.899 352.305 662.295Z" fill="#656565"/>
<path d="M405.49 653.796L403.727 654.092L403.516 655.257L402.944 655.353L403.843 650.876L404.328 650.795L406.645 654.731L406.076 654.826L405.49 653.796ZM403.818 653.608L405.248 653.367L404.201 651.52L403.818 653.608ZM407.39 654.605L406.934 651.892L406.44 651.975L406.371 651.562L406.865 651.479L406.811 651.158C406.755 650.823 406.801 650.549 406.949 650.336C407.097 650.123 407.335 649.989 407.663 649.934C407.786 649.913 407.911 649.909 408.038 649.921L408.082 650.36C407.988 650.357 407.891 650.365 407.788 650.382C407.615 650.411 407.49 650.485 407.413 650.603C407.335 650.719 407.312 650.871 407.344 651.06L407.399 651.389L408.067 651.277L408.136 651.69L407.469 651.802L407.925 654.515L407.39 654.605ZM409.257 650.299L409.384 651.056L409.968 650.957L410.037 651.371L409.454 651.469L409.78 653.407C409.801 653.533 409.842 653.623 409.905 653.677C409.967 653.73 410.061 653.746 410.186 653.725C410.248 653.715 410.331 653.689 410.435 653.648L410.508 654.081C410.374 654.143 410.24 654.186 410.107 654.208C409.868 654.248 409.676 654.206 409.531 654.082C409.385 653.958 409.29 653.763 409.245 653.497L408.919 651.559L408.35 651.654L408.28 651.241L408.85 651.145L408.722 650.389L409.257 650.299ZM412.427 653.818C412.003 653.889 411.635 653.808 411.323 653.576C411.01 653.341 410.815 652.991 410.736 652.525L410.72 652.426C410.668 652.116 410.68 651.83 410.757 651.568C410.835 651.303 410.968 651.084 411.157 650.912C411.348 650.737 411.567 650.629 411.816 650.587C412.222 650.519 412.561 650.6 412.831 650.83C413.101 651.059 413.278 651.424 413.362 651.923L413.4 652.145L411.282 652.501C411.341 652.808 411.473 653.042 411.676 653.204C411.881 653.364 412.117 653.421 412.383 653.377C412.571 653.345 412.725 653.28 412.843 653.18C412.961 653.081 413.058 652.96 413.135 652.816L413.504 653.016C413.31 653.462 412.951 653.73 412.427 653.818ZM411.89 651.027C411.674 651.063 411.506 651.172 411.386 651.355C411.266 651.535 411.212 651.77 411.225 652.059L412.791 651.796L412.785 651.755C412.723 651.486 412.615 651.289 412.459 651.162C412.303 651.034 412.113 650.989 411.89 651.027ZM415.324 650.55C415.241 650.55 415.152 650.558 415.058 650.574C414.707 650.633 414.494 650.822 414.419 651.142L414.792 653.361L414.258 653.451L413.732 650.325L414.252 650.237L414.322 650.597C414.45 650.288 414.675 650.107 414.997 650.053C415.101 650.035 415.182 650.035 415.24 650.053L415.324 650.55Z" fill="#656565"/>
<path d="M280.612 662.904C280.717 663.529 280.689 664.013 280.526 664.353C280.363 664.693 280.055 664.901 279.6 664.978C279.151 665.053 278.794 664.961 278.529 664.701C278.263 664.438 278.076 664.012 277.969 663.422L277.849 662.709C277.745 662.09 277.775 661.613 277.938 661.276C278.101 660.94 278.411 660.733 278.868 660.657C279.32 660.581 279.678 660.67 279.941 660.925C280.203 661.178 280.388 661.606 280.496 662.21L280.612 662.904ZM279.955 662.262C279.879 661.81 279.76 661.491 279.598 661.306C279.436 661.12 279.217 661.05 278.942 661.096C278.668 661.142 278.486 661.278 278.396 661.506C278.305 661.733 278.294 662.06 278.362 662.489L278.506 663.344C278.582 663.798 278.704 664.123 278.872 664.319C279.041 664.512 279.259 664.587 279.527 664.542C279.791 664.497 279.969 664.362 280.062 664.137C280.157 663.911 280.17 663.578 280.102 663.138L279.955 662.262Z" fill="#656565"/>
<path d="M268.389 625.158L268.251 623.024L270.406 622.662L270.489 623.156L268.787 623.442L268.853 624.61C269.039 624.454 269.262 624.354 269.524 624.31C269.908 624.246 270.233 624.322 270.501 624.538C270.769 624.753 270.939 625.076 271.012 625.507C271.085 625.94 271.025 626.302 270.832 626.592C270.641 626.88 270.335 627.059 269.915 627.129C269.543 627.192 269.223 627.14 268.953 626.973C268.683 626.807 268.502 626.544 268.408 626.186L268.913 626.101C268.987 626.336 269.103 626.503 269.262 626.603C269.421 626.701 269.614 626.731 269.842 626.693C270.09 626.651 270.271 626.534 270.383 626.341C270.497 626.147 270.529 625.901 270.478 625.603C270.431 625.322 270.316 625.109 270.134 624.966C269.953 624.82 269.735 624.768 269.481 624.811C269.248 624.85 269.073 624.932 268.958 625.056L268.835 625.196L268.389 625.158ZM274.157 624.512C274.262 625.138 274.234 625.621 274.071 625.961C273.908 626.302 273.6 626.51 273.145 626.586C272.696 626.662 272.339 626.569 272.074 626.309C271.808 626.047 271.621 625.621 271.514 625.031L271.394 624.317C271.29 623.699 271.32 623.221 271.483 622.885C271.646 622.548 271.956 622.342 272.413 622.265C272.865 622.189 273.223 622.278 273.486 622.533C273.748 622.786 273.933 623.215 274.04 623.818L274.157 624.512ZM273.5 623.871C273.424 623.418 273.305 623.099 273.143 622.915C272.981 622.728 272.762 622.658 272.487 622.704C272.213 622.75 272.031 622.887 271.94 623.114C271.85 623.341 271.839 623.669 271.907 624.097L272.05 624.952C272.127 625.407 272.249 625.732 272.416 625.927C272.586 626.121 272.804 626.195 273.072 626.15C273.336 626.106 273.514 625.971 273.607 625.745C273.702 625.519 273.715 625.186 273.647 624.746L273.5 623.871Z" fill="#656565"/>
<path d="M260.6 589.904L260.063 589.994L259.464 586.432L258.453 587.009L258.371 586.523L259.806 585.691L259.889 585.677L260.6 589.904ZM264.502 587.403C264.607 588.029 264.579 588.512 264.416 588.852C264.253 589.193 263.945 589.401 263.49 589.477C263.041 589.553 262.684 589.46 262.419 589.2C262.153 588.938 261.966 588.512 261.859 587.922L261.739 587.208C261.635 586.59 261.665 586.112 261.828 585.776C261.991 585.439 262.301 585.233 262.758 585.156C263.21 585.08 263.568 585.169 263.831 585.424C264.093 585.677 264.278 586.106 264.385 586.71L264.502 587.403ZM263.845 586.762C263.769 586.309 263.65 585.99 263.488 585.806C263.326 585.619 263.107 585.549 262.832 585.595C262.558 585.641 262.376 585.778 262.285 586.005C262.195 586.232 262.184 586.56 262.252 586.988L262.395 587.843C262.472 588.298 262.594 588.623 262.761 588.818C262.931 589.012 263.149 589.086 263.417 589.041C263.681 588.997 263.859 588.862 263.952 588.636C264.047 588.41 264.06 588.077 263.992 587.637L263.845 586.762ZM267.825 586.844C267.93 587.47 267.901 587.953 267.738 588.294C267.576 588.634 267.267 588.842 266.813 588.919C266.364 588.994 266.007 588.902 265.741 588.641C265.475 588.379 265.289 587.953 265.182 587.363L265.062 586.649C264.958 586.031 264.987 585.554 265.151 585.217C265.314 584.881 265.624 584.674 266.08 584.598C266.533 584.521 266.89 584.611 267.153 584.866C267.416 585.119 267.6 585.547 267.708 586.151L267.825 586.844ZM267.167 586.203C267.091 585.751 266.972 585.432 266.81 585.247C266.648 585.061 266.429 584.99 266.154 585.037C265.881 585.083 265.698 585.219 265.608 585.446C265.517 585.673 265.506 586.001 265.574 586.429L265.718 587.285C265.794 587.739 265.916 588.064 266.084 588.26C266.253 588.453 266.472 588.527 266.739 588.482C267.003 588.438 267.182 588.303 267.274 588.078C267.369 587.852 267.382 587.519 267.314 587.079L267.167 586.203Z" fill="#656565"/>
<path d="M275.004 584.108L287.792 660.167" stroke="#BFBFBF"/>
<path d="M334.599 574.088L347.387 650.147" stroke="#BFBFBF"/>
<path d="M394.194 564.068L406.982 640.128" stroke="#BFBFBF"/>
<path d="M287.792 660.167L406.982 640.128" stroke="#BFBFBF"/>
<path d="M281.337 621.775L400.527 601.736" stroke="#BFBFBF"/>
<path d="M275.004 584.108L394.194 564.068" stroke="#BFBFBF"/>
<path d="M285.6 647.128C285.6 647.128 298.794 634.482 313.692 631.977C328.591 629.472 326.277 615.709 341.176 613.204C356.075 610.699 354.126 599.109 369.025 596.604C383.924 594.1 396.387 577.107 396.387 577.107" stroke="#A3B1FF" stroke-width="2"/>
<ellipse cx="285.599" cy="647.128" rx="2.8777" ry="2.93816" transform="rotate(-9.54392 285.599 647.128)" fill="#A3B1FF"/>
<ellipse cx="313.692" cy="631.978" rx="2.8777" ry="2.93816" transform="rotate(-9.54392 313.692 631.978)" fill="#A3B1FF"/>
<ellipse cx="341.176" cy="613.204" rx="2.8777" ry="2.93816" transform="rotate(-9.54392 341.176 613.204)" fill="#A3B1FF"/>
<ellipse cx="369.024" cy="596.604" rx="2.8777" ry="2.93816" transform="rotate(-9.54392 369.024 596.604)" fill="#A3B1FF"/>
<ellipse cx="396.387" cy="577.107" rx="2.8777" ry="2.93816" transform="rotate(-9.54392 396.387 577.107)" fill="#A3B1FF"/>
<defs>
<filter id="filter0_d" x="1018" y="682" width="93" height="89" filterUnits="userSpaceOnUse" color-interpolation-filters="sRGB">
<feFlood flood-opacity="0" result="BackgroundImageFix"/>
<feColorMatrix in="SourceAlpha" type="matrix" values="0 0 0 0 0 0 0 0 0 0 0 0 0 0 0 0 0 0 127 0"/>
<feOffset dx="4" dy="4"/>
<feGaussianBlur stdDeviation="7.5"/>
<feColorMatrix type="matrix" values="0 0 0 0 0 0 0 0 0 0 0 0 0 0 0 0 0 0 0.15 0"/>
<feBlend mode="normal" in2="BackgroundImageFix" result="effect1_dropShadow"/>
<feBlend mode="normal" in="SourceGraphic" in2="effect1_dropShadow" result="shape"/>
</filter>
<filter id="filter1_b" x="210.429" y="502.429" width="247.584" height="208.248" filterUnits="userSpaceOnUse" color-interpolation-filters="sRGB">
<feFlood flood-opacity="0" result="BackgroundImageFix"/>
<feGaussianBlur in="BackgroundImage" stdDeviation="7.5"/>
<feComposite in2="SourceAlpha" operator="in" result="effect1_backgroundBlur"/>
<feBlend mode="normal" in="SourceGraphic" in2="effect1_backgroundBlur" result="shape"/>
</filter>
<linearGradient id="paint0_linear" x1="232.274" y1="554.736" x2="422.37" y2="696.735" gradientUnits="userSpaceOnUse">
<stop stop-color="#A6CEE3" stop-opacity="0.39"/>
<stop offset="1" stop-color="#F0F0F0" stop-opacity="0"/>
</linearGradient>
</defs>
</svg>
