<svg width="1454" height="600" viewBox="0 0 1454 600" fill="none" xmlns="http://www.w3.org/2000/svg">
<path d="M1115.3 472.126C1116.96 476.046 1116.47 484.11 1108.09 483.998C1097.68 483.858 1097.95 455.83 1097.95 455.83C1097.95 455.83 1108.58 456.32 1115.3 472.126Z" fill="#3FB1B5"/>
<path d="M1018.41 462.648C1015.81 468.164 1019.31 472.602 1022.25 471.076C1027.39 468.402 1029.6 461.528 1029.6 461.528C1029.6 461.528 1020.75 457.72 1018.41 462.648Z" fill="#3FB1B5"/>
<path d="M1115.16 472.126C1109.58 460.968 1103.3 455.662 1093.23 455.662C1076.28 455.662 1065.4 473.806 1063.33 497.27C1063.08 494.358 1060.07 491.376 1059.84 488.352C1056.82 448.172 1078.84 432.324 1095.36 432.324C1108.88 432.31 1112.26 451.742 1115.16 472.126Z" fill="#F1F1F1" stroke="#3FB1B5" stroke-width="6" stroke-miterlimit="10"/>
<path d="M1059.86 497.83C1056.83 457.65 1079.88 441.802 1095.09 441.802C1103.54 441.802 1108.83 446.786 1112.9 458.126" stroke="#3FB1B5" stroke-width="6" stroke-miterlimit="10"/>
<path d="M996.421 415.37C991.899 419.85 983.723 438.218 993.845 441.858C1003.97 445.512 1015.82 409.546 1015.82 409.546C1015.82 409.546 1007.24 404.632 996.421 415.37Z" fill="#FFCF2D" stroke="#FFCF2D" stroke-width="6" stroke-miterlimit="10"/>
<path d="M1079.87 498.823L1076.26 518.409C1074.44 528.237 1065.87 535.377 1055.88 535.377C1045.88 535.377 1037.31 528.237 1035.49 518.409L1031.88 498.823C1031.88 497.843 1032.11 496.905 1032.5 496.065C1035.4 498.977 1044.82 501.105 1055.98 501.105C1066.98 501.105 1076.28 499.033 1079.33 496.205C1079.68 497.003 1079.87 497.899 1079.87 498.823Z" fill="#D0F0E4"/>
<path d="M1077.51 494.176C1077.51 496.948 1067.86 499.188 1055.96 499.188C1044.06 499.188 1034.42 496.948 1034.42 494.176C1034.42 493.952 1034.47 493.742 1034.6 493.532C1035.97 491.068 1045.02 489.177 1055.96 489.177C1067.25 489.177 1076.5 491.193 1077.43 493.756C1077.48 493.896 1077.51 494.036 1077.51 494.176Z" fill="#66B0F0"/>
<path d="M1063.69 464.958C1063.69 476.55 1062.1 487.498 1059.25 497.13H1051.08C1051.05 448.452 1033.3 409.014 1011.42 409.014C1005.73 409.014 1000.33 411.674 995.441 416.462C1009.83 399.62 1015.81 395 1024.03 395C1043.66 395 1063.69 426.318 1063.69 464.958Z" fill="#F1F1F1" stroke="#FFCF2D" stroke-width="6" stroke-miterlimit="10"/>
<path d="M1004.6 406.2C1009.27 402.798 1012.28 401.216 1017.64 401.216C1039.54 401.216 1061.7 437.756 1055.86 497.116" stroke="#FFCF2D" stroke-width="6" stroke-miterlimit="10"/>
<path d="M1055.92 497.116C1055.92 497.116 1057.13 451.406 1032.22 451.252C1025.63 451.21 1019.45 461.668 1019.45 461.668C1019.45 461.668 1048.61 454.052 1050.06 497.116H1055.92Z" fill="#F1F1F1" stroke="#3FB1B5" stroke-width="6" stroke-miterlimit="10"/>
<path d="M1052.87 497.256C1053.22 484.376 1049.97 453.296 1024.8 454.962" stroke="#3FB1B5" stroke-width="6" stroke-miterlimit="10"/>
<path d="M1019.34 418.31C1020.61 418.31 1021.65 417.276 1021.65 416C1021.65 414.724 1020.61 413.69 1019.34 413.69C1018.06 413.69 1017.03 414.724 1017.03 416C1017.03 417.276 1018.06 418.31 1019.34 418.31Z" fill="#F1F1F1" stroke="#FFCF2D" stroke-width="6" stroke-miterlimit="10"/>
<path d="M1073.79 484.375C1075.65 484.375 1077.16 482.865 1077.16 481.001C1077.16 479.138 1075.65 477.627 1073.79 477.627C1071.92 477.627 1070.41 479.138 1070.41 481.001C1070.41 482.865 1071.92 484.375 1073.79 484.375Z" fill="#F1F1F1" stroke="#FFCF2D" stroke-width="6" stroke-miterlimit="10"/>
<path d="M1068.18 419.29C1071.7 419.29 1074.55 416.438 1074.55 412.92C1074.55 409.402 1071.7 406.55 1068.18 406.55C1064.67 406.55 1061.81 409.402 1061.81 412.92C1061.81 416.438 1064.67 419.29 1068.18 419.29Z" fill="#D0F0E4"/>
<path d="M1084.91 557.568L1079.27 529.47C1078.8 527.076 1075.6 526.516 1074.34 528.616C1066.56 541.566 1045.42 541.65 1037.51 528.742L1037.37 528.504C1036.1 526.432 1032.93 526.992 1032.46 529.372L1026.8 557.554" stroke="#66B0F0" stroke-width="6" stroke-miterlimit="10"/>
<path d="M1055.86 538.388V557.694" stroke="#66B0F0" stroke-width="6" stroke-miterlimit="10"/>
<path d="M1013.99 557.568H1201.65" stroke="#66B0F0" stroke-width="6" stroke-miterlimit="10"/>
<path d="M274.849 329.472C331.865 329.472 378.085 283.252 378.085 226.236C378.085 169.22 331.865 123 274.849 123C217.834 123 171.613 169.22 171.613 226.236C171.613 283.252 217.834 329.472 274.849 329.472Z" fill="#3A3A3A"/>
<path d="M240.27 329.486C197.108 315.038 166 274.27 166 226.236" stroke="#FFE48A" stroke-width="7" stroke-miterlimit="10"/>
<path d="M274.85 292.918C311.677 292.918 341.532 263.063 341.532 226.236C341.532 189.409 311.677 159.554 274.85 159.554C238.022 159.554 208.168 189.409 208.168 226.236C208.168 263.063 238.022 292.918 274.85 292.918Z" stroke="#ABABAB" stroke-width="10" stroke-miterlimit="10" stroke-linecap="round" stroke-dasharray="30.03 30.03"/>
<path d="M274.851 159.568V170.67" stroke="#ABABAB" stroke-width="15" stroke-miterlimit="10" stroke-linecap="round"/>
<path d="M274.851 281.802V292.918" stroke="#ABABAB" stroke-width="15" stroke-miterlimit="10" stroke-linecap="round"/>
<path d="M227.698 179.084L235.552 186.952" stroke="#ABABAB" stroke-width="15" stroke-miterlimit="10" stroke-linecap="round"/>
<path d="M314.134 265.534L321.988 273.388" stroke="#ABABAB" stroke-width="15" stroke-miterlimit="10" stroke-linecap="round"/>
<path d="M208.168 226.236H219.284" stroke="#ABABAB" stroke-width="15" stroke-miterlimit="10" stroke-linecap="round"/>
<path d="M330.415 226.236H341.517" stroke="#ABABAB" stroke-width="15" stroke-miterlimit="10" stroke-linecap="round"/>
<path d="M227.698 273.388L235.552 265.534" stroke="#ABABAB" stroke-width="15" stroke-miterlimit="10" stroke-linecap="round"/>
<path d="M314.134 186.952L321.988 179.084" stroke="#ABABAB" stroke-width="15" stroke-miterlimit="10" stroke-linecap="round"/>
<path d="M274.85 297.118C265.288 297.118 256.006 295.242 247.256 291.546C238.814 287.976 231.24 282.866 224.73 276.356C218.22 269.846 213.11 262.272 209.54 253.83C205.844 245.094 203.968 235.812 203.968 226.236C203.968 206.594 211.584 188.562 225.29 176.116L230.932 182.332C225.094 187.638 220.796 193.462 217.464 201.274C214.118 209.128 212.354 217.752 212.354 226.222C212.354 234.664 214.006 242.84 217.268 250.54C220.418 257.974 224.926 264.666 230.666 270.406C236.406 276.146 243.084 280.654 250.532 283.79C258.232 287.052 266.408 288.704 274.85 288.704C283.292 288.704 291.468 287.052 299.168 283.79C306.602 280.64 313.294 276.132 319.034 270.406C324.774 264.666 329.282 257.988 332.432 250.54C335.694 242.84 337.346 234.664 337.346 226.222C337.346 217.822 335.638 209.66 332.264 201.946C329.016 194.526 324.368 187.834 318.46 182.08C312.566 176.34 305.734 171.818 298.146 168.654C290.32 165.392 283.32 164.02 274.878 164.02V155.62C284.44 155.62 292.532 157.216 301.38 160.898C309.948 164.468 317.662 169.564 324.326 176.06C331.018 182.584 336.282 190.158 339.964 198.572C343.8 207.35 345.76 216.646 345.76 226.208C345.76 235.77 343.884 245.052 340.188 253.802C336.618 262.244 331.508 269.818 324.998 276.328C318.488 282.838 310.914 287.948 302.472 291.518C293.694 295.242 284.412 297.118 274.85 297.118Z" fill="#3A3A3A" stroke="#ABABAB" stroke-width="15" stroke-miterlimit="10" stroke-linecap="round" stroke-linejoin="round"/>
<path d="M239.906 190.634L283.908 235.77" stroke="#FF9E96" stroke-width="7" stroke-miterlimit="10" stroke-linecap="round"/>
<path d="M275.327 230.184C277.252 230.184 278.813 228.623 278.813 226.698C278.813 224.773 277.252 223.212 275.327 223.212C273.402 223.212 271.841 224.773 271.841 226.698C271.841 228.623 273.402 230.184 275.327 230.184Z" fill="#3A3A3A" stroke="#ABABAB" stroke-width="15" stroke-miterlimit="10" stroke-linecap="round"/>
<path d="M294.338 152.526L294.968 148.032C295.276 145.96 297.362 144.644 299.364 145.26L303.76 146.59C305.762 147.192 306.77 149.446 305.874 151.35L303.746 155.634" stroke="#ABABAB" stroke-width="15" stroke-miterlimit="10" stroke-linecap="round"/>
<path fill-rule="evenodd" clip-rule="evenodd" d="M208 458.232L284.189 419L308 473.067L231.811 512.266L208 458.232Z" fill="#3C3C3C"/>
<path d="M234.348 500.335L241.927 476.353L256.05 479.196L261.594 449.614L275.24 452.069L279.209 431.205" stroke="#FF8364" stroke-width="3.11" stroke-linecap="round" stroke-linejoin="round"/>
<path d="M1202 320.116C1202 318.125 1202.54 316.177 1203.56 314.52C1204.59 312.864 1206.04 311.572 1207.74 310.808C1209.44 310.044 1211.31 309.843 1213.12 310.231C1214.93 310.618 1216.59 311.576 1217.89 312.983C1219.19 314.391 1220.08 316.184 1220.44 318.137C1220.8 320.09 1220.62 322.115 1219.91 323.955C1219.21 325.795 1218.01 327.368 1216.48 328.475C1214.95 329.581 1213.15 330.172 1211.31 330.172C1210.09 330.173 1208.88 329.914 1207.75 329.41C1206.62 328.905 1205.59 328.164 1204.73 327.23C1203.86 326.297 1203.18 325.188 1202.71 323.967C1202.24 322.746 1202 321.438 1202 320.116Z" stroke="#FF8364" stroke-width="3.11" stroke-linecap="round" stroke-linejoin="round"/>
<path d="M1265.49 260.3C1265.49 256.879 1266.43 253.534 1268.19 250.689C1269.94 247.844 1272.44 245.626 1275.37 244.317C1278.29 243.007 1281.51 242.665 1284.61 243.332C1287.72 244 1290.57 245.648 1292.8 248.067C1295.04 250.487 1296.57 253.569 1297.18 256.925C1297.8 260.281 1297.48 263.76 1296.27 266.921C1295.06 270.082 1293.01 272.784 1290.38 274.685C1287.75 276.586 1284.65 277.601 1281.49 277.601C1277.25 277.601 1273.18 275.778 1270.18 272.534C1267.18 269.289 1265.49 264.889 1265.49 260.3Z" stroke="#6BD5E1" stroke-width="3.11" stroke-linecap="round" stroke-linejoin="round"/>
<path fill-rule="evenodd" clip-rule="evenodd" d="M507.81 591.379L490 599.088L492.73 578.544L495.46 558L510.53 570.813L525.61 583.626L507.81 591.379Z" fill="#FFD98E"/>
<path d="M1428 358.985C1428 356.617 1428.7 354.301 1430.02 352.33C1431.33 350.36 1433.21 348.823 1435.4 347.915C1437.59 347.007 1440 346.768 1442.33 347.228C1444.66 347.689 1446.8 348.828 1448.48 350.502C1450.16 352.176 1451.3 354.309 1451.77 356.632C1452.23 358.955 1452 361.362 1451.09 363.551C1450.18 365.739 1448.64 367.61 1446.67 368.926C1444.69 370.242 1442.37 370.944 1440 370.944C1438.42 370.946 1436.86 370.638 1435.41 370.038C1433.95 369.437 1432.63 368.557 1431.52 367.446C1430.4 366.335 1429.52 365.016 1428.91 363.565C1428.31 362.113 1428 360.557 1428 358.985Z" stroke="#FF8364" stroke-width="3.11" stroke-linecap="round" stroke-linejoin="round"/>
<circle cx="16.3637" cy="554.364" r="12" transform="rotate(150.367 16.3637 554.364)" fill="#E57281"/>
</svg>
