<svg width="73" height="73" viewBox="0 0 73 73" fill="none" xmlns="http://www.w3.org/2000/svg">
<g filter="url(#filter0_d)">
<path fill-rule="evenodd" clip-rule="evenodd" d="M35.748 3.79386C35.746 1.04674 32.8218 -0.333452 31.0907 1.59566L5.71953 29.8703C4.64081 31.0724 4.62554 33.035 5.68542 34.2538L31.1002 63.4792C32.8188 65.4556 35.7937 64.0699 35.7916 61.2938L35.748 3.79386ZM29.9594 15.4796C29.9594 14.5536 28.9665 14.095 28.3945 14.7568L13.7397 31.7119C13.3948 32.1109 13.3922 32.748 13.7339 33.1506L28.3887 50.4173C28.9581 51.0883 29.9594 50.6319 29.9594 49.7013V15.4796Z" fill="#8458FF"/>
<path fill-rule="evenodd" clip-rule="evenodd" d="M42.8111 63.7175C41.0948 65.6615 38.1594 64.3012 38.1383 61.552L37.6947 3.76475C37.6734 0.989583 40.635 -0.417013 42.3675 1.5454L68.0986 30.6903C69.1676 31.9012 69.1676 33.8643 68.0986 35.0751L42.8111 63.7175ZM56.8041 34.643C58.1069 34.643 58.7593 36.2182 57.838 37.1393L45.4709 49.5045C44.5496 50.4256 42.9747 49.7732 42.9747 48.4705L42.9747 36.1053C42.9747 35.2977 43.6294 34.643 44.437 34.643L56.8041 34.643ZM57.838 26.7226C58.7593 27.6437 58.1069 29.2189 56.8041 29.2189L44.437 29.219C43.6294 29.219 42.9747 28.5643 42.9747 27.7567L42.9747 15.3915C42.9747 14.0888 44.5496 13.4364 45.4709 14.3574L57.838 26.7226Z" fill="#8458FF"/>
</g>
<defs>
<filter id="filter0_d" x="0.900391" y="0.630859" width="71.9999" height="72.0007" filterUnits="userSpaceOnUse" color-interpolation-filters="sRGB">
<feFlood flood-opacity="0" result="BackgroundImageFix"/>
<feColorMatrix in="SourceAlpha" type="matrix" values="0 0 0 0 0 0 0 0 0 0 0 0 0 0 0 0 0 0 127 0"/>
<feOffset dy="4"/>
<feGaussianBlur stdDeviation="2"/>
<feColorMatrix type="matrix" values="0 0 0 0 0 0 0 0 0 0 0 0 0 0 0 0 0 0 0.25 0"/>
<feBlend mode="normal" in2="BackgroundImageFix" result="effect1_dropShadow"/>
<feBlend mode="normal" in="SourceGraphic" in2="effect1_dropShadow" result="shape"/>
</filter>
</defs>
</svg>
