<svg width="65" height="65" viewBox="0 0 65 65" fill="none" xmlns="http://www.w3.org/2000/svg">
<path fill-rule="evenodd" clip-rule="evenodd" d="M31.748 3.79386C31.746 1.04674 28.8218 -0.333452 27.0907 1.59566L1.71953 29.8703C0.640807 31.0724 0.625536 33.035 1.68542 34.2538L27.1002 63.4792C28.8188 65.4556 31.7937 64.0699 31.7916 61.2939L31.748 3.79386ZM25.9594 15.4796C25.9594 14.5536 24.9665 14.095 24.3945 14.7568L9.7397 31.7119C9.39479 32.1109 9.39223 32.748 9.73391 33.1506L24.3887 50.4173C24.9581 51.0883 25.9594 50.6319 25.9594 49.7013V15.4796Z" fill="#8458FF"/>
<path fill-rule="evenodd" clip-rule="evenodd" d="M38.8111 63.7175C37.0948 65.6615 34.1594 64.3012 34.1383 61.552L33.6947 3.76475C33.6734 0.989584 36.635 -0.417012 38.3675 1.5454L64.0986 30.6903C65.1676 31.9012 65.1676 33.8643 64.0986 35.0751L38.8111 63.7175ZM52.8041 34.643C54.1069 34.643 54.7593 36.2182 53.838 37.1393L41.4709 49.5045C40.5496 50.4256 38.9747 49.7732 38.9747 48.4705L38.9747 36.1053C38.9747 35.2977 39.6294 34.643 40.437 34.643L52.8041 34.643ZM53.838 26.7226C54.7593 27.6437 54.1069 29.2189 52.8041 29.2189L40.437 29.219C39.6294 29.219 38.9747 28.5643 38.9747 27.7567L38.9747 15.3915C38.9747 14.0888 40.5496 13.4364 41.4709 14.3574L53.838 26.7226Z" fill="#8458FF"/>
</svg>
