<svg width="24" height="25" viewBox="0 0 24 25" fill="none" xmlns="http://www.w3.org/2000/svg">
<path d="M12.0116 2.69196C6.7931 2.69196 2.55859 6.59046 2.55859 11.4032C2.55859 14.419 3.77734 16.7042 5.71459 18.1765H5.71084L5.94559 21.2155V21.223C5.94559 21.2387 5.94559 21.25 5.94934 21.2657V21.2732C5.96096 21.3445 5.99764 21.4092 6.05278 21.4559C6.10792 21.5025 6.17789 21.5279 6.25009 21.5275C6.30109 21.5275 6.34759 21.5117 6.39485 21.4922L6.40234 21.4847L9.3011 19.813C10.1523 20.008 11.0666 20.11 12.0123 20.11C17.2308 20.11 21.4616 16.2115 21.4616 11.3987C21.4616 6.59046 17.2308 2.69196 12.0086 2.69196H12.0116ZM10.3901 0.812461C10.9229 0.746982 11.4591 0.713173 11.9958 0.711211C12.3746 0.711211 12.7458 0.730711 13.1133 0.762211L13.1718 0.148711C12.2171 0.0595842 11.2553 0.0779492 10.3046 0.203461L10.3908 0.816961L10.3901 0.812461ZM14.1873 0.906211C15.1016 1.07421 15.9723 1.34346 16.7966 1.70346L17.0508 1.13721C16.1684 0.752485 15.2442 0.471844 14.2968 0.300961L14.1873 0.906211ZM23.3553 11.4647C23.3402 12.363 23.2034 13.2551 22.9488 14.1167L23.5383 14.2922C23.8076 13.39 23.9561 12.4405 23.9718 11.4602L23.3553 11.4647ZM6.74584 1.90671C7.57163 1.51079 8.43899 1.20817 9.33184 1.00446L9.19534 0.402961C8.56609 0.543961 7.94509 0.731461 7.34359 0.972961C7.04659 1.08621 6.75784 1.21521 6.47659 1.35171L6.74584 1.90671ZM20.3943 3.30846C19.688 2.65908 18.9064 2.09658 18.0663 1.63296L17.7536 2.17596C18.5579 2.61472 19.3056 3.14992 19.9803 3.76971L20.3943 3.30846ZM15.1518 22.1447C16.084 21.9083 16.9848 21.5621 17.8353 21.1135L17.5226 20.5825C16.722 21.0017 15.875 21.3254 14.9988 21.547L15.1518 22.1447ZM3.67534 4.09821C4.31568 3.45518 5.03195 2.89253 5.80834 2.42271L5.47984 1.89546C4.78118 2.31644 4.12905 2.81019 3.53434 3.36846C3.43309 3.46221 3.33484 3.55971 3.23359 3.65721L3.67534 4.09821ZM23.1558 15.379L22.5896 15.1442C22.2386 15.9758 21.7831 16.7593 21.2343 17.476L21.7301 17.8435C22.3087 17.0869 22.7867 16.2585 23.1521 15.379H23.1558ZM20.7258 4.52721C21.3296 5.20161 21.8455 5.94983 22.2611 6.75396L22.8161 6.48021C22.3772 5.62438 21.8297 4.8288 21.1871 4.11321L20.7221 4.52721H20.7258ZM23.2811 7.53171L22.7111 7.77396C23.0238 8.60196 23.2346 9.47721 23.3163 10.3832L23.9298 10.3247C23.8435 9.36824 23.6252 8.42833 23.2811 7.53171ZM6.38659 22.942L5.41759 23.368L5.08534 22.3442L4.49959 22.5317L4.93684 23.8795C4.96834 23.9612 5.02684 24.0317 5.10484 24.067C5.14384 24.0865 5.18659 24.094 5.23009 24.094C5.27359 24.094 5.31634 24.0865 5.35534 24.067L6.63634 23.5045L6.38659 22.942ZM10.2108 21.7502C10.1328 21.7345 10.0503 21.7232 9.97234 21.7075L9.50735 21.6295C9.44905 21.6212 9.3896 21.6292 9.3356 21.6527L7.38259 22.504L7.65634 23.059L9.49984 22.258L9.87109 22.3165C9.93784 22.3322 10.0121 22.3397 10.0781 22.3555L10.2108 21.7502ZM13.9368 21.7697C13.3038 21.8755 12.6558 21.9257 11.9951 21.9257C11.7213 21.9257 11.4678 21.91 11.2218 21.8867L11.2023 22.504C11.4658 22.5293 11.7304 22.5423 11.9951 22.543C12.6903 22.543 13.3781 22.4845 14.0418 22.375L13.9368 21.7697ZM1.51534 7.21146C1.88805 6.38432 2.36737 5.6095 2.94109 4.90671L2.47234 4.50021C1.86466 5.24003 1.35774 6.05715 0.964844 6.93021L0.952844 6.94971L1.51534 7.21146ZM20.5308 18.3047C19.9108 18.9593 19.2161 19.5388 18.4608 20.0312L18.8006 20.5472C19.6009 20.0267 20.3366 19.4128 20.9921 18.7187L20.5308 18.3047ZM0.968594 14.6447C0.781094 13.8475 0.675344 12.9692 0.648344 11.9725H0.0310937C0.0625938 13.0427 0.175844 13.9802 0.374594 14.8165L0.968594 14.6447ZM0.538844 8.01996C0.241653 8.92994 0.0695766 9.87611 0.0273438 10.8325L0.644594 10.864C0.683594 9.93846 0.851594 9.04746 1.12909 8.19996L0.538844 8.01996ZM4.73809 21.2777L4.14859 19.465C4.12883 19.4061 4.09203 19.3544 4.04284 19.3165C3.80809 19.1327 3.59359 18.949 3.38284 18.7577L2.96059 19.2032C3.15184 19.3907 3.36709 19.5662 3.58984 19.7462L4.14859 21.4607L4.73809 21.2777ZM2.63209 17.9882C2.04236 17.3054 1.583 16.5201 1.27684 15.6715L0.702344 15.9017C0.745094 16.0075 0.784094 16.1162 0.827594 16.222C1.15761 17.0138 1.61126 17.7482 2.17159 18.3977L2.63209 17.9882Z" fill="#40B3E0"/>
</svg>
