<svg width="24" height="25" viewBox="0 0 24 25" fill="none" xmlns="http://www.w3.org/2000/svg">
<g clip-path="url(#clip0)">
<path d="M12 0.09375C5.37253 0.09375 0 5.46628 0 12.0938C0 18.7212 5.37253 24.0938 12 24.0938C18.6275 24.0938 24 18.7212 24 12.0938C24 5.46628 18.6275 0.09375 12 0.09375Z" fill="#40B3E0"/>
<path d="M17.8389 6.99628L15.6955 17.8028C15.6955 17.8028 15.3957 18.5522 14.5714 18.1925L9.62533 14.4005L7.82683 13.5312L4.79927 12.512C4.79927 12.512 4.33464 12.3472 4.28964 11.9874C4.24464 11.6277 4.81427 11.4329 4.81427 11.4329L16.8495 6.71166C16.8495 6.71166 17.8388 6.27703 17.8388 6.99647" fill="white"/>
<path d="M9.24461 17.6815C9.24461 17.6815 9.10023 17.668 8.92023 17.0984C8.74052 16.5288 7.82617 13.5313 7.82617 13.5313L15.0954 8.91501C15.0954 8.91501 15.5151 8.6602 15.5001 8.91501C15.5001 8.91501 15.575 8.96001 15.3501 9.16982C15.1254 9.37973 9.63977 14.3107 9.63977 14.3107" fill="#D2E5F1"/>
<path d="M11.5226 15.8548L9.56634 17.6385C9.56634 17.6385 9.41334 17.7545 9.24609 17.6818L9.62072 14.3687" fill="#B5CFE4"/>
</g>
<defs>
<clipPath id="clip0">
<rect width="24" height="24" fill="white" transform="translate(0 0.09375)"/>
</clipPath>
</defs>
</svg>
