<svg width="600" height="400" viewBox="0 0 600 400" fill="none" xmlns="http://www.w3.org/2000/svg">
<path d="M101.343 134.796C95.9891 140.471 91.8355 146.327 89.2773 152.109" stroke="white" stroke-linecap="round" stroke-linejoin="round"/>
<path d="M342.55 131.832C334.124 125.141 323.951 119.946 314.795 119.946C299.149 119.946 298.894 127.381 283.648 127.381C260.144 127.381 242.702 92.0747 197.499 92.0747C176.461 92.0747 152.61 99.8249 132.404 111.21" stroke="white" stroke-linecap="round" stroke-linejoin="round"/>
<path d="M445.542 112.391C435.266 106.477 423.265 102.672 409.685 102.672C354.915 102.672 327.857 159.14 292.01 159.14C259.155 159.14 256.564 144.193 215.893 144.193C198.224 144.193 168.094 157.755 149.977 176.049" stroke="white" stroke-linecap="round" stroke-linejoin="round"/>
<path d="M299.315 232.935C299.089 231.966 299.005 230.974 299.066 229.985C299.234 226.842 300.64 224.344 302.208 224.412C302.467 224.439 302.716 224.518 302.938 224.641C303.159 224.765 303.348 224.93 303.49 225.126" stroke="white" stroke-linecap="round" stroke-linejoin="round"/>
<path d="M295.242 258.202C295.61 254.096 297.741 237.93 299.477 232.376" stroke="white" stroke-miterlimit="10" stroke-linecap="round"/>
<path d="M269.602 290.865V385.559H278.325L288.352 334.898C288.352 334.898 289.731 307.493 269.602 290.865Z" fill="white"/>
<path d="M298.336 288.999C298.579 291.73 301.613 341.419 301.613 341.419V386.662L292.663 387.522L286.908 339.417L269.602 290.865C272.219 289.572 291.392 287.138 298.336 288.999Z" fill="white"/>
<path d="M297.795 268.25C299.682 278.056 299.363 287.857 298.373 288.999C296.324 291.365 271.873 292.969 269.623 290.86C267.589 288.95 262.181 254.985 276.956 248.445" stroke="white" stroke-miterlimit="10" stroke-linecap="round"/>
<path d="M283.646 247.434C288.86 248.046 292.446 252.439 294.847 258.158" stroke="white" stroke-miterlimit="10" stroke-linecap="round"/>
<path d="M302.588 234.169C302.036 232.833 301.808 231.407 301.917 229.985C302.085 226.842 303.491 224.344 305.06 224.412C306.628 224.48 307.764 227.084 307.585 230.243C307.542 231.599 307.198 232.934 306.574 234.169" stroke="white" stroke-miterlimit="10" stroke-linecap="round"/>
<path d="M294.58 230.66L292.518 230.951L292.841 232.804L294.904 232.513L294.58 230.66Z" fill="white"/>
<path d="M283.646 243.839V247.362" stroke="white" stroke-linecap="round" stroke-linejoin="round"/>
<path d="M282.322 251.599C280.365 252.031 276.914 251.808 276.914 250.777V237.901" stroke="white" stroke-linecap="round" stroke-linejoin="round"/>
<path d="M289.46 229.154C290.153 230.756 290.501 232.461 290.488 234.179C290.488 239.524 287.335 243.848 283.457 243.848C282.234 243.828 281.057 243.424 280.131 242.706" stroke="white" stroke-miterlimit="10" stroke-linecap="round"/>
<path d="M277.72 237.813C277.507 237.868 277.287 237.896 277.065 237.896C276.705 237.897 276.35 237.823 276.026 237.68C275.703 237.537 275.421 237.329 275.202 237.072C274.983 236.815 274.832 236.516 274.763 236.198C274.693 235.88 274.706 235.553 274.801 235.24C274.895 234.928 275.069 234.639 275.307 234.397C275.546 234.155 275.844 233.965 276.178 233.843C276.512 233.721 276.872 233.67 277.232 233.694C277.591 233.717 277.939 233.815 278.25 233.98" stroke="white" stroke-linecap="round" stroke-linejoin="round"/>
<path d="M266.942 254.864C266.942 251.49 263.899 248.756 260.144 248.756C256.389 248.756 253.346 251.49 253.346 254.864V283.761C253.346 287.134 256.389 289.868 260.144 289.868C263.899 289.868 266.942 287.134 266.942 283.761V254.864Z" fill="white"/>
<path d="M286.854 267.624C285.459 275.078 278.742 280.743 270.694 280.743C261.619 280.743 254.264 273.586 254.264 264.762C254.264 255.938 261.619 248.775 270.694 248.775C273.166 248.799 275.597 249.338 277.797 250.349C279.997 251.361 281.905 252.819 283.371 254.606" stroke="white" stroke-miterlimit="10" stroke-linecap="round"/>
<path d="M290.225 257.823C292.896 257.949 297.039 258.27 299.056 258.921C299.273 257.692 300.495 240.083 302.577 234.184" stroke="white" stroke-linecap="round" stroke-linejoin="round"/>
<path d="M306.601 234.169C306.601 234.869 311.203 263.752 306.601 267.177C302.993 269.859 292.62 267.619 287.996 266.312" stroke="white" stroke-linecap="round" stroke-linejoin="round"/>
<path d="M273.274 256.701C274.8 251.123 288.613 255.763 289.862 257.036C291.36 258.562 288.683 267.163 286.617 267.561C283.247 268.217 271.295 263.936 273.274 256.701Z" stroke="white" stroke-miterlimit="10" stroke-linecap="round"/>
<path d="M152.246 312.575H186.995L120.067 65.7192L92.8086 166.263" stroke="white" stroke-miterlimit="10" stroke-linecap="round"/>
<path d="M115.325 256.531L67.7367 65.7192L0.808594 334.062H82.8692" stroke="white" stroke-miterlimit="10" stroke-linecap="round"/>
<path d="M68.0977 332.867V91.8174" stroke="#949494" stroke-width="2.39" stroke-linecap="round" stroke-linejoin="round"/>
<path d="M68.0977 171.307L82.6407 157.104" stroke="#949494" stroke-width="2.39" stroke-linecap="round" stroke-linejoin="round"/>
<path d="M68.0977 239.329L89.9527 217.988" stroke="#949494" stroke-width="2.39" stroke-linecap="round" stroke-linejoin="round"/>
<path d="M68.0977 310.292L78.7629 299.879" stroke="#949494" stroke-width="2.39" stroke-linecap="round" stroke-linejoin="round"/>
<path d="M68.0977 171.307L53.5547 157.104" stroke="#949494" stroke-width="2.39" stroke-linecap="round" stroke-linejoin="round"/>
<path d="M68.0977 239.329L46.248 217.988" stroke="#949494" stroke-width="2.39" stroke-linecap="round" stroke-linejoin="round"/>
<path d="M68.0988 310.292L34.1074 277.094" stroke="#949494" stroke-width="2.39" stroke-linecap="round" stroke-linejoin="round"/>
<path d="M115.644 256.531H115.638C95.4197 256.531 79.0293 271.257 79.0293 289.422V319.441C79.0293 337.607 95.4197 352.333 115.638 352.333H115.644C135.862 352.333 152.253 337.607 152.253 319.441V289.422C152.253 271.257 135.862 256.531 115.644 256.531Z" stroke="#949494" stroke-width="2.39" stroke-linecap="round" stroke-linejoin="round"/>
<path d="M115.637 377.328V286.419" stroke="#949494" stroke-width="2.39" stroke-linecap="round" stroke-linejoin="round"/>
<path d="M115.637 325.078C135.648 325.078 135.648 314.252 135.648 297.867" stroke="#949494" stroke-width="2.39" stroke-linecap="round" stroke-linejoin="round"/>
<path d="M115.638 308.518C101.766 308.518 101.766 301.001 101.766 289.646" stroke="#949494" stroke-width="2.39" stroke-linecap="round" stroke-linejoin="round"/>
<path d="M382.096 312.575H431.777" stroke="white" stroke-linecap="round" stroke-linejoin="round"/>
<path d="M474.314 312.576H599.246V224.087C599.212 213.622 594.57 203.594 586.333 196.194C578.097 188.794 566.936 184.623 555.287 184.592V184.592C552.92 184.593 550.556 184.765 548.219 185.107V83.2752C548.219 76.1057 545.049 69.2297 539.407 64.1596C533.765 59.0895 526.112 56.2405 518.132 56.2393V56.2393C510.151 56.2393 502.497 59.0877 496.854 64.1579C491.211 69.2281 488.04 76.1048 488.04 83.2752V105.073C483.513 103.687 478.762 102.979 473.979 102.979V102.979C462.33 103.01 451.168 107.181 442.931 114.582C434.694 121.983 430.053 132.012 430.02 142.478V215.063H410.874C402.917 215.085 395.292 217.935 389.665 222.99C384.038 228.046 380.866 234.896 380.842 242.046V304.888C380.842 307.492 381.265 310.081 382.097 312.576" stroke="white" stroke-linecap="round" stroke-linejoin="round"/>
<path d="M516.92 259.694C566.466 259.694 566.466 239.771 566.466 209.645" stroke="#949494" stroke-width="2.39" stroke-linecap="round" stroke-linejoin="round"/>
<path d="M516.967 286.239C489.709 286.239 489.709 275.277 489.709 258.703" stroke="#949494" stroke-width="2.39" stroke-linecap="round" stroke-linejoin="round"/>
<path d="M516.92 312.575V76.6616" stroke="#949494" stroke-width="2.39" stroke-linecap="round" stroke-linejoin="round"/>
<path d="M516.918 209.645L489.758 185.238" stroke="#949494" stroke-width="2.39" stroke-linecap="round" stroke-linejoin="round"/>
<path d="M516.92 159.286L533.356 144.524" stroke="#949494" stroke-width="2.39" stroke-linecap="round" stroke-linejoin="round"/>
<path d="M381.891 65.7189C383.342 60.3929 382.621 54.7759 379.858 49.8868C377.095 44.9976 372.473 41.1602 366.83 39.0706C361.187 36.9811 354.898 36.7778 349.103 38.4977C343.308 40.2176 338.391 43.7467 335.244 48.4448C332.161 47.1936 328.778 46.6564 325.405 46.8822C322.032 47.1081 318.775 48.0899 315.933 49.7378C313.09 51.3858 310.753 53.6474 309.134 56.316C307.516 58.9846 306.667 61.9751 306.666 65.0143C306.666 65.2524 306.666 65.5002 306.666 65.7189H381.891Z" stroke="white" stroke-linecap="round" stroke-linejoin="round"/>
<path d="M133.875 30.068C132.423 24.7421 133.144 19.125 135.908 14.2359C138.671 9.34672 143.293 5.50931 148.935 3.41977C154.578 1.33022 160.867 1.12695 166.663 2.84683C172.458 4.56672 177.375 8.09582 180.522 12.794C183.604 11.5387 186.988 10.9984 190.363 11.2225C193.738 11.4465 196.997 12.4279 199.84 14.0766C202.684 15.7253 205.021 17.9887 206.639 20.6594C208.257 23.3302 209.103 26.3229 209.099 29.3634C209.099 29.5967 209.099 29.8494 209.099 30.068H133.875Z" stroke="white" stroke-linecap="round" stroke-linejoin="round"/>
<path d="M524.479 374.028C520.623 362.978 500.342 354.548 475.907 354.548C448.714 354.548 426.691 364.98 426.691 377.871H515.031" stroke="white" stroke-linecap="round" stroke-linejoin="round"/>
<path d="M247.91 388.984C241.123 388.984 235.617 393.241 235.617 398.494H260.209C260.209 393.241 254.703 388.984 247.91 388.984Z" stroke="white" stroke-linecap="round" stroke-linejoin="round"/>
<path d="M426.676 338.212C419.883 338.212 414.383 344.529 414.383 352.332H438.953C438.953 344.534 433.463 338.212 426.676 338.212Z" stroke="white" stroke-linecap="round" stroke-linejoin="round"/>
<path d="M41.371 373.261C30.5543 373.261 21.8145 376.424 21.8145 380.321H60.9113C60.9113 376.424 52.1714 373.261 41.371 373.261Z" stroke="white" stroke-linecap="round" stroke-linejoin="round"/>
<path d="M533.355 373.261C522.539 373.261 513.799 376.424 513.799 380.321H552.906C552.906 376.424 544.156 373.261 533.355 373.261Z" stroke="white" stroke-linecap="round" stroke-linejoin="round"/>
<path d="M453.048 262.463H453.043C439.951 262.463 429.338 271.999 429.338 283.761V303.197C429.338 314.959 439.951 324.495 453.043 324.495H453.048C466.14 324.495 476.753 314.959 476.753 303.197V283.761C476.753 271.999 466.14 262.463 453.048 262.463Z" stroke="white" stroke-linecap="round" stroke-linejoin="round"/>
<path d="M453.047 340.685V281.817" stroke="#949494" stroke-width="2.39" stroke-linecap="round" stroke-linejoin="round"/>
<path d="M453.047 306.851C465.994 306.851 465.994 299.84 465.994 289.232" stroke="#949494" stroke-width="2.39" stroke-linecap="round" stroke-linejoin="round"/>
<path d="M453.048 296.127C444.064 296.127 444.064 291.268 444.064 283.902" stroke="#949494" stroke-width="2.39" stroke-linecap="round" stroke-linejoin="round"/>
<path d="M155.398 360.18H199.228" stroke="#949494" stroke-width="2.39" stroke-linecap="round" stroke-linejoin="round"/>
<path d="M337.494 334.062H366.558" stroke="#949494" stroke-width="2.39" stroke-linecap="round" stroke-linejoin="round"/>
<path d="M315.574 340.685H344.644" stroke="#949494" stroke-width="2.39" stroke-linecap="round" stroke-linejoin="round"/>
<path d="M39.2129 346.083H68.2827" stroke="#949494" stroke-width="2.39" stroke-linecap="round" stroke-linejoin="round"/>
<path d="M380.842 385.248H421.702" stroke="#949494" stroke-width="2.39" stroke-linecap="round" stroke-linejoin="round"/>
<path d="M274.695 232.687C273.57 231.871 273.44 225.884 276.28 223.839C279.119 221.793 287.421 220.194 291.023 217.41" stroke="white" stroke-miterlimit="10" stroke-linecap="round"/>
<path d="M288.602 222.901C289.429 222.265 292.03 218.62 292.469 217.639" stroke="white" stroke-miterlimit="10" stroke-linecap="round"/>
<path d="M291.062 224.237C291.969 223.067 292.606 221.745 292.934 220.35" stroke="white" stroke-miterlimit="10" stroke-linecap="round"/>
<path d="M307.587 230.233C307.551 230.887 307.457 231.537 307.305 232.177L311.697 231.851L310.518 225.442L307.078 226.414C307.505 227.648 307.677 228.943 307.587 230.233Z" fill="white"/>
<path d="M301.918 229.985C301.958 229.251 302.07 228.521 302.253 227.804L294.141 230.107L294.681 233.129L302.08 232.58C301.919 231.723 301.864 230.853 301.918 229.985Z" fill="white"/>
<path d="M270.375 385.559V396.569H287.849L275.372 389.592V385.194" stroke="white" stroke-linecap="round" stroke-linejoin="round"/>
<path d="M294.432 385.559V396.569H311.906L299.424 389.592V385.194" stroke="white" stroke-linecap="round" stroke-linejoin="round"/>
<path d="M286.477 232.687C286.477 233.265 286.769 235.078 288.148 236.006" stroke="white" stroke-miterlimit="10" stroke-linecap="round"/>
<path d="M284.566 237.604C284.729 237.881 284.974 238.112 285.274 238.272C285.573 238.431 285.916 238.513 286.265 238.508" stroke="white" stroke-miterlimit="10" stroke-linecap="round"/>
</svg>
