<svg width="1454" height="574" viewBox="0 0 1454 574" fill="none" xmlns="http://www.w3.org/2000/svg">
<path d="M1115.3 349.126C1116.96 353.046 1116.47 361.11 1108.09 360.998C1097.68 360.858 1097.95 332.83 1097.95 332.83C1097.95 332.83 1108.58 333.32 1115.3 349.126Z" fill="#3FB1B5"/>
<path d="M1018.42 339.648C1015.81 345.164 1019.31 349.602 1022.25 348.076C1027.39 345.402 1029.6 338.528 1029.6 338.528C1029.6 338.528 1020.75 334.72 1018.42 339.648Z" fill="#3FB1B5"/>
<path d="M1115.16 349.126C1109.58 337.968 1103.3 332.662 1093.23 332.662C1076.28 332.662 1065.4 350.806 1063.33 374.27C1063.08 371.358 1060.07 368.376 1059.84 365.352C1056.82 325.172 1078.84 309.324 1095.36 309.324C1108.88 309.31 1112.26 328.742 1115.16 349.126Z" fill="#F1F1F1" stroke="#3FB1B5" stroke-width="6" stroke-miterlimit="10"/>
<path d="M1059.86 374.83C1056.83 334.65 1079.88 318.802 1095.09 318.802C1103.54 318.802 1108.83 323.786 1112.9 335.126" stroke="#3FB1B5" stroke-width="6" stroke-miterlimit="10"/>
<path d="M996.422 292.37C991.9 296.85 983.724 315.218 993.846 318.858C1003.97 322.512 1015.83 286.546 1015.83 286.546C1015.83 286.546 1007.24 281.632 996.422 292.37Z" fill="#FFCF2D" stroke="#FFCF2D" stroke-width="6" stroke-miterlimit="10"/>
<path d="M1079.88 375.823L1076.26 395.409C1074.44 405.237 1065.88 412.377 1055.88 412.377C1045.88 412.377 1037.32 405.237 1035.5 395.409L1031.88 375.823C1031.88 374.843 1032.11 373.905 1032.5 373.065C1035.4 375.977 1044.82 378.105 1055.98 378.105C1066.98 378.105 1076.28 376.033 1079.33 373.205C1079.68 374.003 1079.88 374.899 1079.88 375.823Z" fill="#D0F0E4"/>
<path d="M1077.51 371.176C1077.51 373.948 1067.86 376.188 1055.96 376.188C1044.06 376.188 1034.42 373.948 1034.42 371.176C1034.42 370.952 1034.47 370.742 1034.6 370.532C1035.97 368.068 1045.02 366.177 1055.96 366.177C1067.25 366.177 1076.5 368.193 1077.43 370.756C1077.48 370.896 1077.51 371.036 1077.51 371.176Z" fill="#66B0F0"/>
<path d="M1063.69 341.958C1063.69 353.55 1062.1 364.498 1059.25 374.13H1051.08C1051.05 325.452 1033.3 286.014 1011.42 286.014C1005.73 286.014 1000.33 288.674 995.442 293.462C1009.83 276.62 1015.81 272 1024.03 272C1043.66 272 1063.69 303.318 1063.69 341.958Z" fill="#F1F1F1" stroke="#FFCF2D" stroke-width="6" stroke-miterlimit="10"/>
<path d="M1004.6 283.2C1009.27 279.798 1012.28 278.216 1017.65 278.216C1039.54 278.216 1061.7 314.756 1055.87 374.116" stroke="#FFCF2D" stroke-width="6" stroke-miterlimit="10"/>
<path d="M1055.92 374.116C1055.92 374.116 1057.13 328.406 1032.22 328.252C1025.63 328.21 1019.45 338.668 1019.45 338.668C1019.45 338.668 1048.61 331.052 1050.06 374.116H1055.92Z" fill="#F1F1F1" stroke="#3FB1B5" stroke-width="6" stroke-miterlimit="10"/>
<path d="M1052.87 374.256C1053.22 361.376 1049.97 330.296 1024.8 331.962" stroke="#3FB1B5" stroke-width="6" stroke-miterlimit="10"/>
<path d="M1019.34 295.31C1020.62 295.31 1021.65 294.276 1021.65 293C1021.65 291.724 1020.62 290.69 1019.34 290.69C1018.06 290.69 1017.03 291.724 1017.03 293C1017.03 294.276 1018.06 295.31 1019.34 295.31Z" fill="#F1F1F1" stroke="#FFCF2D" stroke-width="6" stroke-miterlimit="10"/>
<path d="M1073.79 361.375C1075.65 361.375 1077.16 359.865 1077.16 358.001C1077.16 356.138 1075.65 354.627 1073.79 354.627C1071.92 354.627 1070.41 356.138 1070.41 358.001C1070.41 359.865 1071.92 361.375 1073.79 361.375Z" fill="#F1F1F1" stroke="#FFCF2D" stroke-width="6" stroke-miterlimit="10"/>
<path d="M1068.19 296.29C1071.7 296.29 1074.56 293.438 1074.56 289.92C1074.56 286.402 1071.7 283.55 1068.19 283.55C1064.67 283.55 1061.82 286.402 1061.82 289.92C1061.82 293.438 1064.67 296.29 1068.19 296.29Z" fill="#D0F0E4"/>
<path d="M1084.92 434.568L1079.27 406.47C1078.8 404.076 1075.61 403.516 1074.35 405.616C1066.56 418.566 1045.42 418.65 1037.51 405.742L1037.37 405.504C1036.1 403.432 1032.93 403.992 1032.46 406.372L1026.8 434.554" stroke="#66B0F0" stroke-width="6" stroke-miterlimit="10"/>
<path d="M1055.87 415.388V434.694" stroke="#66B0F0" stroke-width="6" stroke-miterlimit="10"/>
<path d="M1013.99 434.568H1201.65" stroke="#66B0F0" stroke-width="6" stroke-miterlimit="10"/>
<path d="M274.85 206.472C331.866 206.472 378.086 160.252 378.086 103.236C378.086 46.2203 331.866 0 274.85 0C217.835 0 171.614 46.2203 171.614 103.236C171.614 160.252 217.835 206.472 274.85 206.472Z" fill="#3A3A3A"/>
<path d="M240.271 206.486C197.109 192.038 166.001 151.27 166.001 103.236" stroke="#FFE48A" stroke-width="7" stroke-miterlimit="10"/>
<path d="M274.851 169.918C311.678 169.918 341.533 140.063 341.533 103.236C341.533 66.4083 311.678 36.5537 274.851 36.5537C238.023 36.5537 208.169 66.4083 208.169 103.236C208.169 140.063 238.023 169.918 274.851 169.918Z" stroke="#ABABAB" stroke-width="10" stroke-miterlimit="10" stroke-linecap="round" stroke-dasharray="30.03 30.03"/>
<path d="M274.852 36.5679V47.6699" stroke="#ABABAB" stroke-width="15" stroke-miterlimit="10" stroke-linecap="round"/>
<path d="M274.852 158.802V169.918" stroke="#ABABAB" stroke-width="15" stroke-miterlimit="10" stroke-linecap="round"/>
<path d="M227.699 56.084L235.553 63.952" stroke="#ABABAB" stroke-width="15" stroke-miterlimit="10" stroke-linecap="round"/>
<path d="M314.135 142.534L321.989 150.388" stroke="#ABABAB" stroke-width="15" stroke-miterlimit="10" stroke-linecap="round"/>
<path d="M208.169 103.236H219.285" stroke="#ABABAB" stroke-width="15" stroke-miterlimit="10" stroke-linecap="round"/>
<path d="M330.416 103.236H341.518" stroke="#ABABAB" stroke-width="15" stroke-miterlimit="10" stroke-linecap="round"/>
<path d="M227.699 150.388L235.553 142.534" stroke="#ABABAB" stroke-width="15" stroke-miterlimit="10" stroke-linecap="round"/>
<path d="M314.135 63.952L321.989 56.084" stroke="#ABABAB" stroke-width="15" stroke-miterlimit="10" stroke-linecap="round"/>
<path d="M274.851 174.118C265.289 174.118 256.007 172.242 247.257 168.546C238.815 164.976 231.241 159.866 224.731 153.356C218.221 146.846 213.111 139.272 209.541 130.83C205.845 122.094 203.969 112.812 203.969 103.236C203.969 83.5941 211.585 65.5621 225.291 53.1161L230.933 59.3321C225.095 64.6381 220.797 70.4621 217.465 78.2741C214.119 86.1281 212.355 94.7521 212.355 103.222C212.355 111.664 214.007 119.84 217.269 127.54C220.419 134.974 224.927 141.666 230.667 147.406C236.407 153.146 243.085 157.654 250.533 160.79C258.233 164.052 266.409 165.704 274.851 165.704C283.293 165.704 291.469 164.052 299.169 160.79C306.603 157.64 313.295 153.132 319.035 147.406C324.775 141.666 329.283 134.988 332.433 127.54C335.695 119.84 337.347 111.664 337.347 103.222C337.347 94.8221 335.639 86.6601 332.265 78.9461C329.017 71.5261 324.369 64.8341 318.461 59.0801C312.567 53.3401 305.735 48.8181 298.147 45.6541C290.321 42.3921 283.321 41.0201 274.879 41.0201V32.6201C284.441 32.6201 292.533 34.2161 301.381 37.8981C309.949 41.4681 317.663 46.5641 324.327 53.0601C331.019 59.5841 336.283 67.1581 339.965 75.5721C343.801 84.3501 345.761 93.6461 345.761 103.208C345.761 112.77 343.885 122.052 340.189 130.802C336.619 139.244 331.509 146.818 324.999 153.328C318.489 159.838 310.915 164.948 302.473 168.518C293.695 172.242 284.413 174.118 274.851 174.118Z" fill="#3A3A3A" stroke="#ABABAB" stroke-width="15" stroke-miterlimit="10" stroke-linecap="round" stroke-linejoin="round"/>
<path d="M239.907 67.6338L283.909 112.77" stroke="#FF9E96" stroke-width="7" stroke-miterlimit="10" stroke-linecap="round"/>
<path d="M275.328 107.184C277.253 107.184 278.814 105.623 278.814 103.698C278.814 101.773 277.253 100.212 275.328 100.212C273.403 100.212 271.842 101.773 271.842 103.698C271.842 105.623 273.403 107.184 275.328 107.184Z" fill="#3A3A3A" stroke="#ABABAB" stroke-width="15" stroke-miterlimit="10" stroke-linecap="round"/>
<path d="M294.339 29.5259L294.969 25.0319C295.277 22.9599 297.363 21.6439 299.365 22.2599L303.761 23.5899C305.763 24.1919 306.771 26.4459 305.875 28.3499L303.747 32.6339" stroke="#ABABAB" stroke-width="15" stroke-miterlimit="10" stroke-linecap="round"/>
<path fill-rule="evenodd" clip-rule="evenodd" d="M208.001 335.232L284.19 296L308.001 350.067L231.812 389.266L208.001 335.232Z" fill="#3C3C3C"/>
<path d="M234.349 377.335L241.928 353.353L256.051 356.196L261.595 326.614L275.241 329.069L279.21 308.205" stroke="#FF8364" stroke-width="3.11" stroke-linecap="round" stroke-linejoin="round"/>
<path d="M1202 197.116C1202 195.125 1202.54 193.177 1203.57 191.52C1204.59 189.864 1206.04 188.572 1207.74 187.808C1209.44 187.044 1211.31 186.843 1213.12 187.231C1214.93 187.618 1216.59 188.576 1217.89 189.983C1219.19 191.391 1220.08 193.184 1220.44 195.137C1220.8 197.09 1220.62 199.115 1219.91 200.955C1219.21 202.795 1218.02 204.368 1216.48 205.475C1214.95 206.581 1213.15 207.172 1211.31 207.172C1210.09 207.173 1208.88 206.914 1207.75 206.41C1206.62 205.905 1205.59 205.164 1204.73 204.23C1203.86 203.297 1203.18 202.188 1202.71 200.967C1202.24 199.746 1202 198.438 1202 197.116Z" stroke="#FF8364" stroke-width="3.11" stroke-linecap="round" stroke-linejoin="round"/>
<path d="M1265.49 137.3C1265.49 133.879 1266.43 130.534 1268.19 127.689C1269.95 124.844 1272.44 122.626 1275.37 121.317C1278.29 120.007 1281.51 119.665 1284.61 120.332C1287.72 121 1290.57 122.648 1292.8 125.067C1295.04 127.487 1296.57 130.569 1297.18 133.925C1297.8 137.281 1297.48 140.76 1296.27 143.921C1295.06 147.082 1293.01 149.784 1290.38 151.685C1287.75 153.586 1284.66 154.601 1281.49 154.601C1277.25 154.601 1273.18 152.778 1270.18 149.534C1267.18 146.289 1265.49 141.889 1265.49 137.3Z" stroke="#6BD5E1" stroke-width="3.11" stroke-linecap="round" stroke-linejoin="round"/>
<path fill-rule="evenodd" clip-rule="evenodd" d="M507.811 468.379L490.001 476.088L492.731 455.544L495.461 435L510.531 447.813L525.611 460.626L507.811 468.379Z" fill="#FFD98E"/>
<path fill-rule="evenodd" clip-rule="evenodd" d="M378.001 555.183C377.999 551.519 379.002 547.937 380.882 544.889C382.762 541.84 385.436 539.463 388.566 538.058C391.695 536.652 395.14 536.281 398.464 536.991C401.788 537.702 404.843 539.462 407.243 542.049C409.643 544.636 411.279 547.934 411.946 551.527C412.613 555.119 412.28 558.845 410.989 562.232C409.698 565.62 407.507 568.518 404.694 570.561C401.88 572.603 398.57 573.697 395.181 573.706C392.927 573.713 390.694 573.239 388.61 572.311C386.526 571.384 384.632 570.02 383.036 568.3C381.44 566.579 380.174 564.535 379.31 562.284C378.446 560.033 378.001 557.62 378.001 555.183Z" fill="#6BD5E1"/>
<path d="M1428 235.985C1428 233.617 1428.7 231.301 1430.02 229.33C1431.33 227.36 1433.21 225.823 1435.4 224.915C1437.59 224.007 1440.01 223.768 1442.33 224.228C1444.66 224.689 1446.8 225.828 1448.48 227.502C1450.16 229.176 1451.31 231.309 1451.77 233.632C1452.23 235.955 1452 238.362 1451.09 240.551C1450.18 242.739 1448.64 244.61 1446.67 245.926C1444.7 247.242 1442.37 247.944 1440 247.944C1438.43 247.946 1436.87 247.638 1435.41 247.038C1433.95 246.437 1432.63 245.557 1431.52 244.446C1430.4 243.335 1429.52 242.016 1428.91 240.565C1428.31 239.113 1428 237.557 1428 235.985Z" stroke="#FF8364" stroke-width="3.11" stroke-linecap="round" stroke-linejoin="round"/>
<circle cx="16.3637" cy="431.364" r="12" transform="rotate(150.367 16.3637 431.364)" fill="#E57281"/>
</svg>
