<svg width="1546" height="540" viewBox="0 0 1546 540" fill="none" xmlns="http://www.w3.org/2000/svg">
<path fill-rule="evenodd" clip-rule="evenodd" d="M1365.81 34.9285L1348 42.5051L1350.73 22.315L1353.46 2.125L1368.53 14.7172L1383.61 27.3094L1365.81 34.9285Z" fill="#4664FF"/>
<path fill-rule="evenodd" clip-rule="evenodd" d="M234 38.5561L310.189 0L334 53.135L257.811 91.6581L234 38.5561Z" fill="#2D2D2D"/>
<path d="M260.348 79.933L267.927 56.3643L282.05 59.1588L287.594 30.0868L301.24 32.499L305.209 11.9951" stroke="#F2F2F2" stroke-width="3.11" stroke-linecap="round" stroke-linejoin="round"/>
<path fill-rule="evenodd" clip-rule="evenodd" d="M1236 120.237C1236 116.636 1237 113.115 1238.88 110.12C1240.76 107.124 1243.44 104.788 1246.56 103.406C1249.69 102.025 1253.14 101.66 1256.46 102.358C1259.79 103.056 1262.84 104.786 1265.24 107.329C1267.64 109.871 1269.28 113.112 1269.95 116.643C1270.61 120.174 1270.28 123.835 1268.99 127.164C1267.7 130.494 1265.51 133.342 1262.69 135.349C1259.88 137.356 1256.57 138.431 1253.18 138.44C1250.93 138.447 1248.69 137.981 1246.61 137.07C1244.53 136.158 1242.63 134.818 1241.03 133.127C1239.44 131.436 1238.17 129.427 1237.31 127.215C1236.44 125.003 1236 122.632 1236 120.237Z" fill="#FFCF2D"/>
<g filter="url(#filter0_d)">
<rect x="417" y="314" width="63" height="59" rx="15" fill="#F1921B"/>
</g>
<path d="M441.292 352.968L443.375 350.365L436.668 345L443.375 339.635L441.292 337.032L432.958 343.698C432.763 343.854 432.605 344.053 432.497 344.278C432.389 344.503 432.333 344.75 432.333 345C432.333 345.25 432.389 345.497 432.497 345.722C432.605 345.947 432.763 346.146 432.958 346.302L441.292 352.968ZM456.708 337.032L454.625 339.635L461.332 345L454.625 350.365L456.708 352.968L465.042 346.302C465.237 346.146 465.395 345.947 465.503 345.722C465.611 345.497 465.667 345.25 465.667 345C465.667 344.75 465.611 344.503 465.503 344.278C465.395 344.053 465.237 343.854 465.042 343.698L456.708 337.032Z" fill="white"/>
<path d="M453.96 330.36L447.294 360.36L444.039 359.637L450.705 329.637L453.96 330.36Z" fill="white"/>
<g filter="url(#filter1_b)">
<rect x="936" y="332.161" width="200" height="152.05" rx="16" transform="rotate(-9.54392 936 332.161)" fill="url(#paint0_linear)" fill-opacity="0.8"/>
<rect x="936.576" y="332.571" width="199" height="151.05" rx="15.5" transform="rotate(-9.54392 936.576 332.571)" stroke="#393939"/>
</g>
<path d="M967.614 355.721C967.191 355.792 966.776 355.8 966.369 355.746C965.963 355.691 965.578 355.571 965.216 355.386C964.853 355.201 964.524 354.958 964.227 354.658C963.929 354.348 963.672 353.975 963.457 353.538L965.094 352.553C965.307 353.028 965.602 353.405 965.98 353.682C966.356 353.95 966.806 354.04 967.331 353.951C967.524 353.919 967.705 353.865 967.872 353.79C968.046 353.703 968.195 353.603 968.318 353.487C968.448 353.361 968.542 353.218 968.6 353.057C968.658 352.895 968.671 352.718 968.639 352.525C968.608 352.341 968.548 352.181 968.458 352.044C968.369 351.908 968.236 351.788 968.057 351.686C967.889 351.582 967.67 351.491 967.401 351.413C967.142 351.333 966.822 351.259 966.441 351.191L965.796 351.072C965.514 351.025 965.222 350.946 964.919 350.836C964.626 350.725 964.35 350.577 964.092 350.393C963.834 350.209 963.607 349.983 963.41 349.713C963.221 349.432 963.095 349.103 963.031 348.726C962.966 348.339 962.979 347.968 963.071 347.612C963.17 347.245 963.337 346.914 963.571 346.619C963.813 346.314 964.116 346.059 964.479 345.856C964.85 345.642 965.275 345.495 965.754 345.415C966.251 345.331 966.69 345.328 967.073 345.406C967.462 345.473 967.799 345.591 968.084 345.761C968.375 345.92 968.62 346.111 968.819 346.333C969.017 346.556 969.171 346.771 969.282 346.979L967.755 347.946C967.617 347.685 967.405 347.465 967.119 347.286C966.843 347.106 966.493 347.051 966.069 347.122C965.664 347.19 965.345 347.343 965.11 347.582C964.874 347.81 964.782 348.077 964.833 348.381C964.882 348.675 965.054 348.907 965.347 349.075C965.639 349.234 966.082 349.363 966.676 349.462L967.332 349.565C967.751 349.636 968.137 349.737 968.49 349.867C968.851 349.986 969.167 350.15 969.439 350.36C969.72 350.569 969.947 350.824 970.121 351.126C970.303 351.417 970.428 351.77 970.498 352.184C970.584 352.699 970.554 353.164 970.405 353.577C970.265 353.979 970.054 354.327 969.772 354.62C969.49 354.913 969.156 355.154 968.772 355.342C968.387 355.53 968.001 355.656 967.614 355.721ZM970.612 344.825L972.421 344.521L973.326 349.905L973.409 349.892L975.292 347.247L977.529 346.871L977.547 346.981L975.446 349.847L978.855 353.49L978.873 353.601L976.733 353.961L974.384 351.303L973.716 352.225L974.083 354.406L972.274 354.71L970.612 344.825ZM979.301 345.565C979.144 345.591 978.988 345.589 978.831 345.558C978.682 345.517 978.544 345.455 978.417 345.373C978.297 345.279 978.193 345.169 978.105 345.042C978.027 344.913 977.974 344.766 977.946 344.6C977.918 344.434 977.92 344.278 977.952 344.13C977.993 343.982 978.056 343.848 978.14 343.73C978.232 343.601 978.343 343.497 978.471 343.419C978.608 343.329 978.754 343.272 978.911 343.245C979.233 343.191 979.528 343.26 979.797 343.451C980.064 343.633 980.225 343.886 980.279 344.208C980.333 344.53 980.265 344.825 980.073 345.094C979.88 345.354 979.623 345.511 979.301 345.565ZM979.706 353.461L978.568 346.696L980.377 346.392L981.514 353.157L979.706 353.461ZM983.168 352.879L981.506 342.994L983.315 342.689L984.977 352.575L983.168 352.879ZM986.525 352.314L984.863 342.429L986.672 342.125L988.334 352.01L986.525 352.314ZM992.531 351.532C992.089 351.606 991.684 351.617 991.315 351.566C990.956 351.513 990.633 351.42 990.346 351.289C990.066 351.146 989.82 350.975 989.606 350.774C989.391 350.564 989.218 350.347 989.085 350.124L990.585 349.162C990.8 349.485 991.051 349.713 991.338 349.844C991.633 349.965 991.941 349.998 992.264 349.944C992.595 349.888 992.847 349.784 993.02 349.632C993.194 349.48 993.266 349.321 993.238 349.156C993.207 348.971 993.1 348.838 992.916 348.756C992.739 348.662 992.445 348.603 992.034 348.577L991.046 348.53C990.827 348.52 990.594 348.483 990.346 348.421C990.109 348.357 989.884 348.262 989.674 348.136C989.464 348.011 989.28 347.848 989.123 347.647C988.966 347.446 988.863 347.199 988.814 346.904C988.758 346.573 988.778 346.266 988.872 345.986C988.976 345.703 989.138 345.454 989.357 345.237C989.574 345.011 989.841 344.824 990.157 344.676C990.481 344.518 990.836 344.406 991.222 344.341C991.866 344.233 992.463 344.265 993.013 344.438C993.561 344.601 994.001 344.939 994.333 345.451L992.88 346.348C992.706 346.103 992.485 345.941 992.216 345.863C991.948 345.786 991.689 345.768 991.441 345.809C991.183 345.853 990.967 345.946 990.792 346.089C990.616 346.222 990.541 346.372 990.569 346.538C990.596 346.694 990.695 346.805 990.867 346.871C991.048 346.935 991.283 346.981 991.571 347.008L992.648 347.083C993.367 347.132 993.922 347.313 994.316 347.626C994.716 347.927 994.959 348.327 995.042 348.824C995.092 349.118 995.07 349.411 994.977 349.701C994.884 349.991 994.726 350.264 994.504 350.519C994.289 350.763 994.013 350.975 993.674 351.155C993.344 351.333 992.963 351.459 992.531 351.532Z" fill="#EFEFEF"/>
<path d="M994.988 459.69L994.281 455.483L995.656 455.252C996.113 455.175 996.471 455.212 996.732 455.362C996.995 455.512 997.158 455.772 997.22 456.142C997.253 456.338 997.226 456.522 997.14 456.693C997.054 456.862 996.921 457.004 996.743 457.119C996.981 457.144 997.18 457.236 997.341 457.393C997.504 457.548 997.606 457.748 997.647 457.995C997.711 458.372 997.638 458.69 997.43 458.946C997.222 459.203 996.894 459.369 996.447 459.444L994.988 459.69ZM995.212 457.629L995.467 459.143L996.383 458.989C996.641 458.945 996.833 458.845 996.959 458.687C997.086 458.527 997.13 458.329 997.091 458.094C997.006 457.588 996.688 457.381 996.137 457.473L995.212 457.629ZM995.137 457.184L995.975 457.043C996.218 457.002 996.401 456.909 996.525 456.763C996.651 456.618 996.697 456.441 996.662 456.232C996.623 456.001 996.527 455.845 996.375 455.764C996.222 455.681 996.008 455.662 995.733 455.708L994.912 455.846L995.137 457.184ZM999.898 458.924C999.474 458.995 999.106 458.914 998.794 458.681C998.481 458.447 998.285 458.097 998.207 457.63L998.19 457.532C998.138 457.222 998.151 456.936 998.227 456.673C998.306 456.409 998.439 456.19 998.628 456.018C998.819 455.843 999.038 455.735 999.286 455.693C999.693 455.625 1000.03 455.706 1000.3 455.935C1000.57 456.165 1000.75 456.53 1000.83 457.028L1000.87 457.251L998.753 457.607C998.812 457.914 998.944 458.148 999.147 458.31C999.352 458.47 999.588 458.527 999.854 458.483C1000.04 458.451 1000.2 458.385 1000.31 458.286C1000.43 458.187 1000.53 458.066 1000.61 457.922L1000.98 458.122C1000.78 458.568 1000.42 458.836 999.898 458.924ZM999.36 456.132C999.145 456.169 998.977 456.278 998.857 456.461C998.737 456.641 998.683 456.876 998.696 457.165L1000.26 456.902L1000.26 456.861C1000.19 456.592 1000.09 456.395 999.93 456.268C999.774 456.14 999.584 456.095 999.36 456.132ZM1001.99 458.512L1001.54 455.799L1001.04 455.882L1000.97 455.469L1001.47 455.386L1001.41 455.065C1001.36 454.73 1001.4 454.456 1001.55 454.243C1001.7 454.03 1001.94 453.896 1002.26 453.841C1002.39 453.82 1002.51 453.816 1002.64 453.828L1002.68 454.267C1002.59 454.264 1002.49 454.272 1002.39 454.289C1002.22 454.318 1002.09 454.392 1002.01 454.51C1001.94 454.626 1001.91 454.778 1001.95 454.967L1002 455.296L1002.67 455.184L1002.74 455.597L1002.07 455.709L1002.53 458.422L1001.99 458.512ZM1003.38 456.642C1003.32 456.336 1003.34 456.051 1003.42 455.786C1003.5 455.521 1003.63 455.304 1003.82 455.135C1004.02 454.966 1004.25 454.858 1004.53 454.812C1004.95 454.74 1005.32 454.83 1005.63 455.081C1005.95 455.331 1006.14 455.701 1006.23 456.19L1006.23 456.228C1006.28 456.532 1006.27 456.815 1006.19 457.078C1006.12 457.338 1005.98 457.554 1005.79 457.725C1005.6 457.896 1005.36 458.005 1005.08 458.053C1004.65 458.124 1004.29 458.034 1003.97 457.784C1003.66 457.533 1003.46 457.165 1003.38 456.68L1003.38 456.642ZM1003.92 456.616C1003.98 456.962 1004.11 457.227 1004.3 457.41C1004.5 457.593 1004.74 457.662 1005 457.616C1005.28 457.571 1005.47 457.429 1005.6 457.19C1005.72 456.949 1005.75 456.637 1005.69 456.254C1005.63 455.911 1005.5 455.647 1005.3 455.463C1005.1 455.276 1004.87 455.206 1004.6 455.251C1004.34 455.296 1004.14 455.436 1004.02 455.673C1003.89 455.911 1003.86 456.225 1003.92 456.616ZM1008.23 454.743C1008.14 454.743 1008.05 454.751 1007.96 454.767C1007.61 454.826 1007.4 455.015 1007.32 455.334L1007.69 457.553L1007.16 457.643L1006.63 454.517L1007.15 454.43L1007.22 454.789C1007.35 454.481 1007.58 454.299 1007.9 454.245C1008 454.228 1008.08 454.228 1008.14 454.246L1008.23 454.743ZM1010.41 457.155C1009.99 457.227 1009.62 457.146 1009.31 456.913C1009 456.679 1008.8 456.328 1008.72 455.862L1008.71 455.764C1008.65 455.454 1008.67 455.168 1008.74 454.905C1008.82 454.641 1008.96 454.422 1009.14 454.25C1009.34 454.075 1009.55 453.967 1009.8 453.925C1010.21 453.857 1010.55 453.937 1010.82 454.167C1011.09 454.397 1011.27 454.761 1011.35 455.26L1011.39 455.483L1009.27 455.839C1009.33 456.146 1009.46 456.38 1009.66 456.542C1009.87 456.702 1010.1 456.759 1010.37 456.714C1010.56 456.683 1010.71 456.617 1010.83 456.518C1010.95 456.419 1011.05 456.298 1011.12 456.154L1011.49 456.353C1011.3 456.8 1010.94 457.067 1010.41 457.155ZM1009.88 454.364C1009.66 454.4 1009.49 454.51 1009.37 454.692C1009.25 454.873 1009.2 455.108 1009.21 455.397L1010.78 455.134L1010.77 455.093C1010.71 454.824 1010.6 454.626 1010.45 454.5C1010.29 454.372 1010.1 454.327 1009.88 454.364Z" fill="#656565"/>
<path d="M1058.65 444.661L1060.6 447.862L1061.4 444.199L1062.12 444.078L1062.82 448.284L1062.27 448.378L1061.99 446.74L1061.75 444.963L1060.94 448.601L1060.51 448.673L1058.56 445.507L1058.92 447.257L1059.19 448.895L1058.64 448.988L1057.93 444.782L1058.65 444.661ZM1064.3 448.036L1063.76 448.126L1063.24 445L1063.77 444.91L1064.3 448.036ZM1063.06 444.178C1063.04 444.091 1063.06 444.014 1063.1 443.945C1063.14 443.877 1063.22 443.834 1063.32 443.816C1063.42 443.799 1063.51 443.815 1063.57 443.866C1063.64 443.916 1063.67 443.985 1063.69 444.072C1063.7 444.158 1063.69 444.235 1063.64 444.302C1063.6 444.369 1063.53 444.411 1063.42 444.429C1063.32 444.446 1063.23 444.43 1063.17 444.382C1063.11 444.333 1063.07 444.265 1063.06 444.178ZM1064.76 446.325C1064.68 445.845 1064.73 445.441 1064.91 445.112C1065.08 444.781 1065.36 444.584 1065.73 444.523C1066.09 444.461 1066.4 444.537 1066.66 444.752L1066.38 443.122L1066.92 443.033L1067.66 447.47L1067.17 447.553L1067.09 447.222C1066.92 447.52 1066.65 447.701 1066.26 447.765C1065.9 447.826 1065.58 447.727 1065.3 447.469C1065.03 447.211 1064.85 446.843 1064.77 446.365L1064.76 446.325ZM1065.3 446.296C1065.36 446.65 1065.48 446.915 1065.66 447.091C1065.84 447.266 1066.06 447.333 1066.32 447.289C1066.66 447.232 1066.88 447.038 1066.99 446.708L1066.75 445.272C1066.54 445.004 1066.27 444.898 1065.93 444.954C1065.67 444.998 1065.49 445.133 1065.37 445.36C1065.26 445.587 1065.24 445.899 1065.3 446.296Z" fill="#656565"/>
<path d="M1118.49 437.796L1116.73 438.092L1116.52 439.257L1115.94 439.353L1116.84 434.876L1117.33 434.795L1119.64 438.731L1119.08 438.826L1118.49 437.796ZM1116.82 437.608L1118.25 437.367L1117.2 435.52L1116.82 437.608ZM1120.39 438.605L1119.93 435.892L1119.44 435.976L1119.37 435.562L1119.86 435.479L1119.81 435.159C1119.75 434.823 1119.8 434.549 1119.95 434.336C1120.1 434.123 1120.34 433.989 1120.66 433.934C1120.79 433.913 1120.91 433.909 1121.04 433.921L1121.08 434.36C1120.99 434.358 1120.89 434.365 1120.79 434.382C1120.62 434.411 1120.49 434.485 1120.41 434.603C1120.34 434.719 1120.31 434.871 1120.34 435.06L1120.4 435.389L1121.07 435.277L1121.14 435.69L1120.47 435.803L1120.92 438.515L1120.39 438.605ZM1122.26 434.299L1122.38 435.056L1122.97 434.958L1123.04 435.371L1122.45 435.469L1122.78 437.407C1122.8 437.533 1122.84 437.623 1122.91 437.677C1122.97 437.73 1123.06 437.746 1123.19 437.725C1123.25 437.715 1123.33 437.689 1123.43 437.648L1123.51 438.081C1123.37 438.143 1123.24 438.186 1123.11 438.208C1122.87 438.248 1122.68 438.206 1122.53 438.082C1122.38 437.958 1122.29 437.763 1122.25 437.497L1121.92 435.559L1121.35 435.654L1121.28 435.241L1121.85 435.146L1121.72 434.389L1122.26 434.299ZM1125.43 437.818C1125 437.889 1124.64 437.808 1124.32 437.576C1124.01 437.341 1123.81 436.991 1123.74 436.525L1123.72 436.426C1123.67 436.116 1123.68 435.83 1123.76 435.568C1123.83 435.303 1123.97 435.084 1124.16 434.912C1124.35 434.737 1124.57 434.629 1124.82 434.587C1125.22 434.519 1125.56 434.6 1125.83 434.83C1126.1 435.06 1126.28 435.424 1126.36 435.923L1126.4 436.145L1124.28 436.501C1124.34 436.808 1124.47 437.043 1124.68 437.204C1124.88 437.364 1125.12 437.421 1125.38 437.377C1125.57 437.345 1125.72 437.28 1125.84 437.181C1125.96 437.082 1126.06 436.96 1126.14 436.817L1126.5 437.016C1126.31 437.462 1125.95 437.73 1125.43 437.818ZM1124.89 435.027C1124.67 435.063 1124.51 435.172 1124.39 435.355C1124.27 435.535 1124.21 435.77 1124.23 436.059L1125.79 435.796L1125.78 435.756C1125.72 435.487 1125.61 435.289 1125.46 435.163C1125.3 435.034 1125.11 434.989 1124.89 435.027ZM1128.32 434.55C1128.24 434.55 1128.15 434.558 1128.06 434.574C1127.71 434.633 1127.49 434.822 1127.42 435.142L1127.79 437.361L1127.26 437.451L1126.73 434.325L1127.25 434.237L1127.32 434.597C1127.45 434.288 1127.67 434.107 1128 434.053C1128.1 434.035 1128.18 434.035 1128.24 434.053L1128.32 434.55Z" fill="#656565"/>
<path d="M993.612 446.904C993.717 447.53 993.689 448.013 993.526 448.353C993.363 448.693 993.055 448.902 992.6 448.978C992.151 449.053 991.794 448.961 991.529 448.701C991.263 448.438 991.076 448.012 990.969 447.422L990.849 446.709C990.745 446.09 990.775 445.613 990.938 445.277C991.101 444.94 991.411 444.734 991.868 444.657C992.32 444.581 992.678 444.67 992.941 444.925C993.203 445.178 993.388 445.606 993.496 446.21L993.612 446.904ZM992.955 446.263C992.879 445.81 992.76 445.491 992.598 445.306C992.436 445.12 992.217 445.05 991.942 445.096C991.668 445.142 991.486 445.279 991.396 445.506C991.305 445.733 991.294 446.061 991.362 446.489L991.506 447.344C991.582 447.798 991.704 448.124 991.872 448.319C992.041 448.513 992.259 448.587 992.527 448.542C992.791 448.497 992.969 448.362 993.062 448.137C993.157 447.911 993.17 447.578 993.102 447.138L992.955 446.263Z" fill="#656565"/>
<path d="M981.389 409.158L981.251 407.024L983.406 406.662L983.489 407.156L981.787 407.442L981.853 408.611C982.039 408.455 982.262 408.355 982.524 408.311C982.908 408.246 983.233 408.322 983.501 408.538C983.769 408.753 983.939 409.076 984.012 409.507C984.085 409.941 984.025 410.302 983.832 410.592C983.641 410.88 983.335 411.059 982.915 411.129C982.543 411.192 982.223 411.14 981.953 410.973C981.683 410.807 981.502 410.544 981.408 410.186L981.913 410.101C981.987 410.336 982.103 410.504 982.262 410.603C982.421 410.702 982.614 410.731 982.842 410.693C983.09 410.651 983.271 410.534 983.383 410.341C983.497 410.147 983.529 409.901 983.478 409.603C983.431 409.322 983.316 409.109 983.134 408.966C982.953 408.82 982.735 408.768 982.481 408.811C982.248 408.85 982.073 408.932 981.958 409.056L981.835 409.196L981.389 409.158ZM987.157 408.512C987.262 409.138 987.234 409.621 987.071 409.961C986.908 410.302 986.6 410.51 986.145 410.586C985.696 410.662 985.339 410.569 985.074 410.309C984.808 410.047 984.621 409.621 984.514 409.031L984.394 408.317C984.29 407.699 984.32 407.221 984.483 406.885C984.646 406.549 984.956 406.342 985.413 406.265C985.865 406.189 986.223 406.279 986.486 406.533C986.748 406.786 986.933 407.215 987.04 407.819L987.157 408.512ZM986.5 407.871C986.424 407.418 986.305 407.1 986.143 406.915C985.981 406.728 985.762 406.658 985.487 406.704C985.213 406.75 985.031 406.887 984.94 407.114C984.85 407.341 984.839 407.669 984.907 408.097L985.05 408.952C985.127 409.407 985.249 409.732 985.416 409.928C985.586 410.121 985.804 410.195 986.072 410.15C986.336 410.106 986.514 409.971 986.607 409.745C986.702 409.519 986.715 409.186 986.647 408.746L986.5 407.871Z" fill="#656565"/>
<path d="M973.6 373.904L973.063 373.994L972.464 370.432L971.453 371.009L971.371 370.524L972.806 369.691L972.889 369.677L973.6 373.904ZM977.502 371.403C977.607 372.029 977.579 372.512 977.416 372.852C977.253 373.193 976.945 373.401 976.49 373.477C976.041 373.553 975.684 373.46 975.419 373.2C975.153 372.938 974.966 372.512 974.859 371.922L974.739 371.208C974.635 370.59 974.665 370.112 974.828 369.776C974.991 369.44 975.301 369.233 975.758 369.156C976.21 369.08 976.568 369.17 976.831 369.424C977.093 369.677 977.278 370.106 977.385 370.71L977.502 371.403ZM976.845 370.762C976.769 370.309 976.65 369.991 976.488 369.806C976.326 369.619 976.107 369.549 975.832 369.595C975.558 369.641 975.376 369.778 975.285 370.005C975.195 370.232 975.184 370.56 975.252 370.988L975.395 371.843C975.472 372.298 975.594 372.623 975.761 372.819C975.931 373.012 976.149 373.086 976.417 373.041C976.681 372.997 976.859 372.862 976.952 372.636C977.047 372.41 977.06 372.077 976.992 371.637L976.845 370.762ZM980.825 370.844C980.93 371.47 980.901 371.954 980.738 372.294C980.576 372.634 980.267 372.842 979.813 372.919C979.364 372.994 979.007 372.902 978.741 372.641C978.475 372.379 978.289 371.953 978.182 371.363L978.062 370.649C977.958 370.031 977.987 369.554 978.151 369.217C978.314 368.881 978.624 368.674 979.08 368.598C979.533 368.522 979.89 368.611 980.153 368.866C980.416 369.119 980.6 369.547 980.708 370.151L980.825 370.844ZM980.167 370.203C980.091 369.751 979.972 369.432 979.81 369.247C979.648 369.061 979.429 368.99 979.154 369.037C978.881 369.083 978.698 369.219 978.608 369.446C978.517 369.674 978.506 370.001 978.574 370.43L978.718 371.285C978.794 371.739 978.916 372.064 979.084 372.26C979.253 372.453 979.472 372.528 979.739 372.483C980.003 372.438 980.182 372.303 980.274 372.078C980.369 371.852 980.382 371.519 980.314 371.079L980.167 370.203Z" fill="#656565"/>
<path d="M988.004 368.108L1000.79 444.167" stroke="#BFBFBF"/>
<path d="M1047.6 358.088L1060.39 434.147" stroke="#BFBFBF"/>
<path d="M1107.19 348.068L1119.98 424.128" stroke="#BFBFBF"/>
<path d="M1000.79 444.167L1119.98 424.128" stroke="#BFBFBF"/>
<path d="M994.337 405.775L1113.53 385.736" stroke="#BFBFBF"/>
<path d="M988.004 368.108L1107.19 348.068" stroke="#BFBFBF"/>
<path d="M998.6 431.129C998.6 431.129 1011.79 418.482 1026.69 415.977C1041.59 413.472 1039.28 399.709 1054.18 397.204C1069.07 394.7 1067.13 383.11 1082.02 380.605C1096.92 378.1 1109.39 361.107 1109.39 361.107" stroke="#A3B1FF" stroke-width="2"/>
<ellipse cx="998.599" cy="431.128" rx="2.8777" ry="2.93816" transform="rotate(-9.54392 998.599 431.128)" fill="#A3B1FF"/>
<ellipse cx="1026.69" cy="415.978" rx="2.8777" ry="2.93816" transform="rotate(-9.54392 1026.69 415.978)" fill="#A3B1FF"/>
<ellipse cx="1054.18" cy="397.204" rx="2.8777" ry="2.93816" transform="rotate(-9.54392 1054.18 397.204)" fill="#A3B1FF"/>
<ellipse cx="1082.02" cy="380.604" rx="2.8777" ry="2.93816" transform="rotate(-9.54392 1082.02 380.604)" fill="#A3B1FF"/>
<ellipse cx="1109.39" cy="361.107" rx="2.8777" ry="2.93816" transform="rotate(-9.54392 1109.39 361.107)" fill="#A3B1FF"/>
<defs>
<filter id="filter0_d" x="406" y="303" width="93" height="89" filterUnits="userSpaceOnUse" color-interpolation-filters="sRGB">
<feFlood flood-opacity="0" result="BackgroundImageFix"/>
<feColorMatrix in="SourceAlpha" type="matrix" values="0 0 0 0 0 0 0 0 0 0 0 0 0 0 0 0 0 0 127 0"/>
<feOffset dx="4" dy="4"/>
<feGaussianBlur stdDeviation="7.5"/>
<feColorMatrix type="matrix" values="0 0 0 0 0 0 0 0 0 0 0 0 0 0 0 0 0 0 0.15 0"/>
<feBlend mode="normal" in2="BackgroundImageFix" result="effect1_dropShadow"/>
<feBlend mode="normal" in="SourceGraphic" in2="effect1_dropShadow" result="shape"/>
</filter>
<filter id="filter1_b" x="921" y="284" width="252.442" height="213.106" filterUnits="userSpaceOnUse" color-interpolation-filters="sRGB">
<feFlood flood-opacity="0" result="BackgroundImageFix"/>
<feGaussianBlur in="BackgroundImage" stdDeviation="7.5"/>
<feComposite in2="SourceAlpha" operator="in" result="effect1_backgroundBlur"/>
<feBlend mode="normal" in="SourceGraphic" in2="effect1_backgroundBlur" result="shape"/>
</filter>
<linearGradient id="paint0_linear" x1="945.274" y1="338.736" x2="1135.37" y2="480.735" gradientUnits="userSpaceOnUse">
<stop stop-color="#A6CEE3" stop-opacity="0.39"/>
<stop offset="1" stop-color="#F0F0F0" stop-opacity="0"/>
</linearGradient>
</defs>
</svg>
