<svg width="219" height="351" viewBox="0 0 219 351" fill="none" xmlns="http://www.w3.org/2000/svg">
<g clip-path="url(#clip0)">
<path d="M-9.29785 161.818H100.261C100.642 161.818 101.007 161.969 101.276 162.238C101.545 162.507 101.697 162.872 101.697 163.253V171.697C101.697 172.077 101.545 172.442 101.276 172.711C101.007 172.981 100.642 173.132 100.261 173.132H43.2602V193.472" stroke="#9B9B9B" stroke-width="5" stroke-miterlimit="10"/>
<path d="M3.63107 9.88184L-1.82124 49.8197C-3.19096 59.8151 -1.64723 69.9935 2.62471 79.1332L10.5943 96.1181C15.8897 107.404 25.031 116.22 36.2244 120.837L60.2875 130.763L3.63107 9.88184Z" fill="#181818" stroke="#9B9B9B" stroke-width="5" stroke-miterlimit="10"/>
<path d="M21.7902 161.857H-10.89C-18.3158 161.857 -23.7597 154.568 -21.9488 147.042L-6.81126 95.8179C-5.40964 89.9815 -0.380619 85.8916 5.38285 85.8916" stroke="#9B9B9B" stroke-width="5" stroke-miterlimit="10"/>
<path d="M62.3646 133.017C62.054 133.015 61.7506 132.924 61.4903 132.754C61.23 132.585 61.0236 132.344 60.8957 132.061L3.20486 8.92036C2.67225 7.78505 3.46557 6.46191 4.67376 6.46191C4.98609 6.46286 5.29159 6.55343 5.55396 6.72288C5.81633 6.89233 6.02455 7.13353 6.15388 7.41782L63.8335 130.559C64.3661 131.694 63.5728 133.017 62.3646 133.017Z" fill="#181818" stroke="#9B9B9B" stroke-width="5" stroke-miterlimit="10"/>
<path d="M26.3537 161.136C28.6837 161.136 30.5725 159.248 30.5725 156.918C30.5725 154.588 28.6837 152.699 26.3537 152.699C24.0236 152.699 22.1348 154.588 22.1348 156.918C22.1348 159.248 24.0236 161.136 26.3537 161.136Z" stroke="#9B9B9B" stroke-width="5" stroke-miterlimit="10"/>
<path d="M22.1489 157.484C22.0732 154.91 23.7692 152.774 26.3538 152.699L26.7631 152.685C27.86 152.653 28.9565 152.761 30.026 153.007L64.1611 160.907" stroke="#9B9B9B" stroke-width="5" stroke-miterlimit="10"/>
<path d="M218.023 119.306L190.924 219.158C189.551 224.227 186.546 228.704 182.375 231.896C178.204 235.088 173.098 236.818 167.845 236.818H76.0557" stroke="#9B9B9B" stroke-width="5" stroke-miterlimit="10"/>
<path d="M83.4756 236.807L157.464 349.054" stroke="#9B9B9B" stroke-width="5" stroke-miterlimit="10" stroke-linecap="round"/>
<path d="M164.473 236.807L83.7559 350.176" stroke="#9B9B9B" stroke-width="5" stroke-miterlimit="10" stroke-linecap="round"/>
<path d="M84.6922 310.749C84.6922 310.749 80.8434 316.635 74.1604 315.811L69.6416 309.344C74.3031 308.342 78.8647 306.922 83.271 305.1C83.7307 307.25 84.2101 309.221 84.6922 310.749Z" fill="#FFCFC9"/>
<path d="M179.955 208.071C177.247 214.135 168.227 229.889 147.477 230.542C121.754 231.352 74.4299 228.925 74.4299 228.925C74.4299 228.925 85.2533 271.691 85.486 304.099C85.486 304.099 76.9557 308.428 64.2934 310.328C64.2934 310.328 18.8808 225.39 27.8989 204.623C34.6098 189.175 85.6177 183.167 108.674 181.228C118.256 186.784 150.137 204.195 179.955 208.071Z" fill="#52509D"/>
<path d="M84.693 310.749C84.693 310.749 89.3688 315.89 94.5296 319.971C97.7982 322.556 96.5143 327.54 93.7307 331.728C89.5446 338.009 84.899 343.971 79.8322 349.565C79.8322 349.565 72.5914 350.33 58.4995 349.753C58.4995 349.753 57.9725 344.752 62.9538 342.492C74.307 337.343 76.8635 323.711 74.1668 315.825C74.1612 315.811 79.8322 316.823 84.693 310.749Z" fill="#3F4D79"/>
<path d="M96.7522 321.432C98.1089 324.311 96.0906 328.639 94.0106 331.728C94.0106 331.728 86.2792 342.506 80.3924 349.831L58.2188 350.019" stroke="#9B9B9B" stroke-width="7" stroke-miterlimit="10" stroke-linecap="round"/>
<path d="M72.7254 338.725C72.7254 338.725 67.6095 335.378 71.3238 333.332" stroke="#9B9B9B" stroke-width="5" stroke-miterlimit="10" stroke-linecap="round"/>
<path d="M75.5286 335.641C75.5286 335.641 69.2914 332.294 73.0057 330.248" stroke="#9B9B9B" stroke-width="5" stroke-miterlimit="10" stroke-linecap="round"/>
<path d="M151.188 66.9166C151.188 66.9166 174.679 60.4439 176.341 41.222C176.624 37.9674 151.188 66.9166 151.188 66.9166Z" fill="#FFBA7D"/>
<path d="M151.471 29.3472C151.471 29.3472 161.61 50.5481 170.939 58.4617C170.939 58.4617 156.046 68.3656 143.543 68.3599C143.543 68.3599 135.358 53.9457 131.966 48.4317L151.471 29.3472Z" fill="#FFCFC9"/>
<path d="M139.633 61.5174C137.045 57.0126 133.802 51.4257 131.966 48.4318L146.806 33.9194L147.824 35.9462C148.906 45.6622 146.195 56.2641 139.633 61.5174Z" fill="#FFC0B7"/>
<path d="M148.217 33.5859C148.217 33.5859 148.172 41.7153 145.08 46.2145C141.189 51.8799 131.285 57.9882 123.747 56.8669C116.209 55.7456 109.636 17.5682 115.29 15.3087C120.944 13.0493 136.74 10.9749 141.45 17.941C146.159 24.907 148.217 33.5859 148.217 33.5859Z" fill="#FFCFC9"/>
<path d="M156.127 38.2982C156.127 38.2982 152.844 38.8252 148.073 36.6359C148.222 34.853 148.289 31.192 146.445 30.138C144.432 28.9886 143.282 32.232 142.926 33.4598C142.497 33.1271 142.062 32.7693 141.623 32.3862C133.774 25.5659 135.817 18.8885 135.817 18.8885C135.817 18.8885 124.139 25.7565 113.013 25.3024C103.779 24.9267 99.2575 12.0038 107.042 8.15209C107.042 8.15209 106.481 11.6926 113.277 9.99663C120.072 8.30066 118.751 1.40188 128.274 0.188072C140.008 -1.29484 142.433 6.47856 142.433 6.47856C142.433 6.47856 148.054 3.52113 153.84 8.90056C160.004 14.6332 152.04 30.6341 156.127 38.2982Z" fill="#9B9B9B"/>
<path d="M137.018 17.6436C137.018 17.6436 126.102 26.3505 114.238 27.8951C103.079 29.3472 98.1898 14.9357 105.773 9.71045" stroke="#9B9B9B" stroke-width="4" stroke-miterlimit="10"/>
<path d="M141.424 7.05866C141.424 7.05866 145.239 1.63158 152.463 4.81606" stroke="#9B9B9B" stroke-width="4" stroke-miterlimit="10"/>
<path d="M182.422 208.363C191.168 199.796 202.308 145.769 199.399 111.132C199.217 107.189 198.639 103.273 197.675 99.4454C197.179 97.1917 196.515 94.9784 195.687 92.8242C193.164 86.3767 187.395 79.6489 179.372 75.0544C171.195 69.1984 160.526 65.1477 146.387 67.5136C125.34 71.0345 120.454 92.0448 119.321 101.61L119.304 101.593L113.594 133.695L71.9268 135.268V148.897C71.9268 148.897 106.118 169.754 130.338 163.71L130.551 163.654C119.058 174.895 105.793 179.52 105.793 179.52C105.793 179.52 146.151 204.559 182.422 208.363Z" fill="#3F4D79"/>
<path d="M150.801 119.8C150.801 119.8 142.823 159.984 127.991 165.111" stroke="#181818" stroke-width="5" stroke-miterlimit="10" stroke-linecap="round"/>
<path d="M151.188 66.9164C157.689 66.0754 174.915 55.1231 176.328 40.7061C176.328 40.7061 202.227 66.9164 192.741 87.8595C192.741 87.8595 187.46 78.0481 176.039 72.0856C162.371 64.9569 151.188 66.9164 151.188 66.9164Z" fill="#3F4D79"/>
<path d="M195.031 88.9947C195.031 88.9947 187.182 78.561 176.039 72.0855C160.439 63.017 141.248 67.7685 141.248 67.7685" stroke="#181818" stroke-width="5" stroke-miterlimit="10" stroke-linecap="round"/>
<path d="M72.0617 144.054C72.0617 144.054 67.9213 150.599 63.5146 149.66C59.1079 148.721 55.0068 148.076 52.7726 149.226C50.0114 150.647 47.2698 153.784 45.4673 153.725C43.2852 153.668 41.1345 153.192 39.132 152.323C40.2662 150.012 41.5162 147.759 42.8771 145.573C41.3493 146.54 39.3226 148.525 38.2013 149.276C36.4072 150.481 35.1514 148.766 35.1514 148.766C35.1514 148.766 38.2518 144.362 39.6085 143.215C40.912 142.114 45.6159 138.697 47.6679 138.394C50.1319 137.808 62.2896 136.028 72.0897 135.358L72.0617 144.054Z" fill="#FFCFC9"/>
<path d="M41.4189 152.385C41.4189 152.385 46.9161 144.334 48.4439 143.767C51.135 142.772 54.6447 141.458 54.6447 141.458" stroke="#F7B3AF" stroke-width="4" stroke-miterlimit="10" stroke-linecap="round"/>
<path d="M44.0967 153.114C44.0967 153.114 49.064 146.386 50.589 145.825C53.2801 144.83 56.7926 143.513 56.7926 143.513" stroke="#F7B3AF" stroke-width="4" stroke-miterlimit="10" stroke-linecap="round"/>
</g>
<defs>
<clipPath id="clip0">
<rect width="241.701" height="351" fill="white" transform="translate(-23)"/>
</clipPath>
</defs>
</svg>
