<svg width="217" height="352" viewBox="0 0 217 352" fill="none" xmlns="http://www.w3.org/2000/svg">
<g clip-path="url(#clip0)">
<path d="M58.3649 242.219H18.9841C17.3458 242.218 15.7567 241.66 14.4779 240.636C13.199 239.612 12.3067 238.183 11.9476 236.585L3.36585 198.334C3.12958 197.28 3.13336 196.186 3.37692 195.133C3.62047 194.08 4.09757 193.096 4.77291 192.253C5.44825 191.409 6.30457 190.729 7.2785 190.261C8.25244 189.793 9.31909 189.55 10.3995 189.55" stroke="#9B9B9B" stroke-width="5" stroke-miterlimit="10" stroke-linecap="round"/>
<path d="M131.002 242.219H91.6208C89.9826 242.218 88.3934 241.66 87.1146 240.636C85.8358 239.612 84.9434 238.183 84.5843 236.585L76.0026 198.334C75.7663 197.28 75.7701 196.186 76.0136 195.133C76.2572 194.08 76.7343 193.096 77.4096 192.253C78.085 191.409 78.9413 190.729 79.9152 190.261C80.8892 189.793 81.9558 189.55 83.0362 189.55" stroke="#9B9B9B" stroke-width="5" stroke-miterlimit="10" stroke-linecap="round"/>
<path d="M87.8989 203.045H21.0677C18.6354 203.045 16.2746 202.222 14.3696 200.71C12.4647 199.197 11.1276 197.085 10.576 194.716L0.945397 153.355C0.631576 152.007 0.626295 150.606 0.929948 149.255C1.2336 147.905 1.83834 146.64 2.69903 145.556C3.55972 144.473 4.65413 143.597 5.90056 142.995C7.14699 142.393 8.51325 142.081 9.89736 142.081H76.7314C79.1633 142.081 81.5237 142.904 83.4282 144.417C85.3327 145.929 86.6692 148.042 87.2202 150.41L96.8508 191.78C97.1626 193.127 97.1664 194.527 96.8618 195.876C96.5573 197.226 95.9522 198.489 95.0918 199.571C94.2314 200.654 93.1378 201.529 91.8924 202.13C90.647 202.732 89.2819 203.045 87.8989 203.045Z" fill="#181818" stroke="#9B9B9B" stroke-width="5" stroke-miterlimit="10" stroke-linecap="round"/>
<path d="M133.02 232.678H25.8349C23.2003 232.678 21.0645 234.814 21.0645 237.448C21.0645 240.083 23.2003 242.219 25.8349 242.219H133.02C135.655 242.219 137.79 240.083 137.79 237.448C137.79 234.814 135.655 232.678 133.02 232.678Z" fill="#EAEEFF" stroke="#9B9B9B" stroke-width="5" stroke-miterlimit="10" stroke-linecap="round"/>
<path d="M13.0947 350.674L26.4021 251.501C26.6573 246.299 30.7575 242.218 35.7298 242.218H58.7267C63.6991 242.218 67.7993 246.299 68.0573 251.501L81.3646 350.674" stroke="#9B9B9B" stroke-width="5" stroke-miterlimit="10" stroke-linecap="round"/>
<path d="M97.6104 242.218H119.94C124.766 242.218 128.749 246.299 128.998 251.501L142.165 350.674" stroke="#9B9B9B" stroke-width="5" stroke-miterlimit="10" stroke-linecap="round"/>
<path d="M202.982 143.946C204.432 144.903 207.794 152.026 207.856 152.884C207.918 153.742 204.056 160.12 204.056 160.12C204.056 160.12 202.522 160.153 202.23 156.645C201.874 152.492 200.051 150.918 197.409 150.326C196.304 150.08 194.274 150.921 194.131 152.548C193.988 154.174 198.189 155.254 199.033 156.241C200.315 157.733 199.594 159.837 199.594 159.887C199.594 159.887 193.11 157.924 191.865 157.559C190.743 157.226 185.734 152.671 182.61 148.156C181.447 149.007 180.229 149.78 178.964 150.47C171.111 154.693 144.188 164.517 130.241 162.29C116.236 160.047 127.423 115.455 127.423 115.455C147.705 116.392 156.197 113.809 157.745 113.262L154.596 133.875C163.119 133.623 184.091 137.098 184.102 137.1C189.994 137.875 200.898 142.575 202.982 143.946Z" fill="#FFCFC9"/>
<path d="M127.325 115.436H127.446C147.728 116.372 156.22 113.79 157.768 113.243L157.025 118.291C157.025 118.291 141.979 125.375 125.244 124.741L127.325 115.436Z" fill="#E57281"/>
<path d="M129.358 171.8C134.176 171.447 142.909 115.379 142.909 115.379C153.664 115.536 166.669 110.519 166.669 110.519C166.669 110.519 157.776 81.3746 154.71 75.3645C151.645 69.3545 129.641 58.9638 127.044 58.2122L84.1518 48.3965C84.1518 48.3965 47.5391 57.4915 35.993 66.8248C24.4469 76.1582 15.4248 115.528 15.4248 115.528C36.6296 124.079 58.6141 122.819 58.6141 122.819L51.1401 167.868C48.7198 178.806 40.9878 213.531 54.6205 230.392C54.6205 230.392 65.5889 176.484 129.358 171.8Z" fill="#EAEEFF"/>
<path d="M101.169 62.8203L88.3413 70.6477L72.0752 51.7342L84.286 44.42C84.6418 44.2081 85.0361 44.0689 85.4461 44.0106C85.8561 43.9523 86.2736 43.9761 86.6743 44.0804C87.0751 44.1848 87.4511 44.3677 87.7806 44.6186C88.1101 44.8695 88.3865 45.1833 88.5937 45.5418L101.169 62.8203Z" fill="#DBDAFF"/>
<path d="M120.678 64.6151L129.705 69.9436L129.271 59.1126L127.044 58.2124C127.044 58.2124 123.078 60.8711 120.678 64.6151Z" fill="#DBDAFF"/>
<path d="M58.6143 122.814C60.353 117.118 62.0918 103.359 62.0918 103.359" stroke="#C7BFFF" stroke-width="5" stroke-linejoin="round"/>
<path d="M88.3418 70.6475L100.928 63.2969C100.928 63.2969 113.005 77.6643 113.341 80.1771C113.678 82.69 114.311 108.315 114.311 108.315H120.678" stroke="#C7BFFF" stroke-width="5" stroke-linejoin="round"/>
<path d="M129.467 69.9324L120.916 65.0918C120.916 65.0918 113.162 77.3587 113.344 80.1772" stroke="#C7BFFF" stroke-width="5" stroke-linejoin="round"/>
<path d="M59.9795 117.155C59.9795 117.155 32.8768 117.96 16.9473 109.473" stroke="#C7BFFF" stroke-width="5" stroke-linejoin="round"/>
<path d="M141.067 161.539C141.067 162.826 127.846 162.358 125.984 162.358C124.122 162.358 112.458 162.801 109.718 162.358C94.8231 163.583 28.3874 168.413 20.661 157.674C11.7174 145.239 19.7074 117.11 19.7074 117.11C39.7736 124.079 58.6143 122.811 58.6143 122.811L56.968 133.494C72.8948 135.457 101.635 145.553 111.406 149.09C113.501 148.419 121.477 146.005 125.516 146.924C130.188 147.976 135.8 152.183 136.383 153.352C136.966 154.522 141.067 160.254 141.067 161.539Z" fill="#FFCFC9"/>
<path d="M125.976 162.358C127.838 162.358 141.058 162.826 141.058 161.542C141.058 160.257 136.966 154.531 136.383 153.361C135.8 152.192 130.191 147.985 125.516 146.933C125.516 146.933 131.284 154.946 125.976 162.358Z" fill="#E57281"/>
<path d="M19.6965 117.119C19.6965 117.119 40.2339 124.343 58.6146 122.815L56.9683 133.494C56.9683 133.494 32.4402 129.568 18.8271 120.683L19.6965 117.119Z" fill="#E57281"/>
<path d="M197.379 351.685H151.966C151.921 350.992 151.904 350.33 151.918 349.693H197.438C197.487 350.357 197.468 351.025 197.379 351.685Z" fill="#3F4D79"/>
<path d="M156.593 331.352C156.756 336.305 151.969 339.443 151.969 349.679H197.379C197.379 349.679 198.038 341.092 188.966 339.112C179.893 337.132 171.625 334.487 170.801 331.352H156.593Z" fill="#9B9B9B"/>
<path d="M171.112 340.604L175.257 334.468" stroke="#3F4D79" stroke-width="5" stroke-miterlimit="10" stroke-linecap="round"/>
<path d="M174.346 341.35L178.244 335.713" stroke="#3F4D79" stroke-width="5" stroke-miterlimit="10" stroke-linecap="round"/>
<path d="M178.574 341.6L181.726 336.459" stroke="#3F4D79" stroke-width="5" stroke-miterlimit="10" stroke-linecap="round"/>
<path d="M107.755 175.769C107.755 175.769 177.066 171.434 193.91 191.25C210.753 211.067 178.059 281.74 174.755 324.674C174.755 324.674 158.169 326.326 151.435 324.674C144.702 323.022 138.84 249.62 155.808 229.473C155.808 229.473 91.3042 244.311 66.1507 225.597C40.9971 206.883 97.2918 176.123 107.755 175.769Z" fill="#3C4564"/>
<path d="M170.794 331.352C166.189 332.908 161.2 332.908 156.595 331.352L155.252 325.227C155.252 325.227 164.075 325.673 172.135 324.901L170.794 331.352Z" fill="#FFCFC9"/>
<path d="M54.621 227.588C55.6586 233.18 114.637 246.732 177.396 207.115C177.396 207.115 181.522 254.904 244.934 289.568C244.934 289.568 258.732 284.587 264.933 273.641C264.933 273.641 223.567 225.266 207.64 180.843C200.954 162.19 116.805 171.955 104.502 175.769C92.1984 179.583 49.9963 202.664 54.621 227.588Z" fill="#3F4D79"/>
<path d="M108.815 32.9805C108.815 32.9805 106.193 39.8739 89.1836 46.4421C89.1836 46.4421 101.153 62.8259 113.328 78.2198C113.328 78.2198 118.207 64.0767 127.027 58.2181L108.815 32.9805Z" fill="#FFCFC9"/>
<path d="M127.045 58.2125C124.445 59.9877 122.255 62.3856 120.443 64.9433C114.834 60.7365 108.527 53.3523 106.659 47.9957C105.736 45.3455 108.179 38.18 109.595 34.0405L127.045 58.2125Z" fill="#E57281"/>
<path d="M108.473 34.3268C108.473 36.5704 106.524 43.4779 108.883 46.2487C113.196 51.3165 125.553 59.4299 131.63 59.0905C135.96 58.8578 142.094 40.0732 143.008 37.2659C143.922 34.4586 147.871 23.2014 145.067 20.1921C142.262 17.1829 118.819 10.598 114.161 20.2959C108.998 31.0456 108.473 34.3268 108.473 34.3268Z" fill="#FFCFC9"/>
<path d="M154.711 13.6637C152.409 28.7266 142.598 30.6954 123.273 19.3821C114.419 14.2021 120.679 23.4794 115.701 31.534L114.074 32.1397C114.127 31.3292 114.242 27.9806 112.576 27.9722C110.122 27.9722 109.368 31.6854 109.132 33.9767L108.19 34.3272C108.19 34.3272 108.089 17.5367 110.47 12.1997C116.36 -1.01226 133.383 6.12519 137.559 8.37159C150.734 15.453 154.711 13.6637 154.711 13.6637Z" fill="#9B9B9B"/>
<path d="M122.838 18.2295C136.58 29.0773 147.377 31.649 152.739 25.2716" stroke="#9B9B9B" stroke-width="4" stroke-miterlimit="10"/>
<path d="M111.376 23.1635L111.349 23.1558C108.059 22.22 104.634 24.128 103.698 27.4174L102.935 30.0987C102 33.3881 103.908 36.8133 107.197 37.7491L107.224 37.7568C110.513 38.6926 113.939 36.7846 114.874 33.4951L115.637 30.8138C116.573 27.5244 114.665 24.0992 111.376 23.1635Z" fill="#181818" stroke="#3F4D79" stroke-width="5" stroke-miterlimit="10" stroke-linecap="round"/>
<path d="M115.866 30.0079L114.637 34.3269C114.249 35.6896 113.335 36.8423 112.097 37.5317C110.859 38.2212 109.398 38.3909 108.035 38.0036L106.375 37.5296C106.302 37.51 106.232 37.4875 106.159 37.4623C107.499 37.7869 108.913 37.5794 110.104 36.8833C111.294 36.1872 112.168 35.0567 112.542 33.7295L113.771 29.4106C114.151 28.0856 114.002 26.665 113.357 25.4471C112.712 24.2292 111.619 23.3087 110.31 22.8789L110.529 22.935L112.18 23.4005C112.858 23.59 113.491 23.9116 114.043 24.3469C114.596 24.7822 115.057 25.3225 115.399 25.9367C115.742 26.551 115.959 27.227 116.039 27.9257C116.119 28.6245 116.06 29.3321 115.866 30.0079Z" fill="#181818" stroke="#3F4D79" stroke-width="5" stroke-miterlimit="10" stroke-linecap="round"/>
<path d="M110.528 22.9267L115.576 5.20227C115.799 4.41997 116.173 3.68915 116.678 3.05153C117.183 2.41391 117.808 1.88198 118.519 1.48613C119.229 1.09028 120.011 0.838255 120.819 0.744452C121.626 0.650648 122.445 0.716902 123.227 0.939431L141.176 6.04362C143.397 6.67463 144.407 8.42744 143.773 10.6514" stroke="#3F4D79" stroke-width="5" stroke-miterlimit="10" stroke-linecap="round"/>
<path d="M194.385 163.065H115.694C112.101 163.065 109.824 159.472 111.557 156.539L138.2 111.479C140.517 107.553 144.931 105.124 149.743 105.124H228.438C232.03 105.124 234.307 108.717 232.574 111.65L205.931 156.71C203.607 160.631 199.187 163.065 194.385 163.065Z" fill="#EAEEFF"/>
<path d="M193.614 164.512H118.154C114.634 164.512 112.404 160.992 114.104 158.118L140.205 113.972C142.477 110.13 146.81 107.746 151.516 107.746H226.977C230.496 107.746 232.726 111.266 231.026 114.14L204.925 158.283C202.653 162.125 198.32 164.512 193.614 164.512Z" fill="#C0C1FF"/>
<path d="M194.385 163.065H115.694C112.101 163.065 109.824 159.472 111.557 156.539L138.2 111.479C140.517 107.553 144.931 105.124 149.743 105.124H228.438C232.03 105.124 234.307 108.717 232.574 111.65L205.931 156.71C203.607 160.631 199.187 163.065 194.385 163.065Z" stroke="#9B9B9B" stroke-width="5" stroke-miterlimit="10"/>
<path d="M195.446 163.124H51.7516C50.2368 163.124 49.0088 164.352 49.0088 165.867V166.473C49.0088 167.987 50.2368 169.215 51.7516 169.215H195.446C196.96 169.215 198.188 167.987 198.188 166.473V165.867C198.188 164.352 196.96 163.124 195.446 163.124Z" fill="#D1D1FF" stroke="#9B9B9B" stroke-width="6" stroke-miterlimit="10"/>
</g>
<defs>
<clipPath id="clip0">
<rect width="300" height="351.67" fill="white"/>
</clipPath>
</defs>
</svg>
