<svg width="120" height="120" viewBox="0 0 120 120" fill="none" xmlns="http://www.w3.org/2000/svg">
<path d="M59.9972 0.706543C44.2715 0.706543 29.1898 6.95359 18.07 18.0734C6.95017 29.1932 0.703125 44.2749 0.703125 60.0007C0.703125 75.7264 6.95017 90.8081 18.07 101.928C29.1898 113.048 44.2715 119.295 59.9972 119.295C75.723 119.295 90.8047 113.048 101.925 101.928C113.044 90.8081 119.291 75.7264 119.291 60.0007C119.291 44.2749 113.044 29.1932 101.925 18.0734C90.8047 6.95359 75.723 0.706543 59.9972 0.706543ZM93.8019 81.6077L81.5972 93.8124L59.9972 72.2054L38.3902 93.8054L26.1855 81.6007L47.7996 60.0007L26.1925 38.3936L38.3972 26.196L59.9972 47.796L81.6043 26.1889L93.809 38.3936L72.1949 60.0007L93.8019 81.6077Z" fill="#E57281"/>
</svg>
