<svg width="474" height="474" viewBox="0 0 474 474" fill="none" xmlns="http://www.w3.org/2000/svg">
<path fill-rule="evenodd" clip-rule="evenodd" d="M228.468 23.4891C228.452 3.10263 206.755 -7.13979 193.91 7.17625L6.07805 216.531C-1.92613 225.452 -2.03943 240.017 5.82498 249.061L193.979 465.456C206.732 480.123 228.805 469.839 228.79 449.238L228.468 23.4891ZM185.592 109.989C185.592 103.117 178.224 99.7144 173.98 104.626L65.461 230.189C62.9017 233.15 62.8827 237.878 65.4181 240.866L173.937 368.738C178.162 373.717 185.592 370.33 185.592 363.424V109.989Z" fill="#8458FF"/>
<path fill-rule="evenodd" clip-rule="evenodd" d="M280.842 467.216C268.107 481.643 246.327 471.548 246.171 451.146L242.887 23.2573C242.729 2.66213 264.703 -7.77648 277.558 6.78703L468.048 222.592C475.98 231.578 475.98 246.147 468.048 255.132L280.842 467.216ZM384.382 251.913C394.05 251.913 398.891 263.602 392.055 270.438L300.518 361.968C293.682 368.804 281.995 363.962 281.995 354.295L281.995 262.765C281.995 256.772 286.853 251.914 292.846 251.914L384.382 251.913ZM392.055 193.21C398.891 200.045 394.05 211.734 384.383 211.734L292.846 211.734C286.853 211.734 281.995 206.876 281.995 200.883L281.995 109.352C281.995 99.6851 293.682 94.8437 300.518 101.679L392.055 193.21Z" fill="#8458FF"/>
</svg>
