<svg width="379" height="320" viewBox="0 0 379 320" fill="none" xmlns="http://www.w3.org/2000/svg">
<g clip-path="url(#clip0)">
<g filter="url(#filter0_b)">
<rect x="248" y="211.681" width="130.761" height="109.872" rx="16" transform="rotate(-9.54392 248 211.681)" fill="url(#paint0_linear)" fill-opacity="0.8"/>
<rect x="248.576" y="212.091" width="129.761" height="108.872" rx="15.5" transform="rotate(-9.54392 248.576 212.091)" stroke="#393939"/>
</g>
<path d="M268.684 235.603C268.322 235.664 267.966 235.671 267.617 235.624C267.269 235.577 266.939 235.474 266.628 235.316C266.318 235.157 266.035 234.949 265.781 234.691C265.526 234.426 265.306 234.106 265.121 233.732L266.524 232.887C266.706 233.295 266.959 233.617 267.283 233.855C267.606 234.085 267.992 234.162 268.442 234.086C268.607 234.058 268.762 234.012 268.905 233.947C269.055 233.873 269.182 233.787 269.287 233.688C269.399 233.58 269.48 233.457 269.529 233.319C269.579 233.181 269.59 233.029 269.562 232.863C269.536 232.705 269.484 232.568 269.408 232.451C269.331 232.334 269.217 232.232 269.064 232.144C268.919 232.055 268.732 231.977 268.502 231.91C268.279 231.842 268.005 231.778 267.679 231.72L267.126 231.618C266.884 231.577 266.633 231.51 266.374 231.416C266.123 231.32 265.887 231.194 265.665 231.036C265.444 230.879 265.249 230.684 265.081 230.453C264.919 230.212 264.81 229.931 264.756 229.607C264.7 229.276 264.712 228.957 264.79 228.652C264.875 228.338 265.018 228.054 265.219 227.801C265.426 227.539 265.686 227.321 265.997 227.147C266.315 226.964 266.679 226.838 267.09 226.769C267.516 226.697 267.892 226.695 268.22 226.761C268.554 226.819 268.843 226.92 269.087 227.066C269.337 227.202 269.547 227.366 269.717 227.556C269.887 227.747 270.019 227.931 270.114 228.11L268.805 228.938C268.686 228.715 268.505 228.527 268.26 228.373C268.023 228.218 267.723 228.171 267.36 228.232C267.013 228.291 266.739 228.422 266.538 228.626C266.336 228.822 266.256 229.051 266.3 229.311C266.343 229.563 266.49 229.762 266.741 229.906C266.991 230.042 267.371 230.153 267.88 230.238L268.442 230.326C268.801 230.387 269.132 230.473 269.435 230.585C269.744 230.687 270.015 230.828 270.248 231.008C270.489 231.186 270.684 231.405 270.833 231.664C270.989 231.914 271.096 232.216 271.156 232.571C271.23 233.013 271.204 233.411 271.077 233.765C270.956 234.109 270.775 234.407 270.534 234.659C270.292 234.911 270.006 235.117 269.676 235.278C269.346 235.439 269.016 235.547 268.684 235.603ZM271.254 226.263L272.804 226.003L273.58 230.618L273.651 230.606L275.266 228.339L277.183 228.017L277.199 228.111L275.397 230.568L278.319 233.691L278.335 233.785L276.501 234.094L274.487 231.816L273.914 232.606L274.229 234.476L272.678 234.736L271.254 226.263ZM278.701 226.897C278.567 226.92 278.433 226.918 278.299 226.892C278.171 226.857 278.053 226.804 277.944 226.733C277.841 226.653 277.752 226.558 277.677 226.449C277.61 226.339 277.564 226.212 277.54 226.07C277.516 225.928 277.518 225.794 277.545 225.668C277.581 225.54 277.635 225.426 277.707 225.324C277.786 225.214 277.88 225.125 277.99 225.058C278.107 224.981 278.233 224.932 278.367 224.909C278.643 224.863 278.896 224.922 279.127 225.086C279.356 225.242 279.494 225.458 279.54 225.734C279.587 226.01 279.528 226.264 279.364 226.494C279.198 226.716 278.977 226.851 278.701 226.897ZM279.048 233.666L278.073 227.867L279.624 227.606L280.599 233.405L279.048 233.666ZM282.016 233.167L280.592 224.693L282.142 224.433L283.566 232.906L282.016 233.167ZM284.894 232.683L283.469 224.21L285.019 223.949L286.444 232.422L284.894 232.683ZM290.041 232.012C289.662 232.076 289.315 232.085 289 232.041C288.692 231.995 288.415 231.916 288.169 231.804C287.929 231.682 287.718 231.535 287.535 231.363C287.35 231.183 287.201 230.997 287.088 230.805L288.373 229.98C288.558 230.258 288.773 230.453 289.019 230.565C289.272 230.669 289.536 230.698 289.812 230.651C290.096 230.603 290.313 230.514 290.461 230.384C290.609 230.253 290.672 230.117 290.648 229.975C290.621 229.817 290.529 229.703 290.371 229.632C290.22 229.552 289.968 229.501 289.615 229.48L288.769 229.439C288.581 229.43 288.381 229.399 288.169 229.345C287.965 229.291 287.773 229.209 287.593 229.102C287.412 228.994 287.255 228.854 287.121 228.682C286.986 228.51 286.898 228.298 286.855 228.045C286.808 227.761 286.824 227.499 286.906 227.258C286.995 227.016 287.133 226.802 287.321 226.616C287.507 226.423 287.736 226.263 288.007 226.136C288.284 226 288.588 225.904 288.92 225.849C289.472 225.756 289.984 225.783 290.455 225.931C290.924 226.071 291.302 226.361 291.586 226.8L290.341 227.569C290.192 227.359 290.002 227.22 289.772 227.153C289.542 227.087 289.32 227.071 289.107 227.107C288.886 227.144 288.701 227.224 288.551 227.346C288.4 227.461 288.336 227.589 288.36 227.731C288.383 227.866 288.468 227.961 288.615 228.017C288.77 228.072 288.972 228.111 289.219 228.135L290.142 228.198C290.758 228.241 291.234 228.396 291.571 228.664C291.915 228.923 292.122 229.265 292.194 229.691C292.237 229.943 292.218 230.194 292.138 230.443C292.058 230.691 291.923 230.925 291.733 231.144C291.549 231.353 291.312 231.535 291.021 231.689C290.739 231.842 290.412 231.95 290.041 232.012Z" fill="#EFEFEF"/>
<path d="M284.05 312.142L283.578 309.337L284.495 309.183C284.8 309.132 285.039 309.156 285.213 309.256C285.388 309.356 285.496 309.53 285.538 309.776C285.56 309.907 285.542 310.03 285.485 310.144C285.427 310.256 285.339 310.351 285.219 310.428C285.378 310.445 285.511 310.506 285.619 310.61C285.727 310.713 285.795 310.847 285.823 311.012C285.865 311.263 285.817 311.475 285.678 311.646C285.539 311.817 285.321 311.928 285.023 311.978L284.05 312.142ZM284.199 310.768L284.369 311.777L284.979 311.674C285.152 311.645 285.28 311.578 285.364 311.473C285.449 311.366 285.478 311.235 285.452 311.078C285.395 310.74 285.183 310.602 284.816 310.664L284.199 310.768ZM284.149 310.471L284.708 310.377C284.87 310.35 284.992 310.288 285.075 310.191C285.159 310.093 285.189 309.975 285.166 309.837C285.14 309.683 285.076 309.579 284.975 309.524C284.873 309.469 284.73 309.456 284.546 309.487L283.999 309.579L284.149 310.471ZM287.323 311.631C287.041 311.678 286.795 311.625 286.587 311.469C286.378 311.313 286.248 311.079 286.196 310.769L286.185 310.703C286.15 310.496 286.158 310.306 286.209 310.131C286.262 309.954 286.351 309.809 286.476 309.694C286.603 309.577 286.75 309.505 286.915 309.477C287.186 309.432 287.412 309.485 287.592 309.639C287.772 309.792 287.891 310.035 287.946 310.367L287.971 310.516L286.56 310.753C286.599 310.958 286.687 311.114 286.823 311.222C286.959 311.328 287.116 311.367 287.293 311.337C287.419 311.316 287.522 311.272 287.6 311.206C287.679 311.14 287.744 311.059 287.795 310.963L288.041 311.096C287.912 311.394 287.672 311.572 287.323 311.631ZM286.965 309.77C286.821 309.794 286.709 309.867 286.629 309.989C286.549 310.109 286.513 310.266 286.522 310.458L287.566 310.283L287.561 310.256C287.521 310.077 287.448 309.945 287.344 309.861C287.24 309.775 287.114 309.745 286.965 309.77ZM288.719 311.357L288.415 309.548L288.085 309.603L288.039 309.328L288.368 309.273L288.332 309.059C288.295 308.835 288.326 308.653 288.424 308.51C288.523 308.368 288.682 308.279 288.9 308.242C288.982 308.229 289.066 308.226 289.15 308.234L289.18 308.526C289.117 308.525 289.052 308.53 288.984 308.541C288.869 308.561 288.785 308.61 288.734 308.688C288.682 308.766 288.667 308.867 288.688 308.993L288.725 309.213L289.17 309.138L289.216 309.413L288.771 309.488L289.075 311.297L288.719 311.357ZM289.642 310.11C289.608 309.906 289.617 309.716 289.669 309.539C289.722 309.362 289.813 309.218 289.941 309.105C290.069 308.992 290.226 308.921 290.409 308.89C290.693 308.842 290.939 308.902 291.147 309.069C291.355 309.236 291.487 309.482 291.542 309.808L291.546 309.833C291.581 310.036 291.572 310.225 291.521 310.4C291.471 310.574 291.381 310.718 291.251 310.832C291.122 310.946 290.964 311.019 290.777 311.05C290.494 311.098 290.248 311.038 290.039 310.871C289.832 310.704 289.701 310.459 289.646 310.135L289.642 310.11ZM290.007 310.092C290.046 310.323 290.131 310.5 290.261 310.622C290.392 310.744 290.548 310.79 290.728 310.759C290.909 310.729 291.041 310.634 291.123 310.475C291.206 310.314 291.226 310.107 291.183 309.851C291.145 309.622 291.059 309.447 290.926 309.324C290.794 309.199 290.638 309.152 290.459 309.183C290.283 309.212 290.153 309.306 290.068 309.464C289.984 309.622 289.964 309.832 290.007 310.092ZM292.875 308.844C292.82 308.844 292.761 308.849 292.698 308.86C292.464 308.899 292.322 309.025 292.272 309.238L292.521 310.717L292.165 310.777L291.814 308.693L292.161 308.635L292.207 308.875C292.293 308.669 292.443 308.548 292.657 308.512C292.726 308.5 292.781 308.5 292.82 308.512L292.875 308.844ZM294.334 310.452C294.052 310.5 293.806 310.446 293.598 310.291C293.389 310.134 293.259 309.901 293.207 309.59L293.196 309.524C293.161 309.318 293.169 309.127 293.22 308.952C293.272 308.775 293.362 308.63 293.487 308.515C293.614 308.398 293.761 308.326 293.926 308.298C294.197 308.253 294.423 308.307 294.603 308.46C294.783 308.613 294.902 308.856 294.957 309.189L294.982 309.337L293.571 309.574C293.61 309.779 293.698 309.935 293.834 310.043C293.97 310.149 294.127 310.188 294.304 310.158C294.43 310.137 294.533 310.093 294.611 310.027C294.69 309.961 294.755 309.88 294.806 309.784L295.052 309.917C294.923 310.215 294.683 310.393 294.334 310.452ZM293.976 308.591C293.832 308.615 293.72 308.688 293.64 308.81C293.56 308.93 293.524 309.087 293.533 309.28L294.577 309.104L294.572 309.077C294.532 308.898 294.459 308.766 294.355 308.682C294.251 308.596 294.125 308.566 293.976 308.591Z" fill="#656565"/>
<path d="M331.482 301.284L332.783 303.418L333.315 300.975L333.795 300.895L334.267 303.699L333.897 303.761L333.713 302.669L333.55 301.485L333.011 303.91L332.728 303.958L331.428 301.847L331.662 303.014L331.845 304.106L331.476 304.168L331.004 301.364L331.482 301.284ZM335.251 303.534L334.894 303.594L334.544 301.51L334.9 301.45L335.251 303.534ZM334.422 300.962C334.413 300.904 334.422 300.852 334.45 300.806C334.479 300.761 334.528 300.732 334.598 300.72C334.667 300.709 334.723 300.72 334.766 300.753C334.808 300.787 334.834 300.833 334.844 300.891C334.854 300.948 334.844 301 334.814 301.044C334.785 301.089 334.736 301.117 334.666 301.129C334.597 301.14 334.541 301.13 334.499 301.097C334.457 301.065 334.432 301.019 334.422 300.962ZM335.558 302.393C335.504 302.073 335.537 301.803 335.656 301.584C335.774 301.363 335.956 301.232 336.202 301.191C336.446 301.15 336.653 301.201 336.824 301.344L336.641 300.258L336.997 300.198L337.495 303.156L337.167 303.211L337.112 302.991C336.999 303.19 336.815 303.31 336.561 303.353C336.32 303.394 336.106 303.328 335.92 303.156C335.735 302.983 335.616 302.738 335.563 302.42L335.558 302.393ZM335.921 302.373C335.961 302.61 336.041 302.786 336.161 302.903C336.281 303.02 336.427 303.065 336.599 303.036C336.825 302.998 336.973 302.868 337.043 302.648L336.882 301.691C336.742 301.512 336.562 301.442 336.341 301.479C336.167 301.508 336.042 301.598 335.967 301.75C335.892 301.901 335.877 302.109 335.921 302.373Z" fill="#656565"/>
<path d="M376.316 295.877L375.141 296.074L375 296.851L374.619 296.915L375.218 293.93L375.542 293.876L377.086 296.5L376.707 296.564L376.316 295.877ZM375.202 295.751L376.155 295.591L375.457 294.36L375.202 295.751ZM377.583 296.416L377.279 294.608L376.95 294.663L376.903 294.388L377.233 294.332L377.197 294.119C377.159 293.895 377.19 293.712 377.289 293.57C377.388 293.428 377.546 293.339 377.765 293.302C377.847 293.288 377.93 293.286 378.015 293.294L378.044 293.586C377.982 293.585 377.917 293.59 377.849 293.601C377.733 293.62 377.649 293.669 377.598 293.748C377.546 293.825 377.531 293.927 377.552 294.053L377.589 294.272L378.034 294.198L378.08 294.473L377.635 294.548L377.939 296.357L377.583 296.416ZM378.827 293.545L378.912 294.05L379.301 293.985L379.348 294.26L378.959 294.325L379.176 295.618C379.19 295.701 379.218 295.761 379.26 295.798C379.301 295.833 379.364 295.844 379.447 295.83C379.488 295.823 379.544 295.806 379.613 295.778L379.661 296.067C379.572 296.108 379.483 296.137 379.394 296.152C379.235 296.178 379.107 296.15 379.01 296.068C378.913 295.985 378.849 295.855 378.82 295.678L378.602 294.385L378.223 294.449L378.177 294.174L378.556 294.11L378.471 293.605L378.827 293.545ZM380.941 295.891C380.659 295.939 380.413 295.885 380.205 295.73C379.996 295.574 379.866 295.34 379.814 295.029L379.803 294.964C379.768 294.757 379.776 294.566 379.827 294.391C379.879 294.215 379.969 294.069 380.094 293.954C380.221 293.838 380.368 293.766 380.533 293.738C380.804 293.692 381.03 293.746 381.21 293.899C381.39 294.053 381.508 294.295 381.564 294.628L381.589 294.776L380.178 295.014C380.217 295.218 380.305 295.375 380.441 295.482C380.577 295.589 380.734 295.627 380.911 295.597C381.037 295.576 381.139 295.533 381.218 295.467C381.297 295.401 381.362 295.32 381.413 295.224L381.659 295.357C381.53 295.655 381.29 295.833 380.941 295.891ZM380.583 294.031C380.439 294.055 380.327 294.128 380.247 294.249C380.167 294.37 380.131 294.526 380.14 294.719L381.184 294.543L381.179 294.517C381.139 294.337 381.066 294.205 380.962 294.121C380.858 294.036 380.732 294.006 380.583 294.031ZM382.872 293.713C382.817 293.713 382.758 293.718 382.695 293.729C382.461 293.768 382.319 293.894 382.269 294.108L382.518 295.587L382.161 295.647L381.811 293.563L382.158 293.504L382.204 293.744C382.29 293.538 382.44 293.417 382.654 293.381C382.723 293.37 382.778 293.37 382.816 293.382L382.872 293.713Z" fill="#656565"/>
<path d="M282.389 302.812C282.46 303.229 282.44 303.551 282.332 303.778C282.224 304.005 282.018 304.144 281.715 304.195C281.416 304.245 281.178 304.183 281 304.01C280.823 303.835 280.699 303.551 280.627 303.158L280.547 302.682C280.478 302.27 280.498 301.951 280.607 301.727C280.716 301.503 280.922 301.365 281.227 301.314C281.528 301.263 281.767 301.323 281.942 301.493C282.117 301.661 282.24 301.947 282.312 302.35L282.389 302.812ZM281.951 302.384C281.9 302.083 281.821 301.87 281.713 301.747C281.605 301.623 281.459 301.576 281.276 301.607C281.093 301.637 280.972 301.728 280.912 301.88C280.851 302.031 280.844 302.25 280.889 302.535L280.985 303.105C281.036 303.408 281.117 303.625 281.229 303.756C281.342 303.884 281.487 303.934 281.666 303.904C281.842 303.874 281.961 303.784 282.023 303.634C282.086 303.483 282.095 303.261 282.049 302.968L281.951 302.384Z" fill="#656565"/>
<path d="M273.702 274.449L273.609 273.027L275.046 272.786L275.101 273.115L273.967 273.306L274.011 274.085C274.134 273.981 274.284 273.914 274.458 273.884C274.714 273.842 274.931 273.892 275.11 274.036C275.288 274.179 275.402 274.395 275.45 274.682C275.498 274.971 275.458 275.212 275.33 275.406C275.202 275.597 274.999 275.717 274.719 275.764C274.471 275.805 274.257 275.771 274.077 275.66C273.898 275.549 273.776 275.374 273.714 275.135L274.051 275.078C274.1 275.235 274.177 275.347 274.283 275.413C274.39 275.478 274.518 275.498 274.67 275.473C274.835 275.445 274.956 275.367 275.03 275.238C275.106 275.109 275.128 274.945 275.094 274.746C275.063 274.559 274.986 274.417 274.864 274.321C274.744 274.224 274.599 274.19 274.429 274.218C274.274 274.244 274.158 274.299 274.08 274.382L273.999 274.475L273.702 274.449ZM277.547 274.019C277.617 274.436 277.598 274.758 277.489 274.985C277.381 275.212 277.175 275.351 276.872 275.402C276.573 275.452 276.335 275.39 276.158 275.217C275.98 275.042 275.856 274.758 275.785 274.365L275.705 273.889C275.635 273.477 275.655 273.158 275.764 272.934C275.873 272.71 276.079 272.572 276.384 272.521C276.686 272.47 276.924 272.53 277.099 272.7C277.274 272.868 277.397 273.154 277.469 273.557L277.547 274.019ZM277.108 273.591C277.058 273.29 276.978 273.077 276.871 272.954C276.762 272.83 276.617 272.783 276.433 272.814C276.251 272.844 276.129 272.935 276.069 273.087C276.009 273.238 276.001 273.457 276.046 273.742L276.142 274.312C276.193 274.615 276.275 274.832 276.386 274.963C276.499 275.091 276.645 275.141 276.823 275.111C276.999 275.081 277.118 274.991 277.18 274.841C277.243 274.69 277.252 274.468 277.207 274.175L277.108 273.591Z" fill="#656565"/>
<path d="M267.981 247.808L267.623 247.868L267.224 245.493L266.55 245.878L266.495 245.554L267.452 244.999L267.507 244.99L267.981 247.808ZM270.583 246.14C270.653 246.558 270.634 246.88 270.525 247.106C270.417 247.333 270.211 247.472 269.908 247.523C269.609 247.573 269.371 247.512 269.194 247.338C269.016 247.163 268.892 246.879 268.821 246.486L268.741 246.01C268.671 245.598 268.691 245.28 268.8 245.056C268.909 244.831 269.115 244.694 269.42 244.642C269.722 244.592 269.96 244.651 270.135 244.821C270.31 244.99 270.433 245.275 270.505 245.678L270.583 246.14ZM270.144 245.713C270.094 245.411 270.014 245.199 269.906 245.075C269.798 244.951 269.653 244.904 269.469 244.935C269.287 244.966 269.165 245.057 269.105 245.208C269.045 245.36 269.037 245.578 269.082 245.864L269.178 246.434C269.229 246.737 269.311 246.954 269.422 247.084C269.535 247.213 269.681 247.262 269.859 247.232C270.035 247.203 270.154 247.113 270.216 246.962C270.279 246.812 270.288 246.59 270.242 246.296L270.144 245.713ZM272.798 245.768C272.868 246.185 272.849 246.507 272.74 246.734C272.632 246.961 272.426 247.1 272.123 247.151C271.824 247.201 271.586 247.139 271.409 246.966C271.231 246.791 271.107 246.507 271.036 246.114L270.956 245.638C270.886 245.226 270.906 244.907 271.015 244.683C271.124 244.459 271.33 244.321 271.635 244.27C271.937 244.219 272.175 244.279 272.35 244.449C272.525 244.617 272.648 244.903 272.72 245.306L272.798 245.768ZM272.359 245.34C272.309 245.039 272.229 244.826 272.122 244.703C272.013 244.579 271.868 244.532 271.684 244.563C271.502 244.593 271.38 244.684 271.32 244.836C271.26 244.987 271.252 245.206 271.297 245.491L271.393 246.061C271.444 246.364 271.526 246.581 271.637 246.712C271.75 246.84 271.896 246.89 272.074 246.86C272.25 246.83 272.369 246.74 272.431 246.59C272.494 246.439 272.503 246.217 272.458 245.924L272.359 245.34Z" fill="#656565"/>
<path d="M278.006 242.831L287.597 299.875" stroke="#BFBFBF"/>
<path d="M322.701 235.316L332.292 292.36" stroke="#BFBFBF"/>
<path d="M367.396 227.801L376.987 284.846" stroke="#BFBFBF"/>
<path d="M287.598 299.876L376.99 284.846" stroke="#BFBFBF"/>
<path d="M282.755 271.082L372.148 256.052" stroke="#BFBFBF"/>
<path d="M278.006 242.831L367.399 227.801" stroke="#BFBFBF"/>
<path d="M285.952 290.096C285.952 290.096 295.847 280.612 307.021 278.733C318.196 276.854 316.46 266.532 327.634 264.653C338.808 262.774 337.347 254.082 348.521 252.203C359.695 250.324 369.042 237.58 369.042 237.58" stroke="#A3B1FF" stroke-width="2"/>
<ellipse cx="285.952" cy="290.096" rx="2.15827" ry="2.20362" transform="rotate(-9.54392 285.952 290.096)" fill="#A3B1FF"/>
<ellipse cx="307.022" cy="278.733" rx="2.15827" ry="2.20362" transform="rotate(-9.54392 307.022 278.733)" fill="#A3B1FF"/>
<ellipse cx="327.632" cy="264.653" rx="2.15827" ry="2.20362" transform="rotate(-9.54392 327.632 264.653)" fill="#A3B1FF"/>
<ellipse cx="348.521" cy="252.203" rx="2.15827" ry="2.20362" transform="rotate(-9.54392 348.521 252.203)" fill="#A3B1FF"/>
<ellipse cx="369.044" cy="237.581" rx="2.15827" ry="2.20362" transform="rotate(-9.54392 369.044 237.581)" fill="#A3B1FF"/>
<path d="M46 314.472L53.0706 314.554L53.1524 307.483L60.223 307.565L60.3049 300.494L67.3755 300.576" stroke="#E57281" stroke-width="2" stroke-linecap="round" stroke-linejoin="round"/>
<path fill-rule="evenodd" clip-rule="evenodd" d="M351.003 22.5131L342 27.5397L343.38 14.1448L344.76 0.75L352.377 9.10415L360 17.4583L351.003 22.5131Z" fill="#4664FF"/>
<path fill-rule="evenodd" clip-rule="evenodd" d="M367 97.0058C366.999 95.0288 367.584 93.0957 368.681 91.451C369.778 89.8062 371.338 88.5236 373.164 87.7651C374.99 87.0067 376.999 86.8064 378.939 87.1897C380.878 87.573 382.661 88.5227 384.061 89.9186C385.461 91.3146 386.416 93.0942 386.805 95.0327C387.194 96.9711 386.999 98.9813 386.246 100.809C385.493 102.637 384.215 104.201 382.573 105.303C380.932 106.405 379 106.995 377.023 107C375.708 107.004 374.406 106.748 373.19 106.248C371.974 105.747 370.869 105.012 369.938 104.083C369.006 103.155 368.268 102.052 367.764 100.837C367.259 99.6227 367 98.3207 367 97.0058Z" fill="#FFCF2D"/>
<g filter="url(#filter1_d)">
<rect x="11" y="196.313" width="36" height="33.7143" rx="12" transform="rotate(-10.1002 11 196.313)" fill="#F1921B"/>
</g>
<g clip-path="url(#clip1)">
<path d="M28.5718 215.802L29.4829 214.129L25.1723 211.783L28.4076 208.092L26.9747 206.837L22.9547 211.422C22.8605 211.53 22.7917 211.657 22.7533 211.794C22.7149 211.932 22.708 212.076 22.7331 212.217C22.7581 212.358 22.8145 212.491 22.898 212.607C22.9816 212.723 23.0901 212.818 23.2156 212.887L28.5718 215.802ZM35.6477 205.292L34.7366 206.965L39.0472 209.311L35.8118 213.001L37.2448 214.257L41.2648 209.672C41.359 209.564 41.4278 209.437 41.4662 209.299C41.5045 209.162 41.5115 209.017 41.4864 208.877C41.4613 208.736 41.405 208.603 41.3214 208.487C41.2379 208.371 41.1294 208.275 41.0039 208.207L35.6477 205.292Z" fill="white"/>
<path d="M33.4325 201.814L32.6883 219.359L30.7847 219.278L31.5288 201.733L33.4325 201.814Z" fill="white"/>
</g>
<path fill-rule="evenodd" clip-rule="evenodd" d="M8 32.4224L38.4757 17L48 38.254L17.5243 53.6632L8 32.4224Z" fill="#2D2D2D"/>
<path d="M18.5391 48.973L21.5708 39.5455L27.2198 40.6633L29.4378 29.0345L34.8958 29.9994L36.4836 21.7979" stroke="#F2F2F2" stroke-width="3.11" stroke-linecap="round" stroke-linejoin="round"/>
</g>
<defs>
<filter id="filter0_b" x="233" y="175" width="177.168" height="160.032" filterUnits="userSpaceOnUse" color-interpolation-filters="sRGB">
<feFlood flood-opacity="0" result="BackgroundImageFix"/>
<feGaussianBlur in="BackgroundImage" stdDeviation="7.5"/>
<feComposite in2="SourceAlpha" operator="in" result="effect1_backgroundBlur"/>
<feBlend mode="normal" in="SourceGraphic" in2="effect1_backgroundBlur" result="shape"/>
</filter>
<filter id="filter1_d" x="1.91602" y="180.917" width="67.5217" height="65.6722" filterUnits="userSpaceOnUse" color-interpolation-filters="sRGB">
<feFlood flood-opacity="0" result="BackgroundImageFix"/>
<feColorMatrix in="SourceAlpha" type="matrix" values="0 0 0 0 0 0 0 0 0 0 0 0 0 0 0 0 0 0 127 0"/>
<feOffset dx="4" dy="4"/>
<feGaussianBlur stdDeviation="7.5"/>
<feColorMatrix type="matrix" values="0 0 0 0 0 0 0 0 0 0 0 0 0 0 0 0 0 0 0.15 0"/>
<feBlend mode="normal" in2="BackgroundImageFix" result="effect1_dropShadow"/>
<feBlend mode="normal" in="SourceGraphic" in2="effect1_dropShadow" result="shape"/>
</filter>
<linearGradient id="paint0_linear" x1="254.064" y1="216.432" x2="386.983" y2="306.268" gradientUnits="userSpaceOnUse">
<stop stop-color="#A6CEE3" stop-opacity="0.39"/>
<stop offset="1" stop-color="#F0F0F0" stop-opacity="0"/>
</linearGradient>
<clipPath id="clip0">
<rect width="379" height="320" fill="white"/>
</clipPath>
<clipPath id="clip1">
<rect x="18.8535" y="201.299" width="22.8571" height="22.8571" rx="11.4286" transform="rotate(-10.1002 18.8535 201.299)" fill="white"/>
</clipPath>
</defs>
</svg>
