<?xml version="1.0" standalone="no"?>
<!DOCTYPE svg PUBLIC "-//W3C//DTD SVG 20010904//EN"
 "http://www.w3.org/TR/2001/REC-SVG-20010904/DTD/svg10.dtd">
<svg version="1.0" xmlns="http://www.w3.org/2000/svg"
 width="837.000000pt" height="835.000000pt" viewBox="0 0 837.000000 835.000000"
 preserveAspectRatio="xMidYMid meet">
<metadata>
Created by potrace 1.16, written by Peter Selinger 2001-2019
</metadata>
<g transform="translate(0.000000,835.000000) scale(0.100000,-0.100000)"
fill="#000000" stroke="none">
<path d="M120 7700 l0 -500 500 0 500 0 0 500 0 500 -500 0 -500 0 0 -500z
m860 -5 l0 -355 -355 0 -355 0 0 355 0 355 355 0 355 0 0 -355z"/>
<path d="M410 7695 l0 -215 215 0 215 0 0 215 0 215 -215 0 -215 0 0 -215z"/>
<path d="M1840 7985 l0 -215 -145 0 -145 0 0 140 0 140 -140 0 -140 0 0 -70 0
-70 70 0 70 0 0 -70 0 -70 -70 0 -70 0 0 -75 0 -75 140 0 140 0 0 -70 0 -70
-140 0 -140 0 0 -140 0 -140 70 0 70 0 0 -75 0 -75 -215 0 -215 0 0 -70 0 -70
215 0 215 0 0 -70 0 -70 -285 0 -285 0 0 -75 0 -75 -70 0 -70 0 0 75 0 75 -75
0 -75 0 0 70 0 70 145 0 145 0 0 70 0 70 -360 0 -360 0 0 -140 0 -140 75 0 75
0 0 -75 0 -75 -75 0 -75 0 0 -355 0 -355 75 0 75 0 0 -70 0 -70 -75 0 -75 0 0
-75 0 -75 75 0 75 0 0 75 0 75 70 0 70 0 0 -75 0 -75 145 0 145 0 0 -70 0 -70
70 0 70 0 0 -70 0 -70 -70 0 -70 0 0 -70 0 -70 70 0 70 0 0 70 0 70 70 0 70 0
0 -70 0 -70 215 0 215 0 0 -75 0 -75 -355 0 -355 0 0 -70 0 -70 -75 0 -75 0 0
215 0 215 -70 0 -70 0 0 70 0 70 -70 0 -70 0 0 -215 0 -215 -75 0 -75 0 0
-140 0 -140 75 0 75 0 0 70 0 70 70 0 70 0 0 -70 0 -70 215 0 215 0 0 -75 0
-75 -70 0 -70 0 0 -70 0 -70 -75 0 -75 0 0 70 0 70 -70 0 -70 0 0 -70 0 -70
70 0 70 0 0 -70 0 -70 75 0 75 0 0 -285 0 -285 210 0 210 0 0 -75 0 -75 -70 0
-70 0 0 -70 0 -70 70 0 70 0 0 70 0 70 75 0 75 0 0 -70 0 -70 140 0 140 0 0
-70 0 -70 75 0 75 0 0 -70 0 -70 -145 0 -145 0 0 70 0 70 -215 0 -215 0 0 -70
0 -70 -70 0 -70 0 0 70 0 70 -70 0 -70 0 0 -145 0 -145 -75 0 -75 0 0 -70 0
-70 -70 0 -70 0 0 70 0 70 -70 0 -70 0 0 75 0 75 -75 0 -75 0 0 -75 0 -75 75
0 75 0 0 -70 0 -70 70 0 70 0 0 -70 0 -70 -145 0 -145 0 0 -75 0 -75 75 0 75
0 0 -70 0 -70 70 0 70 0 0 -70 0 -70 -70 0 -70 0 0 -145 0 -145 -75 0 -75 0 0
-140 0 -140 75 0 75 0 0 140 0 140 70 0 70 0 0 -70 0 -70 70 0 70 0 0 -145 0
-145 -70 0 -70 0 0 -70 0 -70 -70 0 -70 0 0 70 0 70 -75 0 -75 0 0 -140 0
-140 360 0 360 0 0 70 0 70 140 0 140 0 0 -70 0 -70 -70 0 -70 0 0 -70 0 -70
70 0 70 0 0 70 0 70 75 0 75 0 0 -215 0 -215 70 0 70 0 0 -70 0 -70 -70 0 -70
0 0 -360 0 -360 285 0 285 0 0 75 0 75 -70 0 -70 0 0 140 0 140 70 0 70 0 0
70 0 70 -70 0 -70 0 0 -70 0 -70 -75 0 -75 0 0 -140 0 -140 -70 0 -70 0 0 285
0 285 215 0 215 0 0 140 0 140 -70 0 -70 0 0 75 0 75 -75 0 -75 0 0 70 0 70
145 0 145 0 0 215 0 215 -70 0 -70 0 0 70 0 70 70 0 70 0 0 70 0 70 140 0 140
0 0 145 0 145 75 0 75 0 0 -145 0 -145 70 0 70 0 0 -70 0 -70 70 0 70 0 0 -70
0 -70 75 0 75 0 0 -145 0 -145 70 0 70 0 0 -70 0 -70 -70 0 -70 0 0 -70 0 -70
-75 0 -75 0 0 -215 0 -215 75 0 75 0 0 -75 0 -75 -75 0 -75 0 0 -285 0 -285
285 0 285 0 0 145 0 145 75 0 75 0 0 140 0 140 -215 0 -215 0 0 75 0 75 -70 0
-70 0 0 70 0 70 70 0 70 0 0 70 0 70 70 0 70 0 0 75 0 75 70 0 70 0 0 70 0 70
-70 0 -70 0 0 70 0 70 70 0 70 0 0 70 0 70 -70 0 -70 0 0 145 0 145 -70 0 -70
0 0 -70 0 -70 -70 0 -70 0 0 70 0 70 -75 0 -75 0 0 70 0 70 75 0 75 0 0 145 0
145 70 0 70 0 0 -70 0 -70 70 0 70 0 0 -75 0 -75 145 0 145 0 0 145 0 145 -75
0 -75 0 0 -70 0 -70 -70 0 -70 0 0 70 0 70 -70 0 -70 0 0 70 0 70 -70 0 -70 0
0 70 0 70 140 0 140 0 0 75 0 75 -70 0 -70 0 0 70 0 70 70 0 70 0 0 70 0 70
-70 0 -70 0 0 75 0 75 70 0 70 0 0 140 0 140 145 0 145 0 0 -70 0 -70 -75 0
-75 0 0 -70 0 -70 75 0 75 0 0 70 0 70 140 0 140 0 0 -70 0 -70 -70 0 -70 0 0
-75 0 -75 70 0 70 0 0 -70 0 -70 -140 0 -140 0 0 70 0 70 -75 0 -75 0 0 -70 0
-70 75 0 75 0 0 -70 0 -70 140 0 140 0 0 70 0 70 145 0 145 0 0 -70 0 -70 -70
0 -70 0 0 -215 0 -215 -75 0 -75 0 0 -70 0 -70 145 0 145 0 0 -75 0 -75 140 0
140 0 0 75 0 75 -140 0 -140 0 0 70 0 70 215 0 215 0 0 70 0 70 70 0 70 0 0
-70 0 -70 145 0 145 0 0 -70 0 -70 -145 0 -145 0 0 -75 0 -75 -70 0 -70 0 0
-70 0 -70 -75 0 -75 0 0 -70 0 -70 -140 0 -140 0 0 -75 0 -75 -70 0 -70 0 0
75 0 75 -75 0 -75 0 0 70 0 70 75 0 75 0 0 70 0 70 -145 0 -145 0 0 -140 0
-140 70 0 70 0 0 -75 0 -75 -140 0 -140 0 0 -70 0 -70 70 0 70 0 0 -285 0
-285 -70 0 -70 0 0 -70 0 -70 70 0 70 0 0 -75 0 -75 70 0 70 0 0 -70 0 -70
-70 0 -70 0 0 -70 0 -70 70 0 70 0 0 -70 0 -70 -70 0 -70 0 0 -75 0 -75 70 0
70 0 0 75 0 75 75 0 75 0 0 -75 0 -75 70 0 70 0 0 75 0 75 140 0 140 0 0 70 0
70 -140 0 -140 0 0 70 0 70 70 0 70 0 0 70 0 70 70 0 70 0 0 -70 0 -70 75 0
75 0 0 -70 0 -70 70 0 70 0 0 -70 0 -70 -70 0 -70 0 0 -75 0 -75 140 0 140 0
0 75 0 75 75 0 75 0 0 140 0 140 70 0 70 0 0 -140 0 -140 70 0 70 0 0 140 0
140 -70 0 -70 0 0 70 0 70 -70 0 -70 0 0 75 0 75 70 0 70 0 0 70 0 70 -70 0
-70 0 0 70 0 70 -75 0 -75 0 0 75 0 75 75 0 75 0 0 70 0 70 285 0 285 0 0
-215 0 -215 -75 0 -75 0 0 70 0 70 -70 0 -70 0 0 -70 0 -70 70 0 70 0 0 -70 0
-70 75 0 75 0 0 -215 0 -215 -75 0 -75 0 0 -70 0 -70 75 0 75 0 0 -75 0 -75
140 0 140 0 0 145 0 145 145 0 145 0 0 -70 0 -70 215 0 215 0 0 -75 0 -75 70
0 70 0 0 75 0 75 70 0 70 0 0 -75 0 -75 145 0 145 0 0 75 0 75 70 0 70 0 0
-75 0 -75 145 0 145 0 0 215 0 215 -145 0 -145 0 0 70 0 70 215 0 215 0 0
-285 0 -285 145 0 145 0 0 75 0 75 140 0 140 0 0 -75 0 -75 70 0 70 0 0 75 0
75 -70 0 -70 0 0 285 0 285 145 0 145 0 0 70 0 70 -75 0 -75 0 0 70 0 70 75 0
75 0 0 75 0 75 -75 0 -75 0 0 -75 0 -75 -140 0 -140 0 0 75 0 75 -70 0 -70 0
0 70 0 70 285 0 285 0 0 70 0 70 -75 0 -75 0 0 70 0 70 75 0 75 0 0 215 0 215
-75 0 -75 0 0 75 0 75 -210 0 -210 0 0 -75 0 -75 70 0 70 0 0 -70 0 -70 -215
0 -215 0 0 70 0 70 -70 0 -70 0 0 145 0 145 -145 0 -145 0 0 -70 0 -70 -140 0
-140 0 0 -75 0 -75 -75 0 -75 0 0 -140 0 -140 -70 0 -70 0 0 70 0 70 -70 0
-70 0 0 70 0 70 -75 0 -75 0 0 75 0 75 75 0 75 0 0 70 0 70 -285 0 -285 0 0
-145 0 -145 70 0 70 0 0 -70 0 -70 -70 0 -70 0 0 -70 0 -70 70 0 70 0 0 70 0
70 70 0 70 0 0 70 0 70 70 0 70 0 0 -70 0 -70 75 0 75 0 0 -70 0 -70 -75 0
-75 0 0 -75 0 -75 -355 0 -355 0 0 -70 0 -70 145 0 145 0 0 -70 0 -70 140 0
140 0 0 70 0 70 70 0 70 0 0 -70 0 -70 215 0 215 0 0 -70 0 -70 75 0 75 0 0
70 0 70 -75 0 -75 0 0 70 0 70 145 0 145 0 0 -70 0 -70 70 0 70 0 0 -70 0 -70
-70 0 -70 0 0 -75 0 -75 -145 0 -145 0 0 -70 0 -70 -70 0 -70 0 0 145 0 145
-285 0 -285 0 0 -75 0 -75 215 0 215 0 0 -70 0 -70 -75 0 -75 0 0 -215 0 -215
-140 0 -140 0 0 145 0 145 70 0 70 0 0 70 0 70 -70 0 -70 0 0 -70 0 -70 -145
0 -145 0 0 70 0 70 75 0 75 0 0 70 0 70 -145 0 -145 0 0 145 0 145 -70 0 -70
0 0 70 0 70 -75 0 -75 0 0 70 0 70 75 0 75 0 0 75 0 75 140 0 140 0 0 355 0
355 215 0 215 0 0 70 0 70 70 0 70 0 0 -70 0 -70 215 0 215 0 0 -70 0 -70 -70
0 -70 0 0 -70 0 -70 70 0 70 0 0 70 0 70 75 0 75 0 0 70 0 70 210 0 210 0 0
70 0 70 75 0 75 0 0 -70 0 -70 140 0 140 0 0 70 0 70 75 0 75 0 0 -70 0 -70
70 0 70 0 0 -70 0 -70 70 0 70 0 0 140 0 140 145 0 145 0 0 215 0 215 -75 0
-75 0 0 -140 0 -140 -70 0 -70 0 0 215 0 215 70 0 70 0 0 70 0 70 75 0 75 0 0
140 0 140 -75 0 -75 0 0 145 0 145 75 0 75 0 0 215 0 215 -75 0 -75 0 0 70 0
70 75 0 75 0 0 215 0 215 -75 0 -75 0 0 70 0 70 75 0 75 0 0 75 0 75 -215 0
-215 0 0 70 0 70 140 0 140 0 0 140 0 140 75 0 75 0 0 75 0 75 -75 0 -75 0 0
70 0 70 75 0 75 0 0 70 0 70 -75 0 -75 0 0 75 0 75 75 0 75 0 0 210 0 210
-145 0 -145 0 0 75 0 75 145 0 145 0 0 70 0 70 -75 0 -75 0 0 70 0 70 -70 0
-70 0 0 -70 0 -70 -70 0 -70 0 0 70 0 70 -70 0 -70 0 0 -140 0 -140 -75 0 -75
0 0 -145 0 -145 75 0 75 0 0 -70 0 -70 -75 0 -75 0 0 -145 0 -145 -215 0 -215
0 0 75 0 75 75 0 75 0 0 70 0 70 70 0 70 0 0 70 0 70 -145 0 -145 0 0 70 0 70
145 0 145 0 0 75 0 75 -145 0 -145 0 0 70 0 70 75 0 75 0 0 70 0 70 -75 0 -75
0 0 145 0 145 -70 0 -70 0 0 -145 0 -145 70 0 70 0 0 -70 0 -70 -140 0 -140 0
0 -70 0 -70 -70 0 -70 0 0 70 0 70 -145 0 -145 0 0 70 0 70 -70 0 -70 0 0 145
0 145 70 0 70 0 0 -70 0 -70 70 0 70 0 0 70 0 70 75 0 75 0 0 -145 0 -145 70
0 70 0 0 215 0 215 70 0 70 0 0 360 0 360 -285 0 -285 0 0 -75 0 -75 215 0
215 0 0 -70 0 -70 -430 0 -430 0 0 70 0 70 -70 0 -70 0 0 -140 0 -140 -145 0
-145 0 0 70 0 70 75 0 75 0 0 70 0 70 -360 0 -360 0 0 -70 0 -70 -285 0 -285
0 0 70 0 70 70 0 70 0 0 75 0 75 -70 0 -70 0 0 -75 0 -75 -145 0 -145 0 0 75
0 75 -70 0 -70 0 0 -75 0 -75 70 0 70 0 0 -140 0 -140 -70 0 -70 0 0 70 0 70
-285 0 -285 0 0 -70 0 -70 70 0 70 0 0 -75 0 -75 -140 0 -140 0 0 215 0 215
285 0 285 0 0 75 0 75 -285 0 -285 0 0 -75 0 -75 -75 0 -75 0 0 -215 0 -215
75 0 75 0 0 -70 0 -70 -75 0 -75 0 0 -70 0 -70 -70 0 -70 0 0 70 0 70 -140 0
-140 0 0 70 0 70 140 0 140 0 0 145 0 145 -70 0 -70 0 0 70 0 70 70 0 70 0 0
75 0 75 -70 0 -70 0 0 -75 0 -75 -70 0 -70 0 0 -215 0 -215 -145 0 -145 0 0
145 0 145 70 0 70 0 0 70 0 70 -140 0 -140 0 0 75 0 75 -75 0 -75 0 0 -75 0
-75 -70 0 -70 0 0 75 0 75 -70 0 -70 0 0 -215z m430 -5 l0 -70 -75 0 -75 0 0
-70 0 -70 75 0 75 0 0 -75 0 -75 70 0 70 0 0 -70 0 -70 -70 0 -70 0 0 -70 0
-70 70 0 70 0 0 -145 0 -145 70 0 70 0 0 -70 0 -70 75 0 75 0 0 -70 0 -70 140
0 140 0 0 70 0 70 -70 0 -70 0 0 70 0 70 -70 0 -70 0 0 75 0 75 -75 0 -75 0 0
140 0 140 75 0 75 0 0 -140 0 -140 70 0 70 0 0 70 0 70 70 0 70 0 0 -70 0 -70
70 0 70 0 0 70 0 70 75 0 75 0 0 70 0 70 140 0 140 0 0 70 0 70 75 0 75 0 0
75 0 75 70 0 70 0 0 -75 0 -75 -70 0 -70 0 0 -140 0 -140 70 0 70 0 0 -215 0
-215 70 0 70 0 0 -215 0 -215 70 0 70 0 0 215 0 215 75 0 75 0 0 -70 0 -70 70
0 70 0 0 -145 0 -145 -70 0 -70 0 0 -70 0 -70 70 0 70 0 0 -70 0 -70 -70 0
-70 0 0 -75 0 -75 140 0 140 0 0 -70 0 -70 -140 0 -140 0 0 -355 0 -355 70 0
70 0 0 -75 0 -75 70 0 70 0 0 145 0 145 -70 0 -70 0 0 140 0 140 145 0 145 0
0 145 0 145 70 0 70 0 0 -70 0 -70 70 0 70 0 0 140 0 140 -70 0 -70 0 0 75 0
75 70 0 70 0 0 70 0 70 -140 0 -140 0 0 70 0 70 140 0 140 0 0 145 0 145 -70
0 -70 0 0 70 0 70 70 0 70 0 0 -70 0 -70 145 0 145 0 0 -75 0 -75 70 0 70 0 0
-70 0 -70 -145 0 -145 0 0 -70 0 -70 75 0 75 0 0 -70 0 -70 -145 0 -145 0 0
-75 0 -75 430 0 430 0 0 75 0 75 70 0 70 0 0 -75 0 -75 -70 0 -70 0 0 -70 0
-70 355 0 355 0 0 70 0 70 -215 0 -215 0 0 75 0 75 75 0 75 0 0 70 0 70 70 0
70 0 0 70 0 70 -70 0 -70 0 0 70 0 70 -75 0 -75 0 0 -70 0 -70 -70 0 -70 0 0
-70 0 -70 -140 0 -140 0 0 -70 0 -70 -145 0 -145 0 0 70 0 70 70 0 70 0 0 140
0 140 215 0 215 0 0 75 0 75 -285 0 -285 0 0 70 0 70 145 0 145 0 0 70 0 70
-75 0 -75 0 0 75 0 75 -70 0 -70 0 0 140 0 140 70 0 70 0 0 70 0 70 75 0 75 0
0 -140 0 -140 70 0 70 0 0 215 0 215 70 0 70 0 0 -145 0 -145 145 0 145 0 0
-70 0 -70 -75 0 -75 0 0 -70 0 -70 -70 0 -70 0 0 -215 0 -215 145 0 145 0 0
70 0 70 70 0 70 0 0 -70 0 -70 -70 0 -70 0 0 -75 0 -75 70 0 70 0 0 -70 0 -70
145 0 145 0 0 70 0 70 -75 0 -75 0 0 75 0 75 75 0 75 0 0 -75 0 -75 70 0 70 0
0 75 0 75 140 0 140 0 0 -75 0 -75 -140 0 -140 0 0 -70 0 -70 140 0 140 0 0
-70 0 -70 -140 0 -140 0 0 -70 0 -70 70 0 70 0 0 -145 0 -145 70 0 70 0 0 -70
0 -70 -140 0 -140 0 0 -75 0 -75 215 0 215 0 0 75 0 75 70 0 70 0 0 -75 0 -75
70 0 70 0 0 145 0 145 75 0 75 0 0 -145 0 -145 70 0 70 0 0 145 0 145 70 0 70
0 0 -70 0 -70 70 0 70 0 0 -75 0 -75 -70 0 -70 0 0 -70 0 -70 -70 0 -70 0 0
-70 0 -70 -70 0 -70 0 0 -70 0 -70 70 0 70 0 0 -145 0 -145 -145 0 -145 0 0
-70 0 -70 145 0 145 0 0 -215 0 -215 -70 0 -70 0 0 140 0 140 -75 0 -75 0 0
-70 0 -70 -215 0 -215 0 0 70 0 70 -70 0 -70 0 0 -70 0 -70 -70 0 -70 0 0 -70
0 -70 70 0 70 0 0 -145 0 -145 -70 0 -70 0 0 -70 0 -70 -70 0 -70 0 0 -215 0
-215 70 0 70 0 0 70 0 70 70 0 70 0 0 75 0 75 70 0 70 0 0 -75 0 -75 75 0 75
0 0 -70 0 -70 70 0 70 0 0 -70 0 -70 70 0 70 0 0 70 0 70 75 0 75 0 0 70 0 70
-75 0 -75 0 0 75 0 75 75 0 75 0 0 70 0 70 70 0 70 0 0 -145 0 -145 140 0 140
0 0 -140 0 -140 -140 0 -140 0 0 70 0 70 -70 0 -70 0 0 -70 0 -70 -75 0 -75 0
0 -215 0 -215 75 0 75 0 0 70 0 70 70 0 70 0 0 -70 0 -70 -70 0 -70 0 0 -70 0
-70 -145 0 -145 0 0 -75 0 -75 -70 0 -70 0 0 75 0 75 -75 0 -75 0 0 -75 0 -75
-70 0 -70 0 0 75 0 75 -285 0 -285 0 0 -75 0 -75 -145 0 -145 0 0 75 0 75 145
0 145 0 0 140 0 140 145 0 145 0 0 75 0 75 70 0 70 0 0 -75 0 -75 70 0 70 0 0
75 0 75 145 0 145 0 0 140 0 140 -75 0 -75 0 0 -70 0 -70 -70 0 -70 0 0 70 0
70 -70 0 -70 0 0 -70 0 -70 -215 0 -215 0 0 70 0 70 -145 0 -145 0 0 215 0
215 -70 0 -70 0 0 -70 0 -70 -140 0 -140 0 0 -75 0 -75 140 0 140 0 0 -140 0
-140 -285 0 -285 0 0 140 0 140 -70 0 -70 0 0 -210 0 -210 140 0 140 0 0 -145
0 -145 145 0 145 0 0 70 0 70 -70 0 -70 0 0 75 0 75 70 0 70 0 0 -75 0 -75 70
0 70 0 0 75 0 75 70 0 70 0 0 70 0 70 75 0 75 0 0 -70 0 -70 -75 0 -75 0 0
-145 0 -145 -70 0 -70 0 0 -145 0 -145 -70 0 -70 0 0 75 0 75 -70 0 -70 0 0
-75 0 -75 -75 0 -75 0 0 -70 0 -70 -70 0 -70 0 0 145 0 145 70 0 70 0 0 70 0
70 -70 0 -70 0 0 70 0 70 -70 0 -70 0 0 -70 0 -70 -75 0 -75 0 0 -70 0 -70 75
0 75 0 0 -215 0 -215 -75 0 -75 0 0 140 0 140 -70 0 -70 0 0 -70 0 -70 -285 0
-285 0 0 70 0 70 -70 0 -70 0 0 75 0 75 70 0 70 0 0 70 0 70 70 0 70 0 0 -70
0 -70 145 0 145 0 0 70 0 70 -70 0 -70 0 0 70 0 70 70 0 70 0 0 -70 0 -70 70
0 70 0 0 145 0 145 -70 0 -70 0 0 70 0 70 -70 0 -70 0 0 140 0 140 140 0 140
0 0 75 0 75 70 0 70 0 0 70 0 70 -140 0 -140 0 0 -70 0 -70 -145 0 -145 0 0
70 0 70 75 0 75 0 0 145 0 145 -75 0 -75 0 0 140 0 140 75 0 75 0 0 70 0 70
-215 0 -215 0 0 -70 0 -70 -215 0 -215 0 0 -215 0 -215 -145 0 -145 0 0 -215
0 -215 75 0 75 0 0 75 0 75 140 0 140 0 0 -75 0 -75 -70 0 -70 0 0 -140 0
-140 70 0 70 0 0 70 0 70 215 0 215 0 0 70 0 70 70 0 70 0 0 -210 0 -210 -70
0 -70 0 0 -75 0 -75 -70 0 -70 0 0 -70 0 -70 -75 0 -75 0 0 -70 0 -70 -70 0
-70 0 0 70 0 70 70 0 70 0 0 70 0 70 -70 0 -70 0 0 75 0 75 -70 0 -70 0 0 70
0 70 -70 0 -70 0 0 70 0 70 -215 0 -215 0 0 70 0 70 70 0 70 0 0 145 0 145
-70 0 -70 0 0 -70 0 -70 -75 0 -75 0 0 -75 0 -75 -70 0 -70 0 0 75 0 75 70 0
70 0 0 70 0 70 -70 0 -70 0 0 70 0 70 -70 0 -70 0 0 75 0 75 70 0 70 0 0 70 0
70 70 0 70 0 0 70 0 70 -70 0 -70 0 0 70 0 70 -70 0 -70 0 0 -70 0 -70 -70 0
-70 0 0 -70 0 -70 -75 0 -75 0 0 -70 0 -70 75 0 75 0 0 -75 0 -75 -75 0 -75 0
0 -215 0 -215 75 0 75 0 0 -70 0 -70 70 0 70 0 0 -140 0 -140 -215 0 -215 0 0
-75 0 -75 70 0 70 0 0 -70 0 -70 -70 0 -70 0 0 -70 0 -70 -70 0 -70 0 0 -75 0
-75 70 0 70 0 0 -140 0 -140 70 0 70 0 0 70 0 70 75 0 75 0 0 -70 0 -70 -75 0
-75 0 0 -145 0 -145 -70 0 -70 0 0 145 0 145 -70 0 -70 0 0 70 0 70 -75 0 -75
0 0 -70 0 -70 -70 0 -70 0 0 -70 0 -70 -70 0 -70 0 0 70 0 70 -145 0 -145 0 0
285 0 285 75 0 75 0 0 -70 0 -70 70 0 70 0 0 -75 0 -75 140 0 140 0 0 75 0 75
-70 0 -70 0 0 70 0 70 -70 0 -70 0 0 145 0 145 140 0 140 0 0 70 0 70 75 0 75
0 0 70 0 70 140 0 140 0 0 70 0 70 -140 0 -140 0 0 75 0 75 70 0 70 0 0 70 0
70 -145 0 -145 0 0 -70 0 -70 -70 0 -70 0 0 70 0 70 -70 0 -70 0 0 -70 0 -70
-70 0 -70 0 0 140 0 140 210 0 210 0 0 75 0 75 -355 0 -355 0 0 70 0 70 70 0
70 0 0 70 0 70 75 0 75 0 0 70 0 70 -75 0 -75 0 0 75 0 75 -70 0 -70 0 0 -145
0 -145 -285 0 -285 0 0 70 0 70 140 0 140 0 0 75 0 75 -140 0 -140 0 0 70 0
70 140 0 140 0 0 -70 0 -70 75 0 75 0 0 70 0 70 70 0 70 0 0 70 0 70 70 0 70
0 0 75 0 75 -70 0 -70 0 0 70 0 70 -70 0 -70 0 0 70 0 70 -75 0 -75 0 0 -70 0
-70 -70 0 -70 0 0 70 0 70 70 0 70 0 0 70 0 70 -70 0 -70 0 0 75 0 75 70 0 70
0 0 70 0 70 -70 0 -70 0 0 70 0 70 -70 0 -70 0 0 75 0 75 70 0 70 0 0 70 0 70
70 0 70 0 0 70 0 70 -70 0 -70 0 0 70 0 70 70 0 70 0 0 -70 0 -70 75 0 75 0 0
70 0 70 70 0 70 0 0 75 0 75 70 0 70 0 0 70 0 70 75 0 75 0 0 -70 0 -70 70 0
70 0 0 -75 0 -75 70 0 70 0 0 75 0 75 145 0 145 0 0 70 0 70 -75 0 -75 0 0 70
0 70 -70 0 -70 0 0 -70 0 -70 -70 0 -70 0 0 70 0 70 70 0 70 0 0 145 0 145
-70 0 -70 0 0 -70 0 -70 -70 0 -70 0 0 -75 0 -75 -75 0 -75 0 0 75 0 75 -70 0
-70 0 0 70 0 70 70 0 70 0 0 70 0 70 75 0 75 0 0 -70 0 -70 70 0 70 0 0 215 0
215 70 0 70 0 0 70 0 70 70 0 70 0 0 70 0 70 75 0 75 0 0 -70z m3140 -140 l0
-70 -70 0 -70 0 0 -75 0 -75 -75 0 -75 0 0 -70 0 -70 75 0 75 0 0 -140 0 -140
-75 0 -75 0 0 140 0 140 -210 0 -210 0 0 -140 0 -140 70 0 70 0 0 70 0 70 70
0 70 0 0 -145 0 -145 -215 0 -215 0 0 215 0 215 75 0 75 0 0 70 0 70 -75 0
-75 0 0 75 0 75 215 0 215 0 0 -75 0 -75 70 0 70 0 0 75 0 75 75 0 75 0 0 70
0 70 70 0 70 0 0 -70z m-1140 -145 l0 -75 -75 0 -75 0 0 75 0 75 75 0 75 0 0
-75z m2000 0 l0 -75 -75 0 -75 0 0 75 0 75 75 0 75 0 0 -75z m570 -70 l0 -145
-70 0 -70 0 0 70 0 70 -75 0 -75 0 0 -70 0 -70 -70 0 -70 0 0 145 0 145 215 0
215 0 0 -145z m-2430 -360 l0 -215 -215 0 -215 0 0 215 0 215 215 0 215 0 0
-215z m860 -285 l0 -70 -75 0 -75 0 0 70 0 70 75 0 75 0 0 -70z m-570 -140 l0
-70 -75 0 -75 0 0 70 0 70 75 0 75 0 0 -70z m-4150 -290 l0 -70 -70 0 -70 0 0
-70 0 -70 70 0 70 0 0 -70 0 -70 -70 0 -70 0 0 -75 0 -75 70 0 70 0 0 -70 0
-70 -140 0 -140 0 0 145 0 145 70 0 70 0 0 70 0 70 -70 0 -70 0 0 140 0 140
140 0 140 0 0 -70z m7430 -140 l0 -70 70 0 70 0 0 -70 0 -70 -70 0 -70 0 0
-75 0 -75 -140 0 -140 0 0 75 0 75 70 0 70 0 0 140 0 140 70 0 70 0 0 -70z
m-7140 -570 l0 -70 -70 0 -70 0 0 70 0 70 70 0 70 0 0 -70z m7280 -1145 l0
-215 -70 0 -70 0 0 215 0 215 70 0 70 0 0 -215z m-6850 -570 l0 -215 -215 0
-215 0 0 215 0 215 215 0 215 0 0 -215z m3140 0 l0 -215 -215 0 -215 0 0 215
0 215 215 0 215 0 0 -215z m3140 0 l0 -215 -215 0 -215 0 0 215 0 215 215 0
215 0 0 -215z m570 0 l0 -215 -70 0 -70 0 0 70 0 70 -140 0 -140 0 0 75 0 75
140 0 140 0 0 70 0 70 70 0 70 0 0 -215z m-6570 -145 l0 -70 -70 0 -70 0 0 70
0 70 70 0 70 0 0 -70z m0 -285 l0 -75 -140 0 -140 0 0 75 0 75 140 0 140 0 0
-75z m2720 0 l0 -75 -75 0 -75 0 0 75 0 75 75 0 75 0 0 -75z m-2290 -285 l0
-70 -70 0 -70 0 0 70 0 70 70 0 70 0 0 -70z m-860 -285 l0 -75 -70 0 -70 0 0
75 0 75 70 0 70 0 0 -75z m290 0 l0 -75 -70 0 -70 0 0 75 0 75 70 0 70 0 0
-75z m-570 -215 l0 -140 70 0 70 0 0 70 0 70 70 0 70 0 0 -70 0 -70 145 0 145
0 0 -75 0 -75 -145 0 -145 0 0 -70 0 -70 -140 0 -140 0 0 -70 0 -70 -145 0
-145 0 0 -145 0 -145 -70 0 -70 0 0 145 0 145 70 0 70 0 0 70 0 70 75 0 75 0
0 70 0 70 -145 0 -145 0 0 75 0 75 145 0 145 0 0 140 0 140 70 0 70 0 0 -140z
m1860 -215 l0 -75 -75 0 -75 0 0 75 0 75 75 0 75 0 0 -75z m1420 -145 l0 -70
-140 0 -140 0 0 70 0 70 140 0 140 0 0 -70z m-2710 -140 l0 -70 -70 0 -70 0 0
-70 0 -70 215 0 215 0 0 -75 0 -75 -75 0 -75 0 0 -70 0 -70 -285 0 -285 0 0
-70 0 -70 70 0 70 0 0 -75 0 -75 -140 0 -140 0 0 -70 0 -70 -145 0 -145 0 0
70 0 70 145 0 145 0 0 145 0 145 -70 0 -70 0 0 145 0 145 140 0 140 0 0 70 0
70 145 0 145 0 0 70 0 70 70 0 70 0 0 -70z m3570 -140 l0 -70 70 0 70 0 0
-145 0 -145 75 0 75 0 0 145 0 145 70 0 70 0 0 -145 0 -145 -70 0 -70 0 0 -70
0 -70 -75 0 -75 0 0 -75 0 -75 -70 0 -70 0 0 -70 0 -70 -70 0 -70 0 0 70 0 70
-70 0 -70 0 0 215 0 215 140 0 140 0 0 75 0 75 -70 0 -70 0 0 70 0 70 70 0 70
0 0 -70z m2140 -145 l0 -75 -70 0 -70 0 0 75 0 75 70 0 70 0 0 -75z m-2570
-145 l0 -70 -70 0 -70 0 0 70 0 70 70 0 70 0 0 -70z m2290 0 l0 -70 140 0 140
0 0 -70 0 -70 75 0 75 0 0 70 0 70 70 0 70 0 0 -70 0 -70 145 0 145 0 0 -75 0
-75 140 0 140 0 0 75 0 75 -70 0 -70 0 0 70 0 70 140 0 140 0 0 -145 0 -145
-70 0 -70 0 0 -70 0 -70 -215 0 -215 0 0 -70 0 -70 -70 0 -70 0 0 70 0 70
-215 0 -215 0 0 70 0 70 -215 0 -215 0 0 -70 0 -70 -215 0 -215 0 0 70 0 70
75 0 75 0 0 75 0 75 70 0 70 0 0 -75 0 -75 70 0 70 0 0 75 0 75 75 0 75 0 0
140 0 140 70 0 70 0 0 -70z m-5290 -285 l0 -75 75 0 75 0 0 -70 0 -70 -145 0
-145 0 0 145 0 145 70 0 70 0 0 -75z m2720 -70 l0 -145 70 0 70 0 0 -70 0 -70
-70 0 -70 0 0 70 0 70 -75 0 -75 0 0 145 0 145 75 0 75 0 0 -145z m-430 -575
l0 -430 -70 0 -70 0 0 75 0 75 -145 0 -145 0 0 70 0 70 145 0 145 0 0 145 0
145 -75 0 -75 0 0 70 0 70 75 0 75 0 0 70 0 70 70 0 70 0 0 -430z m860 360 l0
-70 -75 0 -75 0 0 70 0 70 75 0 75 0 0 -70z m-1720 -140 l0 -70 -70 0 -70 0 0
-75 0 -75 -70 0 -70 0 0 75 0 75 70 0 70 0 0 70 0 70 70 0 70 0 0 -70z m1430
-285 l0 -215 -215 0 -215 0 0 215 0 215 215 0 215 0 0 -215z m3140 0 l0 -215
-215 0 -215 0 0 215 0 215 215 0 215 0 0 -215z m-570 -75 l0 -140 -70 0 -70 0
0 140 0 140 70 0 70 0 0 -140z m-2280 -70 l0 -70 -75 0 -75 0 0 70 0 70 75 0
75 0 0 -70z m710 0 l0 -70 70 0 70 0 0 -75 0 -75 75 0 75 0 0 -70 0 -70 -75 0
-75 0 0 -70 0 -70 -70 0 -70 0 0 -70 0 -70 -70 0 -70 0 0 70 0 70 70 0 70 0 0
215 0 215 -70 0 -70 0 0 70 0 70 70 0 70 0 0 -70z m1290 -145 l0 -75 70 0 70
0 0 -210 0 -210 -70 0 -70 0 0 140 0 140 -75 0 -75 0 0 -70 0 -70 -215 0 -215
0 0 70 0 70 145 0 145 0 0 145 0 145 145 0 145 0 0 -75z m1140 0 l0 -75 -70 0
-70 0 0 75 0 75 70 0 70 0 0 -75z m-5000 -145 l0 -70 70 0 70 0 0 -70 0 -70
-70 0 -70 0 0 -70 0 -70 -70 0 -70 0 0 70 0 70 70 0 70 0 0 70 0 70 -70 0 -70
0 0 70 0 70 70 0 70 0 0 -70z m1570 0 l0 -70 -70 0 -70 0 0 70 0 70 70 0 70 0
0 -70z m3290 -140 l0 -70 -75 0 -75 0 0 70 0 70 75 0 75 0 0 -70z m-3860 -140
l0 -70 -70 0 -70 0 0 70 0 70 70 0 70 0 0 -70z"/>
<path d="M1980 7555 l0 -215 70 0 70 0 0 -70 0 -70 75 0 75 0 0 70 0 70 -75 0
-75 0 0 70 0 70 75 0 75 0 0 70 0 70 -75 0 -75 0 0 75 0 75 -70 0 -70 0 0
-215z"/>
<path d="M1550 7270 l0 -70 75 0 75 0 0 70 0 70 -75 0 -75 0 0 -70z"/>
<path d="M3270 7270 l0 -70 70 0 70 0 0 -75 0 -75 70 0 70 0 0 -70 0 -70 -215
0 -215 0 0 -145 0 -145 75 0 75 0 0 75 0 75 70 0 70 0 0 -75 0 -75 70 0 70 0
0 -70 0 -70 -70 0 -70 0 0 -70 0 -70 70 0 70 0 0 -70 0 -70 -70 0 -70 0 0 -75
0 -75 70 0 70 0 0 -70 0 -70 75 0 75 0 0 -70 0 -70 -75 0 -75 0 0 -75 0 -75
-70 0 -70 0 0 75 0 75 -145 0 -145 0 0 70 0 70 75 0 75 0 0 145 0 145 -145 0
-145 0 0 210 0 210 -70 0 -70 0 0 -140 0 -140 -70 0 -70 0 0 70 0 70 -75 0
-75 0 0 70 0 70 75 0 75 0 0 75 0 75 -145 0 -145 0 0 -75 0 -75 -70 0 -70 0 0
-210 0 -210 70 0 70 0 0 -75 0 -75 -145 0 -145 0 0 145 0 145 -70 0 -70 0 0
70 0 70 70 0 70 0 0 70 0 70 -70 0 -70 0 0 -70 0 -70 -70 0 -70 0 0 -140 0
-140 -70 0 -70 0 0 285 0 285 -75 0 -75 0 0 -145 0 -145 -70 0 -70 0 0 -70 0
-70 -145 0 -145 0 0 -70 0 -70 -70 0 -70 0 0 -75 0 -75 70 0 70 0 0 -70 0 -70
75 0 75 0 0 -145 0 -145 70 0 70 0 0 145 0 145 70 0 70 0 0 -145 0 -145 75 0
75 0 0 145 0 145 70 0 70 0 0 -70 0 -70 70 0 70 0 0 70 0 70 -70 0 -70 0 0 70
0 70 140 0 140 0 0 -70 0 -70 145 0 145 0 0 -70 0 -70 70 0 70 0 0 70 0 70 75
0 75 0 0 -70 0 -70 70 0 70 0 0 -145 0 -145 -145 0 -145 0 0 -70 0 -70 75 0
75 0 0 -70 0 -70 -75 0 -75 0 0 -215 0 -215 -70 0 -70 0 0 70 0 70 -70 0 -70
0 0 -145 0 -145 -75 0 -75 0 0 75 0 75 -210 0 -210 0 0 70 0 70 70 0 70 0 0
70 0 70 70 0 70 0 0 -70 0 -70 70 0 70 0 0 70 0 70 -70 0 -70 0 0 75 0 75 145
0 145 0 0 -75 0 -75 70 0 70 0 0 75 0 75 -70 0 -70 0 0 285 0 285 -75 0 -75 0
0 -75 0 -75 -70 0 -70 0 0 -70 0 -70 -70 0 -70 0 0 -70 0 -70 -70 0 -70 0 0
-70 0 -70 70 0 70 0 0 -75 0 -75 -70 0 -70 0 0 -70 0 -70 -75 0 -75 0 0 -70 0
-70 75 0 75 0 0 -75 0 -75 70 0 70 0 0 -70 0 -70 70 0 70 0 0 70 0 70 70 0 70
0 0 -140 0 -140 75 0 75 0 0 70 0 70 70 0 70 0 0 70 0 70 70 0 70 0 0 -70 0
-70 75 0 75 0 0 70 0 70 70 0 70 0 0 75 0 75 70 0 70 0 0 -75 0 -75 70 0 70 0
0 -70 0 -70 75 0 75 0 0 -70 0 -70 -75 0 -75 0 0 -70 0 -70 75 0 75 0 0 -75 0
-75 -75 0 -75 0 0 -70 0 -70 75 0 75 0 0 70 0 70 140 0 140 0 0 75 0 75 -70 0
-70 0 0 70 0 70 70 0 70 0 0 70 0 70 75 0 75 0 0 70 0 70 70 0 70 0 0 75 0 75
-70 0 -70 0 0 70 0 70 70 0 70 0 0 70 0 70 -70 0 -70 0 0 145 0 145 70 0 70 0
0 215 0 215 140 0 140 0 0 70 0 70 -210 0 -210 0 0 215 0 215 140 0 140 0 0
70 0 70 -70 0 -70 0 0 70 0 70 -70 0 -70 0 0 215 0 215 -75 0 -75 0 0 75 0 75
75 0 75 0 0 70 0 70 -75 0 -75 0 0 -70 0 -70 -70 0 -70 0 0 70 0 70 -70 0 -70
0 0 -70z m430 -860 l0 -70 -75 0 -75 0 0 70 0 70 75 0 75 0 0 -70z m-2150
-140 l0 -70 75 0 75 0 0 -75 0 -75 -75 0 -75 0 0 75 0 75 -70 0 -70 0 0 -75 0
-75 -70 0 -70 0 0 75 0 75 70 0 70 0 0 70 0 70 70 0 70 0 0 -70z m1150 0 l0
-70 70 0 70 0 0 -75 0 -75 140 0 140 0 0 -70 0 -70 -140 0 -140 0 0 70 0 70
-70 0 -70 0 0 75 0 75 -145 0 -145 0 0 70 0 70 145 0 145 0 0 -70z m-150 -290
l0 -70 -70 0 -70 0 0 70 0 70 70 0 70 0 0 -70z m570 -355 l0 -145 75 0 75 0 0
70 0 70 70 0 70 0 0 -210 0 -210 70 0 70 0 0 -75 0 -75 -70 0 -70 0 0 75 0 75
-70 0 -70 0 0 -75 0 -75 -75 0 -75 0 0 75 0 75 -140 0 -140 0 0 -75 0 -75 70
0 70 0 0 -70 0 -70 -140 0 -140 0 0 145 0 145 70 0 70 0 0 140 0 140 70 0 70
0 0 145 0 145 70 0 70 0 0 -145z m-1000 -215 l0 -70 -70 0 -70 0 0 -70 0 -70
-70 0 -70 0 0 70 0 70 70 0 70 0 0 70 0 70 70 0 70 0 0 -70z m1580 0 l0 -70
-75 0 -75 0 0 70 0 70 75 0 75 0 0 -70z m-150 -570 l0 -70 75 0 75 0 0 -75 0
-75 -75 0 -75 0 0 75 0 75 -70 0 -70 0 0 -145 0 -145 -70 0 -70 0 0 70 0 70
-75 0 -75 0 0 145 0 145 215 0 215 0 0 -70z"/>
<path d="M2980 5410 l0 -70 70 0 70 0 0 -70 0 -70 75 0 75 0 0 70 0 70 -75 0
-75 0 0 70 0 70 -70 0 -70 0 0 -70z"/>
<path d="M5550 7270 l0 -70 75 0 75 0 0 -75 0 -75 70 0 70 0 0 75 0 75 70 0
70 0 0 70 0 70 -70 0 -70 0 0 -70 0 -70 -70 0 -70 0 0 70 0 70 -75 0 -75 0 0
-70z"/>
<path d="M3120 6410 l0 -70 75 0 75 0 0 70 0 70 -75 0 -75 0 0 -70z"/>
<path d="M4120 6270 l0 -70 -70 0 -70 0 0 -75 0 -75 70 0 70 0 0 75 0 75 75 0
75 0 0 70 0 70 -75 0 -75 0 0 -70z"/>
<path d="M6550 6270 l0 -70 75 0 75 0 0 -145 0 -145 70 0 70 0 0 145 0 145
-70 0 -70 0 0 70 0 70 -75 0 -75 0 0 -70z"/>
<path d="M5270 5695 l0 -215 -75 0 -75 0 0 70 0 70 -140 0 -140 0 0 -70 0 -70
-145 0 -145 0 0 -70 0 -70 145 0 145 0 0 70 0 70 70 0 70 0 0 -70 0 -70 145 0
145 0 0 -285 0 -285 -75 0 -75 0 0 -75 0 -75 75 0 75 0 0 75 0 75 70 0 70 0 0
140 0 140 70 0 70 0 0 145 0 145 75 0 75 0 0 -215 0 -215 70 0 70 0 0 215 0
215 70 0 70 0 0 -215 0 -215 215 0 215 0 0 -70 0 -70 -215 0 -215 0 0 -215 0
-215 -70 0 -70 0 0 70 0 70 -70 0 -70 0 0 -70 0 -70 70 0 70 0 0 -70 0 -70
-70 0 -70 0 0 -75 0 -75 70 0 70 0 0 75 0 75 70 0 70 0 0 70 0 70 70 0 70 0 0
-70 0 -70 215 0 215 0 0 70 0 70 -140 0 -140 0 0 140 0 140 70 0 70 0 0 -70 0
-70 70 0 70 0 0 70 0 70 -70 0 -70 0 0 75 0 75 355 0 355 0 0 -75 0 -75 75 0
75 0 0 145 0 145 70 0 70 0 0 70 0 70 -70 0 -70 0 0 75 0 75 -75 0 -75 0 0 70
0 70 -210 0 -210 0 0 -70 0 -70 70 0 70 0 0 -75 0 -75 -145 0 -145 0 0 -70 0
-70 -70 0 -70 0 0 70 0 70 -70 0 -70 0 0 75 0 75 70 0 70 0 0 70 0 70 70 0 70
0 0 70 0 70 145 0 145 0 0 70 0 70 -145 0 -145 0 0 -70 0 -70 -70 0 -70 0 0
-70 0 -70 -70 0 -70 0 0 70 0 70 -75 0 -75 0 0 -70 0 -70 -70 0 -70 0 0 70 0
70 -70 0 -70 0 0 -70 0 -70 -70 0 -70 0 0 140 0 140 70 0 70 0 0 145 0 145
-70 0 -70 0 0 -145 0 -145 -145 0 -145 0 0 145 0 145 -70 0 -70 0 0 -215z
m140 -285 l0 -70 -70 0 -70 0 0 70 0 70 70 0 70 0 0 -70z m860 -140 l0 -70
-75 0 -75 0 0 70 0 70 75 0 75 0 0 -70z m1000 -290 l0 -70 -145 0 -145 0 0 70
0 70 145 0 145 0 0 -70z"/>
<path d="M5980 5695 l0 -75 145 0 145 0 0 75 0 75 -145 0 -145 0 0 -75z"/>
<path d="M3980 5480 l0 -140 70 0 70 0 0 140 0 140 -70 0 -70 0 0 -140z"/>
<path d="M1410 5410 l0 -70 70 0 70 0 0 70 0 70 -70 0 -70 0 0 -70z"/>
<path d="M7410 5410 l0 -70 70 0 70 0 0 70 0 70 -70 0 -70 0 0 -70z"/>
<path d="M3980 5055 l0 -145 70 0 70 0 0 -70 0 -70 -70 0 -70 0 0 -75 0 -75
70 0 70 0 0 75 0 75 290 0 290 0 0 70 0 70 -145 0 -145 0 0 70 0 70 -70 0 -70
0 0 75 0 75 -145 0 -145 0 0 -145z"/>
<path d="M4980 4980 l0 -70 -70 0 -70 0 0 -70 0 -70 70 0 70 0 0 70 0 70 70 0
70 0 0 70 0 70 -70 0 -70 0 0 -70z"/>
<path d="M5550 4695 l0 -75 -70 0 -70 0 0 -70 0 -70 70 0 70 0 0 70 0 70 75 0
75 0 0 75 0 75 -75 0 -75 0 0 -75z"/>
<path d="M7410 4695 l0 -75 70 0 70 0 0 75 0 75 -70 0 -70 0 0 -75z"/>
<path d="M4840 4550 l0 -70 70 0 70 0 0 70 0 70 -70 0 -70 0 0 -70z"/>
<path d="M5120 4410 l0 -70 75 0 75 0 0 -70 0 -70 -145 0 -145 0 0 -75 0 -75
145 0 145 0 0 -140 0 -140 -75 0 -75 0 0 -75 0 -75 75 0 75 0 0 75 0 75 215 0
215 0 0 70 0 70 -145 0 -145 0 0 215 0 215 -70 0 -70 0 0 70 0 70 -75 0 -75 0
0 -70z"/>
<path d="M4700 4270 l0 -70 70 0 70 0 0 70 0 70 -70 0 -70 0 0 -70z"/>
<path d="M6700 4270 l0 -70 70 0 70 0 0 70 0 70 -70 0 -70 0 0 -70z"/>
<path d="M2270 4125 l0 -75 70 0 70 0 0 75 0 75 -70 0 -70 0 0 -75z"/>
<path d="M6120 3980 l0 -70 75 0 75 0 0 -145 0 -145 140 0 140 0 0 75 0 75
-70 0 -70 0 0 140 0 140 -145 0 -145 0 0 -70z"/>
<path d="M2550 3410 l0 -70 75 0 75 0 0 70 0 70 -75 0 -75 0 0 -70z"/>
<path d="M3980 3270 l0 -70 70 0 70 0 0 70 0 70 -70 0 -70 0 0 -70z"/>
<path d="M4270 3270 l0 -70 70 0 70 0 0 70 0 70 -70 0 -70 0 0 -70z"/>
<path d="M4980 3270 l0 -70 70 0 70 0 0 -75 0 -75 75 0 75 0 0 75 0 75 -75 0
-75 0 0 70 0 70 -70 0 -70 0 0 -70z"/>
<path d="M2120 2980 l0 -70 145 0 145 0 0 70 0 70 -145 0 -145 0 0 -70z"/>
<path d="M6980 2910 l0 -140 70 0 70 0 0 140 0 140 -70 0 -70 0 0 -140z"/>
<path d="M7270 2980 l0 -70 70 0 70 0 0 70 0 70 -70 0 -70 0 0 -70z"/>
<path d="M4410 2695 l0 -75 70 0 70 0 0 75 0 75 -70 0 -70 0 0 -75z"/>
<path d="M4840 2695 l0 -75 70 0 70 0 0 75 0 75 -70 0 -70 0 0 -75z"/>
<path d="M1840 2410 l0 -70 70 0 70 0 0 70 0 70 -70 0 -70 0 0 -70z"/>
<path d="M4120 7270 l0 -70 75 0 75 0 0 70 0 70 -75 0 -75 0 0 -70z"/>
<path d="M980 4125 l0 -75 70 0 70 0 0 75 0 75 -70 0 -70 0 0 -75z"/>
<path d="M4120 4125 l0 -75 75 0 75 0 0 75 0 75 -75 0 -75 0 0 -75z"/>
<path d="M7270 4125 l0 -75 70 0 70 0 0 75 0 75 -70 0 -70 0 0 -75z"/>
<path d="M700 2695 l0 -75 70 0 70 0 0 75 0 75 -70 0 -70 0 0 -75z"/>
<path d="M980 2695 l0 -75 70 0 70 0 0 75 0 75 -70 0 -70 0 0 -75z"/>
<path d="M980 2125 l0 -75 -70 0 -70 0 0 -70 0 -70 70 0 70 0 0 70 0 70 70 0
70 0 0 75 0 75 -70 0 -70 0 0 -75z"/>
<path d="M4980 1840 l0 -70 70 0 70 0 0 70 0 70 -70 0 -70 0 0 -70z"/>
<path d="M6980 1695 l0 -75 70 0 70 0 0 75 0 75 -70 0 -70 0 0 -75z"/>
<path d="M4120 980 l0 -70 75 0 75 0 0 70 0 70 -75 0 -75 0 0 -70z"/>
<path d="M7270 980 l0 -70 70 0 70 0 0 70 0 70 -70 0 -70 0 0 -70z"/>
<path d="M4700 8125 l0 -75 70 0 70 0 0 75 0 75 -70 0 -70 0 0 -75z"/>
<path d="M6120 8125 l0 -75 75 0 75 0 0 75 0 75 -75 0 -75 0 0 -75z"/>
<path d="M7270 7700 l0 -500 500 0 500 0 0 500 0 500 -500 0 -500 0 0 -500z
m850 -5 l0 -355 -355 0 -355 0 0 355 0 355 355 0 355 0 0 -355z"/>
<path d="M7550 7695 l0 -215 215 0 215 0 0 215 0 215 -215 0 -215 0 0 -215z"/>
<path d="M7410 6980 l0 -70 70 0 70 0 0 70 0 70 -70 0 -70 0 0 -70z"/>
<path d="M120 4550 l0 -70 75 0 75 0 0 70 0 70 -75 0 -75 0 0 -70z"/>
<path d="M120 3985 l0 -215 75 0 75 0 0 -75 0 -75 70 0 70 0 0 145 0 145 70 0
70 0 0 70 0 70 -70 0 -70 0 0 75 0 75 -145 0 -145 0 0 -215z"/>
<path d="M700 3550 l0 -70 70 0 70 0 0 70 0 70 -70 0 -70 0 0 -70z"/>
<path d="M120 3410 l0 -70 75 0 75 0 0 70 0 70 -75 0 -75 0 0 -70z"/>
<path d="M410 3270 l0 -70 70 0 70 0 0 70 0 70 -70 0 -70 0 0 -70z"/>
<path d="M3410 2550 l0 -70 70 0 70 0 0 70 0 70 -70 0 -70 0 0 -70z"/>
<path d="M1980 1840 l0 -70 145 0 145 0 0 70 0 70 -145 0 -145 0 0 -70z"/>
<path d="M3120 1840 l0 -70 75 0 75 0 0 70 0 70 -75 0 -75 0 0 -70z"/>
<path d="M2270 1550 l0 -70 70 0 70 0 0 70 0 70 -70 0 -70 0 0 -70z"/>
<path d="M2120 1125 l0 -215 75 0 75 0 0 -70 0 -70 -75 0 -75 0 0 -75 0 -75
-70 0 -70 0 0 -140 0 -140 145 0 145 0 0 -70 0 -70 -75 0 -75 0 0 -75 0 -75
145 0 145 0 0 145 0 145 -70 0 -70 0 0 70 0 70 70 0 70 0 0 70 0 70 -70 0 -70
0 0 75 0 75 70 0 70 0 0 140 0 140 -70 0 -70 0 0 75 0 75 70 0 70 0 0 70 0 70
-145 0 -145 0 0 -215z m150 -575 l0 -70 -75 0 -75 0 0 70 0 70 75 0 75 0 0
-70z"/>
<path d="M120 550 l0 -500 500 0 500 0 0 500 0 500 -500 0 -500 0 0 -500z
m860 5 l0 -355 -355 0 -355 0 0 355 0 355 355 0 355 0 0 -355z"/>
<path d="M410 555 l0 -215 215 0 215 0 0 215 0 215 -215 0 -215 0 0 -215z"/>
</g>
</svg>
