<svg width="24" height="25" viewBox="0 0 24 25" fill="none" xmlns="http://www.w3.org/2000/svg">
<g clip-path="url(#clip0)">
<path d="M6.34394 20.8899L6.73628 21.0861C8.37128 22.067 10.2023 22.5248 12.0334 22.5248C17.7883 22.5248 22.4968 17.8163 22.4968 12.0615C22.4968 9.31489 21.385 6.63364 19.4232 4.67174C17.4613 2.70983 14.8454 1.59814 12.0334 1.59814C6.2786 1.59814 1.57 6.30664 1.63544 12.1269C1.63544 14.0887 2.224 15.9853 3.20491 17.6201L3.46647 18.0125L2.42022 21.8709L6.34394 20.8899Z" fill="#00E676"/>
<path d="M20.5343 3.62512C18.3109 1.33631 15.2373 0.09375 12.0983 0.09375C5.42794 0.09375 0.0654375 5.52159 0.130781 12.1266C0.130781 14.2193 0.719344 16.2466 1.70034 18.0776L0 24.2903L6.34341 22.6553C8.10909 23.6363 10.0709 24.0941 12.0329 24.0941C18.6379 24.0941 24.0004 18.6662 24.0004 12.0613C24.0004 8.85684 22.7578 5.84859 20.5344 3.62512H20.5343ZM12.0983 22.0669C10.3326 22.0669 8.56687 21.6092 7.06275 20.6936L6.67041 20.4974L2.87747 21.4783L3.85837 17.7508L3.59681 17.3584C0.719344 12.7153 2.09269 6.56794 6.80119 3.69047C11.5097 0.813094 17.5915 2.18644 20.469 6.89494C23.3464 11.6034 21.973 17.6853 17.2646 20.5627C15.7604 21.5437 13.9294 22.0668 12.0983 22.0668V22.0669ZM17.8531 14.808L17.1337 14.481C17.1337 14.481 16.0875 14.0232 15.4335 13.6962C15.3681 13.6962 15.3027 13.6308 15.2373 13.6308C15.0411 13.6308 14.9103 13.6962 14.7795 13.7617C14.7795 13.7617 14.7142 13.827 13.7986 14.8733C13.7332 15.0041 13.6024 15.0696 13.4716 15.0696H13.4062C13.3408 15.0696 13.21 15.0041 13.1446 14.9388L12.8176 14.808C12.0982 14.481 11.4443 14.0886 10.9211 13.5654C10.7903 13.4347 10.5941 13.3039 10.4633 13.1731C10.0056 12.7153 9.54778 12.1921 9.22087 11.6035L9.15544 11.4727C9.09009 11.4073 9.09009 11.342 9.02466 11.2112C9.02466 11.0804 9.02466 10.9496 9.09009 10.8842C9.09009 10.8842 9.35166 10.5572 9.54778 10.3611C9.67866 10.2302 9.744 10.0341 9.87478 9.90328C10.0056 9.70706 10.071 9.4455 10.0056 9.24928C9.94022 8.92228 9.15544 7.15659 8.95931 6.76425C8.82844 6.56803 8.69775 6.50269 8.50153 6.43725H7.78219C7.65131 6.43725 7.52062 6.50269 7.38975 6.50269L7.32431 6.56803C7.19353 6.63347 7.06275 6.76425 6.93197 6.82959C6.80119 6.96047 6.73575 7.09116 6.60497 7.22203C6.14719 7.81059 5.88562 8.52994 5.88562 9.24928C5.88562 9.77241 6.01641 10.2956 6.21262 10.7534L6.27806 10.9496C6.86663 12.1921 7.65131 13.3039 8.69775 14.2848L8.95931 14.5463C9.15544 14.7426 9.35166 14.8733 9.48244 15.0695C10.8558 16.2467 12.4252 17.0968 14.1909 17.5546C14.3872 17.6199 14.6487 17.6199 14.8449 17.6854H15.4988C15.8258 17.6854 16.2182 17.5546 16.4798 17.4238C16.676 17.293 16.8068 17.293 16.9375 17.1623L17.0684 17.0314C17.1992 16.9006 17.33 16.8353 17.4608 16.7045C17.5915 16.5737 17.7223 16.4429 17.7878 16.312C17.9185 16.0505 17.9839 15.7235 18.0493 15.3966V14.9388C18.0493 14.9388 17.9839 14.8733 17.8531 14.808Z" fill="white"/>
</g>
<defs>
<clipPath id="clip0">
<rect width="24" height="24.2812" fill="white" transform="translate(0 0.09375)"/>
</clipPath>
</defs>
</svg>
