<svg width="36" height="31" viewBox="0 0 36 31" fill="none" xmlns="http://www.w3.org/2000/svg">
<path fill-rule="evenodd" clip-rule="evenodd" d="M4.03812 0.966064H32.1907C34.1343 0.966064 35.7098 2.29399 35.7098 3.93208V27.6602C35.7098 29.2983 34.1343 30.6262 32.1907 30.6262H4.03812C2.09459 30.6262 0.519043 29.2983 0.519043 27.6602V3.93208C0.519043 2.29399 2.09459 0.966064 4.03812 0.966064ZM4.0381 3.93215V27.6603H32.1907V3.93215H4.0381ZM16.589 15.803H19.8739V24.6945H23.393V15.803H26.8812V12.837H23.393V11.3475C23.393 10.5284 24.1808 9.86445 25.1526 9.86445H26.9121V6.89844H25.1526C22.2373 6.89844 19.8739 8.89033 19.8739 11.3475V12.837H16.589V15.803Z" fill="white"/>
</svg>
