<svg width="36" height="31" viewBox="0 0 36 31" fill="none" xmlns="http://www.w3.org/2000/svg">
<path fill-rule="evenodd" clip-rule="evenodd" d="M25.1526 0.966064H11.0763C5.24574 0.966064 0.519104 4.94985 0.519104 9.86411V21.7282C0.519104 26.6424 5.24574 30.6262 11.0763 30.6262H25.1526C30.9832 30.6262 35.7099 26.6424 35.7099 21.7282V9.86411C35.7099 4.94985 30.9832 0.966064 25.1526 0.966064ZM4.03818 9.86411C4.03818 6.58794 7.18927 3.93208 11.0763 3.93208H25.1526C29.0397 3.93208 32.1908 6.58794 32.1908 9.86411V21.7282C32.1908 25.0043 29.0397 27.6602 25.1526 27.6602H11.0763C7.18927 27.6602 4.03818 25.0043 4.03818 21.7282V9.86411ZM18.1145 23.2112C13.2557 23.2112 9.31679 19.8913 9.31679 15.7961C9.31679 11.7009 13.2557 8.3811 18.1145 8.3811C22.9733 8.3811 26.9122 11.7009 26.9122 15.7961C26.9122 19.8913 22.9733 23.2112 18.1145 23.2112ZM18.1145 20.2452C21.0298 20.2452 23.3931 18.2533 23.3931 15.7961C23.3931 13.339 21.0298 11.3471 18.1145 11.3471C15.1992 11.3471 12.8359 13.339 12.8359 15.7961C12.8359 18.2533 15.1992 20.2452 18.1145 20.2452ZM28.6717 8.3811C28.6717 9.20014 27.8839 9.86411 26.9122 9.86411C25.9404 9.86411 25.1526 9.20014 25.1526 8.3811C25.1526 7.56206 25.9404 6.89809 26.9122 6.89809C27.8839 6.89809 28.6717 7.56206 28.6717 8.3811Z" fill="white"/>
</svg>
