<svg width="356" height="347" viewBox="0 0 356 347" fill="none" xmlns="http://www.w3.org/2000/svg">
<path d="M278.45 247.797C259.8 233.912 250.47 226.969 241.09 224.507C231.7 222.044 217.36 223.872 188.69 227.528C156.71 231.604 122.61 231.266 90.2599 225.815C35.3799 216.566 7.92987 211.942 1.12987 178.246C-5.68013 144.551 35.8999 118.165 119.06 65.3951C184.32 23.9821 252.09 -21.9083 319.68 -12.7802C358.87 -7.48688 378.47 -4.84019 382.49 -3.58752C386.51 -2.33485 388.48 -1.33463 392.41 0.665808C439.5 24.5945 468.46 125.288 490.42 219.39C505.7 284.905 513.35 317.662 487.98 337.308C462.6 356.953 437.14 343.625 386.22 316.968C344.3 295.027 306.73 268.85 278.45 247.797Z" fill="#FDB1FA" fill-opacity="0.33"/>
</svg>
