<svg width="37" height="30" viewBox="0 0 37 30" fill="none" xmlns="http://www.w3.org/2000/svg">
<path fill-rule="evenodd" clip-rule="evenodd" d="M34.1607 4.68585L36.6499 4.93087L35.531 6.82097C34.9853 7.7427 34.4391 8.66443 33.8923 9.58616C33.8275 9.78138 33.7136 9.95252 33.545 10.1753C33.4746 10.2685 33.234 10.5646 33.2228 10.5788C33.1593 10.6591 33.1123 10.7224 33.0785 10.7732V14.3154C33.0785 23.3795 22.6708 29.1394 12.8421 29.1394C10.8309 29.1394 9.30284 29.0582 7.55312 28.7363C4.67364 28.2067 2.53074 27.154 1.55015 25.3141L0.540589 23.4198L2.99405 23.2296C5.21356 23.0576 7.13794 22.7012 8.61577 22.224C4.5586 21.674 2.28498 20.1722 2.28498 17.3516V15.8686H4.04451C4.43111 15.8686 4.7797 15.8422 5.09134 15.7937C2.04638 14.2592 0.521254 11.7976 0.521254 8.38336C0.520921 8.23783 0.520921 8.23783 0.519883 8.08223C0.508444 6.36128 0.618117 5.44173 1.17708 4.26812C1.53531 3.51596 2.05312 2.81965 2.75002 2.18164L4.07779 0.966064L5.3687 2.20952C9.62285 6.30727 13.8282 8.7933 18.1218 9.09401C18.1402 5.31283 21.5307 2.45133 26.04 2.45133C28.1422 2.45133 30.0491 3.12386 31.5476 4.33653C32.3678 4.47858 33.2389 4.59512 34.1607 4.68585ZM30.2705 7.1386L29.7311 7.03565L29.3586 6.69111C28.4579 5.85807 27.3273 5.41758 26.04 5.41758C23.4659 5.41758 21.6408 6.96344 21.6408 9.12509C21.6408 9.47837 21.63 9.70035 21.5778 9.9921C21.3694 11.1563 20.5947 12.0911 19.0015 12.0911C13.7263 12.0911 8.96727 9.70924 4.32656 5.64115C4.08731 6.25412 4.03105 6.8842 4.0389 8.06585C4.03996 8.22389 4.03996 8.22389 4.04033 8.38359C4.04033 11.4208 5.50024 13.0821 8.95691 14.0081L10.1835 14.3367V15.4215C10.1835 16.7369 8.70486 17.9751 6.54145 18.5297C7.53317 19.1639 9.56137 19.5061 12.8427 19.5061H14.6023V20.9891C14.6023 23.1139 11.7056 24.7775 7.32983 25.6463C8.75688 26.0148 10.657 26.1736 12.8421 26.1736C20.9614 26.1736 29.5594 21.4152 29.5594 14.3156V10.6081C29.5594 10.1724 29.7093 9.79424 29.9582 9.40104C30.0555 9.2473 30.1627 9.10073 30.2949 8.93357C30.3198 8.9021 30.4122 8.78807 30.4856 8.69691L30.625 8.46184C30.851 8.08095 31.0769 7.70005 31.3027 7.31916C30.9518 7.26314 30.6077 7.20295 30.2705 7.1386Z" fill="white"/>
</svg>
